SplineFontDB: 3.0
FontName: Cardo-Bold
FullName: Cardo Bold
FamilyName: Cardo
Weight: Bold
Copyright: Copyright (c) 2002-2011, David J. Perry (hospes02@scholarsfonts.net)
Version: 1.0011
ItalicAngle: 0
UnderlinePosition: -91
UnderlineWidth: 115
Ascent: 1638
Descent: 410
sfntRevision: 0x00010048
LayerCount: 2
Layer: 0 1 "Back"  1
Layer: 1 1 "Fore"  0
XUID: [1021 288 713564382 6275743]
FSType: 0
OS2Version: 3
OS2_WeightWidthSlopeOnly: 0
OS2_UseTypoMetrics: 1
CreationTime: 1130160459
ModificationTime: 1315160158
PfmFamily: 17
TTFWeight: 700
TTFWidth: 5
LineGap: 0
VLineGap: 0
Panose: 2 2 8 4 8 0 0 2 0 3
OS2TypoAscent: 2028
OS2TypoAOffset: 0
OS2TypoDescent: -745
OS2TypoDOffset: 0
OS2TypoLinegap: 0
OS2WinAscent: 2028
OS2WinAOffset: 0
OS2WinDescent: 745
OS2WinDOffset: 0
HheadAscent: 2028
HheadAOffset: 0
HheadDescent: -745
HheadDOffset: 0
OS2SubXSize: 205
OS2SubYSize: 205
OS2SubXOff: 0
OS2SubYOff: 287
OS2SupXSize: 205
OS2SupYSize: 205
OS2SupXOff: 0
OS2SupYOff: 287
OS2StrikeYSize: 102
OS2StrikeYPos: 512
OS2FamilyClass: 258
OS2Vendor: 'FSFS'
OS2CodePages: 200000bb.4d000000
OS2UnicodeRanges: e40008ff.5201e0fb.04608000.00000000
Lookup: 258 0 0 "'kern' Horizontal Kerning in Latin lookup 0"  {"'kern' Horizontal Kerning in Latin lookup 0 subtable"  } ['kern' ('latn' <'dflt' > ) ]
MarkAttachClasses: 1
DEI: 91125
LangName: 1033 "" "" "" "DavidJ.Perry: Cardo Bold: 2003" "" "Version 1.0011" "" "Cardo is a trademark of David J. Perry." "David J. Perry" "David J. Perry" "A font for scholarly use in classical and medieval languages. Contains characters for many languages as well as those required for quality typography." "http://scholarsfonts.net" "http://scholarsfonts.net" "This Font Software is licensed under the SIL Open Font License, Version 1.1. This license is available with a FAQ at: http://scripts.sil.org/OFL" "" "" "" "" "Cardo Bold" 
GaspTable: 1 65535 3
Encoding: UnicodeFull
UnicodeInterp: none
NameList: Adobe Glyph List
DisplaySize: -36
AntiAlias: 1
FitToEm: 1

StartChar: .notdef
Encoding: 1114112 -1 0
Width: 1078
Flags: W
LayerCount: 2
Fore
SplineSet
120 1410 m 1,0,-1
 958 1410 l 1,1,-1
 958 0 l 1,2,-1
 120 0 l 1,3,-1
 120 1410 l 1,0,-1
911 47 m 1,4,-1
 911 1363 l 1,5,-1
 167 1363 l 1,6,-1
 167 47 l 1,7,-1
 911 47 l 1,4,-1
389 674 m 256,8,9
 389 705 389 705 401 732.5 c 128,-1,10
 413 760 413 760 433 780 c 128,-1,11
 453 800 453 800 480.5 812 c 128,-1,12
 508 824 508 824 539 824 c 256,13,14
 570 824 570 824 597.5 812 c 128,-1,15
 625 800 625 800 645 780 c 128,-1,16
 665 760 665 760 677 732.5 c 128,-1,17
 689 705 689 705 689 674 c 256,18,19
 689 643 689 643 677 615.5 c 128,-1,20
 665 588 665 588 645 568 c 128,-1,21
 625 548 625 548 597.5 536 c 128,-1,22
 570 524 570 524 539 524 c 256,23,24
 508 524 508 524 480.5 536 c 128,-1,25
 453 548 453 548 433 568 c 128,-1,26
 413 588 413 588 401 615.5 c 128,-1,27
 389 643 389 643 389 674 c 256,8,9
EndSplineSet
EndChar

StartChar: exclam
Encoding: 33 33 4
Width: 544
Flags: W
LayerCount: 2
Fore
SplineSet
328 461 m 2,0,1
 326 433 326 433 312 415.5 c 128,-1,2
 298 398 298 398 272 398 c 256,3,4
 246 398 246 398 231.5 415.5 c 128,-1,5
 217 433 217 433 215 461 c 2,6,-1
 141 1424 l 1,7,-1
 141 1477 l 2,8,9
 141 1499 141 1499 152 1508 c 128,-1,10
 163 1517 163 1517 182 1517 c 0,11,12
 187 1517 187 1517 194.5 1517.5 c 128,-1,13
 202 1518 202 1518 212 1518 c 0,14,15
 225 1519 225 1519 242.5 1519 c 128,-1,16
 260 1519 260 1519 272 1519 c 0,17,18
 289 1519 289 1519 310.5 1519 c 128,-1,19
 332 1519 332 1519 349 1517 c 1,20,21
 361 1517 361 1517 377.5 1510.5 c 128,-1,22
 394 1504 394 1504 402 1482 c 1,23,-1
 402 1424 l 1,24,-1
 328 461 l 2,0,1
130 103 m 0,25,26
 130 132 130 132 141.5 158 c 128,-1,27
 153 184 153 184 172.5 203.5 c 128,-1,28
 192 223 192 223 217.5 234 c 128,-1,29
 243 245 243 245 272 245 c 0,30,31
 302 245 302 245 328 233.5 c 128,-1,32
 354 222 354 222 373 202 c 128,-1,33
 392 182 392 182 403 156 c 128,-1,34
 414 130 414 130 414 102 c 0,35,36
 414 73 414 73 403 47.5 c 128,-1,37
 392 22 392 22 372.5 2.5 c 128,-1,38
 353 -17 353 -17 327 -28 c 128,-1,39
 301 -39 301 -39 272 -39 c 0,40,41
 241 -39 241 -39 215 -28 c 128,-1,42
 189 -17 189 -17 170 2.5 c 128,-1,43
 151 22 151 22 140.5 47.5 c 128,-1,44
 130 73 130 73 130 103 c 0,25,26
EndSplineSet
EndChar

StartChar: quotedbl
Encoding: 34 34 5
Width: 930
Flags: W
LayerCount: 2
Fore
SplineSet
204 776 m 1,0,1
 195 852 195 852 182 935 c 128,-1,2
 169 1018 169 1018 157 1094.5 c 128,-1,3
 145 1171 145 1171 136.5 1234 c 128,-1,4
 128 1297 128 1297 128 1333 c 0,5,6
 128 1354 128 1354 140.5 1373 c 128,-1,7
 153 1392 153 1392 172.5 1407 c 128,-1,8
 192 1422 192 1422 217 1430.5 c 128,-1,9
 242 1439 242 1439 266 1439 c 0,10,11
 293 1439 293 1439 318 1430.5 c 128,-1,12
 343 1422 343 1422 362.5 1407 c 128,-1,13
 382 1392 382 1392 394 1373 c 128,-1,14
 406 1354 406 1354 406 1333 c 0,15,16
 406 1296 406 1296 398.5 1233 c 128,-1,17
 391 1170 391 1170 379.5 1093.5 c 128,-1,18
 368 1017 368 1017 354.5 934 c 128,-1,19
 341 851 341 851 330 775 c 1,20,-1
 204 776 l 1,0,1
600 776 m 1,21,22
 591 852 591 852 578 935 c 128,-1,23
 565 1018 565 1018 553 1094.5 c 128,-1,24
 541 1171 541 1171 532.5 1234 c 128,-1,25
 524 1297 524 1297 524 1333 c 0,26,27
 524 1354 524 1354 536.5 1373 c 128,-1,28
 549 1392 549 1392 568.5 1407 c 128,-1,29
 588 1422 588 1422 613 1430.5 c 128,-1,30
 638 1439 638 1439 662 1439 c 0,31,32
 689 1439 689 1439 714 1430.5 c 128,-1,33
 739 1422 739 1422 758.5 1407 c 128,-1,34
 778 1392 778 1392 790 1373 c 128,-1,35
 802 1354 802 1354 802 1333 c 0,36,37
 802 1296 802 1296 794.5 1233 c 128,-1,38
 787 1170 787 1170 775.5 1093.5 c 128,-1,39
 764 1017 764 1017 750.5 934 c 128,-1,40
 737 851 737 851 726 775 c 1,41,-1
 600 776 l 1,21,22
EndSplineSet
EndChar

StartChar: numbersign
Encoding: 35 35 6
Width: 1238
Flags: W
LayerCount: 2
Fore
SplineSet
139 1105 m 1,0,-1
 409 1105 l 1,1,2
 433 1220 433 1220 459.5 1341.5 c 128,-1,3
 486 1463 486 1463 510 1578 c 1,4,-1
 679 1578 l 1,5,-1
 578 1105 l 1,6,-1
 788 1105 l 1,7,8
 812 1220 812 1220 838.5 1341.5 c 128,-1,9
 865 1463 865 1463 889 1578 c 1,10,-1
 1058 1578 l 1,11,-1
 957 1105 l 1,12,-1
 1230 1105 l 1,13,-1
 1192 944 l 1,14,-1
 922 944 l 1,15,16
 913 902 913 902 905.5 864 c 128,-1,17
 898 826 898 826 890.5 789 c 128,-1,18
 883 752 883 752 875.5 714 c 128,-1,19
 868 676 868 676 859 634 c 1,20,-1
 1135 634 l 1,21,-1
 1098 473 l 1,22,-1
 824 473 l 1,23,24
 798 348 798 348 771 218.5 c 128,-1,25
 744 89 744 89 718 -35 c 1,26,-1
 543 -35 l 1,27,-1
 651 473 l 1,28,-1
 445 473 l 1,29,30
 419 348 419 348 392 218.5 c 128,-1,31
 365 89 365 89 339 -35 c 1,32,-1
 164 -35 l 1,33,-1
 272 473 l 1,34,-1
 2 473 l 1,35,-1
 43 634 l 1,36,-1
 307 634 l 1,37,38
 316 676 316 676 324.5 714 c 128,-1,39
 333 752 333 752 341 789 c 128,-1,40
 349 826 349 826 357.5 864 c 128,-1,41
 366 902 366 902 375 944 c 1,42,-1
 95 944 l 1,43,-1
 139 1105 l 1,0,-1
480 634 m 1,44,-1
 686 634 l 1,45,46
 695 675 695 675 703 713 c 128,-1,47
 711 751 711 751 719 788.5 c 128,-1,48
 727 826 727 826 735 864 c 128,-1,49
 743 902 743 902 752 944 c 1,50,-1
 543 944 l 1,51,-1
 480 634 l 1,44,-1
EndSplineSet
EndChar

StartChar: dollar
Encoding: 36 36 7
Width: 1049
Flags: W
LayerCount: 2
Fore
SplineSet
656 1422 m 1,0,-1
 656 -219 l 1,1,-1
 586 -219 l 1,2,-1
 586 1422 l 1,3,-1
 656 1422 l 1,0,-1
563 529 m 1,4,5
 555 533 555 533 547.5 536.5 c 128,-1,6
 540 540 540 540 532 545 c 0,7,8
 492 567 492 567 445.5 593.5 c 128,-1,9
 399 620 399 620 353.5 651 c 128,-1,10
 308 682 308 682 265.5 717.5 c 128,-1,11
 223 753 223 753 191 793 c 128,-1,12
 159 833 159 833 139.5 876.5 c 128,-1,13
 120 920 120 920 120 968 c 256,14,15
 120 1016 120 1016 137.5 1062.5 c 128,-1,16
 155 1109 155 1109 188 1149 c 128,-1,17
 221 1189 221 1189 269 1219 c 128,-1,18
 317 1249 317 1249 378 1266 c 1,19,-1
 434 1277 l 1,20,21
 458 1280 458 1280 489 1280 c 0,22,23
 512 1280 512 1280 536 1278.5 c 128,-1,24
 560 1277 560 1277 585 1273 c 2,25,-1
 641 1263 l 1,26,27
 689 1252 689 1252 738 1235.5 c 128,-1,28
 787 1219 787 1219 826.5 1194.5 c 128,-1,29
 866 1170 866 1170 891.5 1137.5 c 128,-1,30
 917 1105 917 1105 917 1064 c 0,31,32
 917 1046 917 1046 908.5 1031 c 128,-1,33
 900 1016 900 1016 885.5 1004.5 c 128,-1,34
 871 993 871 993 853 987 c 128,-1,35
 835 981 835 981 816 981 c 0,36,37
 793 981 793 981 774.5 989 c 128,-1,38
 756 997 756 997 741 1010.5 c 128,-1,39
 726 1024 726 1024 713 1041 c 128,-1,40
 700 1058 700 1058 687 1077 c 0,41,42
 661 1115 661 1115 631.5 1148.5 c 128,-1,43
 602 1182 602 1182 570 1189 c 1,44,45
 550 1195 550 1195 530.5 1197.5 c 128,-1,46
 511 1200 511 1200 488 1200 c 0,47,48
 483 1200 483 1200 477 1199.5 c 128,-1,49
 471 1199 471 1199 461 1197.5 c 128,-1,50
 451 1196 451 1196 435 1193.5 c 128,-1,51
 419 1191 419 1191 395 1186 c 1,52,53
 367 1177 367 1177 350 1160 c 128,-1,54
 333 1143 333 1143 324 1122.5 c 128,-1,55
 315 1102 315 1102 312.5 1080.5 c 128,-1,56
 310 1059 310 1059 310 1040 c 0,57,58
 310 995 310 995 331.5 957.5 c 128,-1,59
 353 920 353 920 387.5 887 c 128,-1,60
 422 854 422 854 464 826 c 128,-1,61
 506 798 506 798 548 773 c 0,62,63
 582 753 582 753 612.5 734.5 c 128,-1,64
 643 716 643 716 656 706 c 0,65,66
 662 702 662 702 667.5 699 c 128,-1,67
 673 696 673 696 675 695 c 0,68,69
 731 665 731 665 783.5 626.5 c 128,-1,70
 836 588 836 588 876 543 c 128,-1,71
 916 498 916 498 940 447 c 128,-1,72
 964 396 964 396 964 341 c 0,73,74
 964 267 964 267 939.5 207.5 c 128,-1,75
 915 148 915 148 871.5 103.5 c 128,-1,76
 828 59 828 59 768.5 30 c 128,-1,77
 709 1 709 1 640 -11 c 2,78,-1
 584 -20 l 2,79,80
 561 -23 561 -23 537.5 -25 c 128,-1,81
 514 -27 514 -27 488 -27 c 0,82,83
 456 -27 456 -27 434 -24 c 2,84,-1
 378 -15 l 1,85,86
 325 -3 325 -3 275 20 c 128,-1,87
 225 43 225 43 186 75 c 128,-1,88
 147 107 147 107 123.5 146.5 c 128,-1,89
 100 186 100 186 100 230 c 0,90,91
 100 272 100 272 126.5 297.5 c 128,-1,92
 153 323 153 323 197 323 c 0,93,94
 217 323 217 323 232 315.5 c 128,-1,95
 247 308 247 308 258.5 294.5 c 128,-1,96
 270 281 270 281 279 263 c 128,-1,97
 288 245 288 245 296 225 c 256,98,99
 304 205 304 205 313.5 184 c 128,-1,100
 323 163 323 163 335.5 143 c 128,-1,101
 348 123 348 123 364 106 c 128,-1,102
 380 89 380 89 402 78 c 1,103,-1
 397 79 l 1,104,105
 410 74 410 74 423.5 69 c 128,-1,106
 437 64 437 64 450 60 c 1,107,-1
 449 60 l 1,108,109
 481 50 481 50 519 49 c 0,110,111
 530 49 530 49 543 50 c 128,-1,112
 556 51 556 51 570 53 c 1,113,114
 584 57 584 57 597.5 60 c 128,-1,115
 611 63 611 63 624 67 c 1,116,-1
 621 67 l 1,117,118
 686 91 686 91 724.5 146 c 128,-1,119
 763 201 763 201 763 279 c 0,120,121
 763 313 763 313 751 343.5 c 128,-1,122
 739 374 739 374 714 404 c 128,-1,123
 689 434 689 434 650.5 464.5 c 128,-1,124
 612 495 612 495 559 530 c 1,125,-1
 563 529 l 1,4,5
465 1422 m 1,126,-1
 465 -219 l 1,127,-1
 395 -219 l 1,128,-1
 395 1422 l 1,129,-1
 465 1422 l 1,126,-1
EndSplineSet
EndChar

StartChar: ampersand
Encoding: 38 38 9
Width: 1592
Flags: W
LayerCount: 2
Fore
SplineSet
1183 174 m 2,0,1
 1204 138 1204 138 1230.5 110.5 c 128,-1,2
 1257 83 1257 83 1290 83 c 0,3,4
 1300 83 1300 83 1320 89.5 c 128,-1,5
 1340 96 1340 96 1361.5 104.5 c 128,-1,6
 1383 113 1383 113 1403 119.5 c 128,-1,7
 1423 126 1423 126 1434 126 c 0,8,9
 1448 126 1448 126 1456.5 121 c 128,-1,10
 1465 116 1465 116 1469 110 c 128,-1,11
 1473 104 1473 104 1474 98.5 c 128,-1,12
 1475 93 1475 93 1475 91 c 0,13,14
 1475 87 1475 87 1472 78.5 c 128,-1,15
 1469 70 1469 70 1453 59 c 0,16,17
 1397 23 1397 23 1332.5 -4 c 128,-1,18
 1268 -31 1268 -31 1192 -31 c 0,19,20
 1144 -31 1144 -31 1108 -15.5 c 128,-1,21
 1072 0 1072 0 1043.5 25 c 128,-1,22
 1015 50 1015 50 991.5 82.5 c 128,-1,23
 968 115 968 115 946 149 c 0,24,25
 936 163 936 163 926.5 178 c 128,-1,26
 917 193 917 193 906 208 c 1,27,28
 858 166 858 166 801.5 124 c 128,-1,29
 745 82 745 82 682.5 48.5 c 128,-1,30
 620 15 620 15 552.5 -6 c 128,-1,31
 485 -27 485 -27 414 -27 c 0,32,33
 331 -27 331 -27 259.5 8 c 128,-1,34
 188 43 188 43 135.5 100 c 128,-1,35
 83 157 83 157 53 229.5 c 128,-1,36
 23 302 23 302 23 377 c 0,37,38
 23 453 23 453 51.5 514 c 128,-1,39
 80 575 80 575 130.5 625.5 c 128,-1,40
 181 676 181 676 249 716 c 128,-1,41
 317 756 317 756 397 790 c 1,42,43
 363 824 363 824 335.5 857 c 128,-1,44
 308 890 308 890 289 924 c 128,-1,45
 270 958 270 958 260 995 c 128,-1,46
 250 1032 250 1032 250 1076 c 0,47,48
 250 1142 250 1142 279.5 1191.5 c 128,-1,49
 309 1241 309 1241 357 1274.5 c 128,-1,50
 405 1308 405 1308 466 1324.5 c 128,-1,51
 527 1341 527 1341 590 1341 c 0,52,53
 645 1341 645 1341 700 1323 c 128,-1,54
 755 1305 755 1305 799 1272.5 c 128,-1,55
 843 1240 843 1240 870 1193.5 c 128,-1,56
 897 1147 897 1147 897 1090 c 0,57,58
 897 1044 897 1044 878 1004.5 c 128,-1,59
 859 965 859 965 829 931.5 c 128,-1,60
 799 898 799 898 761 870.5 c 128,-1,61
 723 843 723 843 685 821 c 0,62,63
 681 818 681 818 679.5 817 c 128,-1,64
 678 816 678 816 678 813 c 0,65,66
 678 808 678 808 684 804 c 0,67,68
 688 801 688 801 707 784 c 128,-1,69
 726 767 726 767 763 730 c 128,-1,70
 800 693 800 693 856 633 c 128,-1,71
 912 573 912 573 989 484 c 1,72,-1
 1204 809 l 2,73,74
 1213 823 1213 823 1218 835 c 128,-1,75
 1223 847 1223 847 1223 865 c 0,76,77
 1223 890 1223 890 1211 897 c 128,-1,78
 1199 904 1199 904 1186 906 c 0,79,80
 1172 909 1172 909 1159 911.5 c 128,-1,81
 1146 914 1146 914 1136 918.5 c 128,-1,82
 1126 923 1126 923 1120 930.5 c 128,-1,83
 1114 938 1114 938 1114 949 c 0,84,85
 1114 953 1114 953 1114.5 958.5 c 128,-1,86
 1115 964 1115 964 1119.5 969.5 c 128,-1,87
 1124 975 1124 975 1133 978.5 c 128,-1,88
 1142 982 1142 982 1159 982 c 2,89,-1
 1550 982 l 1,90,91
 1561 965 1561 965 1563 956 c 128,-1,92
 1565 947 1565 947 1565 945 c 0,93,94
 1565 923 1565 923 1553 916 c 128,-1,95
 1541 909 1541 909 1520 907 c 0,96,97
 1497 904 1497 904 1473.5 901.5 c 128,-1,98
 1450 899 1450 899 1428 893 c 128,-1,99
 1406 887 1406 887 1386.5 874.5 c 128,-1,100
 1367 862 1367 862 1353 840 c 2,101,-1
 1063 380 l 1,102,-1
 1183 174 l 2,0,1
510 122 m 0,103,104
 554 122 554 122 598 139 c 128,-1,105
 642 156 642 156 683.5 180.5 c 128,-1,106
 725 205 725 205 764 233.5 c 128,-1,107
 803 262 803 262 836 286 c 0,108,109
 847 294 847 294 847 301 c 0,110,111
 847 304 847 304 845 308 c 0,112,113
 773 436 773 436 683 537 c 128,-1,114
 593 638 593 638 487 726 c 1,115,116
 482 724 482 724 470 717 c 128,-1,117
 458 710 458 710 450 705 c 0,118,119
 411 682 411 682 378.5 648 c 128,-1,120
 346 614 346 614 322.5 572.5 c 128,-1,121
 299 531 299 531 286 483.5 c 128,-1,122
 273 436 273 436 273 388 c 0,123,124
 273 337 273 337 291.5 289 c 128,-1,125
 310 241 310 241 342.5 204 c 128,-1,126
 375 167 375 167 418 144.5 c 128,-1,127
 461 122 461 122 510 122 c 0,103,104
467 1115 m 0,128,129
 467 1080 467 1080 476.5 1046 c 128,-1,130
 486 1012 486 1012 502.5 982 c 128,-1,131
 519 952 519 952 542 926.5 c 128,-1,132
 565 901 565 901 592 882 c 1,133,134
 616 891 616 891 635 914 c 128,-1,135
 654 937 654 937 667 965.5 c 128,-1,136
 680 994 680 994 687 1024.5 c 128,-1,137
 694 1055 694 1055 694 1080 c 0,138,139
 694 1116 694 1116 687.5 1147.5 c 128,-1,140
 681 1179 681 1179 666.5 1202 c 128,-1,141
 652 1225 652 1225 629 1238 c 128,-1,142
 606 1251 606 1251 572 1251 c 0,143,144
 521 1251 521 1251 494 1212 c 128,-1,145
 467 1173 467 1173 467 1115 c 0,128,129
EndSplineSet
EndChar

StartChar: quotesingle
Encoding: 39 39 10
Width: 534
Flags: W
LayerCount: 2
Fore
SplineSet
204 776 m 1,0,1
 195 852 195 852 182 935 c 128,-1,2
 169 1018 169 1018 157 1094.5 c 128,-1,3
 145 1171 145 1171 136.5 1234 c 128,-1,4
 128 1297 128 1297 128 1333 c 0,5,6
 128 1354 128 1354 140.5 1373 c 128,-1,7
 153 1392 153 1392 172.5 1407 c 128,-1,8
 192 1422 192 1422 217 1430.5 c 128,-1,9
 242 1439 242 1439 266 1439 c 0,10,11
 293 1439 293 1439 318 1430.5 c 128,-1,12
 343 1422 343 1422 362.5 1407 c 128,-1,13
 382 1392 382 1392 394 1373 c 128,-1,14
 406 1354 406 1354 406 1333 c 0,15,16
 406 1296 406 1296 398.5 1233 c 128,-1,17
 391 1170 391 1170 379.5 1093.5 c 128,-1,18
 368 1017 368 1017 354.5 934 c 128,-1,19
 341 851 341 851 330 775 c 1,20,-1
 204 776 l 1,0,1
EndSplineSet
EndChar

StartChar: parenleft
Encoding: 40 40 11
Width: 695
Flags: W
LayerCount: 2
Fore
SplineSet
171 608 m 256,0,1
 171 755 171 755 195.5 901.5 c 128,-1,2
 220 1048 220 1048 268 1187.5 c 128,-1,3
 316 1327 316 1327 388.5 1456.5 c 128,-1,4
 461 1586 461 1586 557 1698 c 0,5,6
 566 1709 566 1709 572.5 1713.5 c 128,-1,7
 579 1718 579 1718 595 1718 c 0,8,9
 606 1718 606 1718 619 1707 c 128,-1,10
 632 1696 632 1696 643.5 1681 c 128,-1,11
 655 1666 655 1666 663 1651.5 c 128,-1,12
 671 1637 671 1637 671 1630 c 0,13,14
 671 1615 671 1615 660 1591 c 1,15,16
 516 1371 516 1371 437.5 1128 c 128,-1,17
 359 885 359 885 359 603 c 0,18,19
 359 330 359 330 437.5 88.5 c 128,-1,20
 516 -153 516 -153 660 -373 c 1,21,22
 671 -393 671 -393 671 -412 c 0,23,24
 671 -419 671 -419 663 -433.5 c 128,-1,25
 655 -448 655 -448 643.5 -463 c 128,-1,26
 632 -478 632 -478 619 -489 c 128,-1,27
 606 -500 606 -500 595 -500 c 0,28,29
 579 -500 579 -500 573 -495.5 c 128,-1,30
 567 -491 567 -491 556 -479 c 0,31,32
 462 -366 462 -366 390 -237.5 c 128,-1,33
 318 -109 318 -109 269.5 30 c 128,-1,34
 221 169 221 169 196 315 c 128,-1,35
 171 461 171 461 171 608 c 256,0,1
EndSplineSet
EndChar

StartChar: parenright
Encoding: 41 41 12
Width: 695
Flags: W
LayerCount: 2
Fore
SplineSet
524 608 m 0,0,1
 524 462 524 462 498.5 316.5 c 128,-1,2
 473 171 473 171 423.5 31.5 c 128,-1,3
 374 -108 374 -108 302 -237.5 c 128,-1,4
 230 -367 230 -367 137 -480 c 0,5,6
 129 -490 129 -490 121.5 -495 c 128,-1,7
 114 -500 114 -500 100 -500 c 0,8,9
 89 -500 89 -500 76 -489 c 128,-1,10
 63 -478 63 -478 51.5 -463 c 128,-1,11
 40 -448 40 -448 32 -433.5 c 128,-1,12
 24 -419 24 -419 24 -412 c 0,13,14
 24 -402 24 -402 26 -392 c 128,-1,15
 28 -382 28 -382 34 -373 c 0,16,17
 179 -152 179 -152 257 89.5 c 128,-1,18
 335 331 335 331 335 603 c 0,19,20
 335 744 335 744 315 874.5 c 128,-1,21
 295 1005 295 1005 257 1127.5 c 128,-1,22
 219 1250 219 1250 162.5 1365.5 c 128,-1,23
 106 1481 106 1481 34 1591 c 0,24,25
 28 1601 28 1601 26 1610.5 c 128,-1,26
 24 1620 24 1620 24 1630 c 0,27,28
 24 1637 24 1637 32 1651.5 c 128,-1,29
 40 1666 40 1666 51.5 1681 c 128,-1,30
 63 1696 63 1696 76 1707 c 128,-1,31
 89 1718 89 1718 100 1718 c 0,32,33
 115 1718 115 1718 121 1713.5 c 128,-1,34
 127 1709 127 1709 138 1697 c 0,35,36
 235 1586 235 1586 307.5 1457 c 128,-1,37
 380 1328 380 1328 428 1188.5 c 128,-1,38
 476 1049 476 1049 500 902 c 128,-1,39
 524 755 524 755 524 608 c 0,0,1
EndSplineSet
EndChar

StartChar: asterisk
Encoding: 42 42 13
Width: 811
Flags: W
LayerCount: 2
Fore
SplineSet
743 1411 m 1,0,-1
 771 1319 l 1,1,-1
 547 1203 l 1,2,-1
 658 978 l 1,3,-1
 582 922 l 1,4,-1
 404 1101 l 1,5,-1
 224 926 l 1,6,-1
 144 979 l 1,7,-1
 259 1205 l 1,8,-1
 40 1321 l 1,9,-1
 62 1414 l 1,10,-1
 313 1376 l 1,11,12
 324 1436 324 1436 335.5 1501.5 c 128,-1,13
 347 1567 347 1567 356 1624 c 1,14,-1
 452 1624 l 1,15,-1
 492 1375 l 1,16,-1
 743 1411 l 1,0,-1
EndSplineSet
EndChar

StartChar: plus
Encoding: 43 43 14
Width: 1049
Flags: W
LayerCount: 2
Fore
SplineSet
68 719 m 1,0,-1
 433 719 l 1,1,-1
 433 1098 l 1,2,-1
 620 1098 l 1,3,-1
 620 719 l 1,4,-1
 980 719 l 1,5,-1
 980 532 l 1,6,-1
 620 532 l 1,7,-1
 620 157 l 1,8,-1
 433 157 l 1,9,-1
 433 532 l 1,10,-1
 68 532 l 1,11,-1
 68 719 l 1,0,-1
EndSplineSet
EndChar

StartChar: comma
Encoding: 44 44 15
Width: 600
Flags: W
LayerCount: 2
Fore
SplineSet
209 -302 m 0,0,1
 189 -302 189 -302 184 -289 c 128,-1,2
 179 -276 179 -276 179 -265 c 0,3,4
 180 -252 180 -252 187.5 -241 c 128,-1,5
 195 -230 195 -230 206 -221 c 128,-1,6
 217 -212 217 -212 228.5 -203.5 c 128,-1,7
 240 -195 240 -195 249 -187 c 0,8,9
 263 -173 263 -173 278 -156 c 128,-1,10
 293 -139 293 -139 305 -120 c 128,-1,11
 317 -101 317 -101 325 -81 c 128,-1,12
 333 -61 333 -61 333 -41 c 0,13,14
 333 -33 333 -33 330.5 -24 c 128,-1,15
 328 -15 328 -15 311 -15 c 0,16,17
 279 -15 279 -15 245.5 -5 c 128,-1,18
 212 5 212 5 184 25 c 128,-1,19
 156 45 156 45 138.5 74.5 c 128,-1,20
 121 104 121 104 121 143 c 0,21,22
 121 181 121 181 133 210.5 c 128,-1,23
 145 240 145 240 167 260 c 128,-1,24
 189 280 189 280 218.5 290.5 c 128,-1,25
 248 301 248 301 284 301 c 0,26,27
 346 301 346 301 384.5 277.5 c 128,-1,28
 423 254 423 254 444 220.5 c 128,-1,29
 465 187 465 187 472 150.5 c 128,-1,30
 479 114 479 114 479 87 c 0,31,32
 479 33 479 33 462 -19 c 128,-1,33
 445 -71 445 -71 417.5 -117 c 128,-1,34
 390 -163 390 -163 354 -202 c 128,-1,35
 318 -241 318 -241 280 -269 c 0,36,37
 265 -280 265 -280 245.5 -291 c 128,-1,38
 226 -302 226 -302 209 -302 c 0,0,1
EndSplineSet
EndChar

StartChar: hyphen
Encoding: 45 45 16
Width: 973
Flags: W
LayerCount: 2
Fore
SplineSet
888 608 m 1,0,-1
 888 411 l 1,1,-1
 85 411 l 1,2,-1
 85 608 l 1,3,-1
 888 608 l 1,0,-1
EndSplineSet
EndChar

StartChar: period
Encoding: 46 46 17
Width: 594
Flags: W
LayerCount: 2
Fore
SplineSet
130 130 m 0,0,1
 130 164 130 164 143 194.5 c 128,-1,2
 156 225 156 225 179 248 c 128,-1,3
 202 271 202 271 232 284 c 128,-1,4
 262 297 262 297 297 297 c 0,5,6
 331 297 331 297 361.5 284 c 128,-1,7
 392 271 392 271 415 248 c 128,-1,8
 438 225 438 225 451 194.5 c 128,-1,9
 464 164 464 164 464 130 c 0,10,11
 464 95 464 95 451 65 c 128,-1,12
 438 35 438 35 415 12 c 128,-1,13
 392 -11 392 -11 361.5 -24 c 128,-1,14
 331 -37 331 -37 297 -37 c 0,15,16
 262 -37 262 -37 232 -24 c 128,-1,17
 202 -11 202 -11 179 12 c 128,-1,18
 156 35 156 35 143 65 c 128,-1,19
 130 95 130 95 130 130 c 0,0,1
EndSplineSet
EndChar

StartChar: slash
Encoding: 47 47 18
Width: 724
Flags: W
LayerCount: 2
Fore
SplineSet
529 1452 m 1,0,-1
 719 1452 l 1,1,-1
 194 -27 l 1,2,-1
 5 -27 l 1,3,-1
 529 1452 l 1,0,-1
EndSplineSet
EndChar

StartChar: zero
Encoding: 48 48 19
Width: 1049
Flags: W
LayerCount: 2
Fore
SplineSet
531 -26 m 256,0,1
 417 -26 417 -26 330 25.5 c 128,-1,2
 243 77 243 77 184.5 169.5 c 128,-1,3
 126 262 126 262 96 391 c 128,-1,4
 66 520 66 520 66 675 c 0,5,6
 66 757 66 757 79.5 841.5 c 128,-1,7
 93 926 93 926 119 1004.5 c 128,-1,8
 145 1083 145 1083 184.5 1151.5 c 128,-1,9
 224 1220 224 1220 275.5 1270.5 c 128,-1,10
 327 1321 327 1321 391 1350.5 c 128,-1,11
 455 1380 455 1380 531 1380 c 256,12,13
 607 1380 607 1380 670.5 1351 c 128,-1,14
 734 1322 734 1322 784 1271 c 128,-1,15
 834 1220 834 1220 871.5 1151.5 c 128,-1,16
 909 1083 909 1083 933.5 1004.5 c 128,-1,17
 958 926 958 926 970.5 841.5 c 128,-1,18
 983 757 983 757 983 674 c 0,19,20
 983 519 983 519 955 390 c 128,-1,21
 927 261 927 261 870.5 168.5 c 128,-1,22
 814 76 814 76 729.5 25 c 128,-1,23
 645 -26 645 -26 531 -26 c 256,0,1
302 674 m 0,24,25
 302 596 302 596 305 519.5 c 128,-1,26
 308 443 308 443 317 373.5 c 128,-1,27
 326 304 326 304 341.5 245 c 128,-1,28
 357 186 357 186 382.5 143 c 128,-1,29
 408 100 408 100 444.5 75.5 c 128,-1,30
 481 51 481 51 531 51 c 256,31,32
 581 51 581 51 617 76 c 128,-1,33
 653 101 653 101 677 144.5 c 128,-1,34
 701 188 701 188 715 248 c 128,-1,35
 729 308 729 308 736 377.5 c 128,-1,36
 743 447 743 447 745 523 c 128,-1,37
 747 599 747 599 747 676 c 0,38,39
 747 739 747 739 743.5 810.5 c 128,-1,40
 740 882 740 882 731.5 951.5 c 128,-1,41
 723 1021 723 1021 708 1084.5 c 128,-1,42
 693 1148 693 1148 669 1196.5 c 128,-1,43
 645 1245 645 1245 611 1274 c 128,-1,44
 577 1303 577 1303 532 1303 c 0,45,46
 482 1303 482 1303 445 1274 c 128,-1,47
 408 1245 408 1245 382.5 1196 c 128,-1,48
 357 1147 357 1147 341 1083 c 128,-1,49
 325 1019 325 1019 316.5 949 c 128,-1,50
 308 879 308 879 305 808 c 128,-1,51
 302 737 302 737 302 674 c 0,24,25
EndSplineSet
EndChar

StartChar: one
Encoding: 49 49 20
Width: 1049
Flags: W
LayerCount: 2
Fore
SplineSet
247 0 m 1,0,1
 216 0 216 0 208 7 c 128,-1,2
 200 14 200 14 200 23 c 2,3,-1
 200 76 l 2,4,5
 200 84 200 84 207.5 91 c 128,-1,6
 215 98 215 98 244 99 c 0,7,8
 265 99 265 99 294.5 99.5 c 128,-1,9
 324 100 324 100 353 101.5 c 128,-1,10
 382 103 382 103 405.5 107.5 c 128,-1,11
 429 112 429 112 438 120 c 1,12,-1
 438 1131 l 1,13,14
 405 1109 405 1109 381.5 1094 c 128,-1,15
 358 1079 358 1079 337 1067.5 c 128,-1,16
 316 1056 316 1056 295 1045 c 128,-1,17
 274 1034 274 1034 245 1019 c 0,18,19
 240 1016 240 1016 227 1010.5 c 128,-1,20
 214 1005 214 1005 206 1005 c 0,21,22
 197 1005 197 1005 191.5 1015.5 c 128,-1,23
 186 1026 186 1026 171 1049 c 0,24,25
 170 1051 170 1051 170 1054 c 0,26,27
 170 1058 170 1058 175 1061.5 c 128,-1,28
 180 1065 180 1065 193 1074 c 0,29,30
 223 1093 223 1093 262 1125 c 128,-1,31
 301 1157 301 1157 344.5 1197 c 128,-1,32
 388 1237 388 1237 433 1283.5 c 128,-1,33
 478 1330 478 1330 519 1379 c 1,34,-1
 595 1379 l 2,35,36
 614 1379 614 1379 625.5 1377.5 c 128,-1,37
 637 1376 637 1376 643 1372.5 c 128,-1,38
 649 1369 649 1369 650.5 1363 c 128,-1,39
 652 1357 652 1357 652 1347 c 2,40,-1
 652 202 l 2,41,42
 652 188 652 188 652.5 173.5 c 128,-1,43
 653 159 653 159 653.5 147 c 128,-1,44
 654 135 654 135 655.5 127 c 128,-1,45
 657 119 657 119 659 119 c 1,46,47
 671 111 671 111 688.5 107 c 128,-1,48
 706 103 706 103 726.5 101.5 c 128,-1,49
 747 100 747 100 769.5 99.5 c 128,-1,50
 792 99 792 99 814 99 c 0,51,52
 845 99 845 99 853 91 c 128,-1,53
 861 83 861 83 861 76 c 2,54,-1
 861 23 l 2,55,56
 861 16 861 16 853 8 c 128,-1,57
 845 0 845 0 814 0 c 2,58,-1
 247 0 l 1,59,-1
 247 0 l 1,0,1
EndSplineSet
EndChar

StartChar: two
Encoding: 50 50 21
Width: 1049
Flags: W
LayerCount: 2
Fore
SplineSet
100 0 m 1,0,1
 83 0 83 0 74.5 1 c 128,-1,2
 66 2 66 2 61.5 6 c 128,-1,3
 57 10 57 10 56.5 18 c 128,-1,4
 56 26 56 26 56 40 c 0,5,6
 56 57 56 57 68 73 c 128,-1,7
 80 89 80 89 97 109 c 0,8,9
 145 166 145 166 201 223 c 128,-1,10
 257 280 257 280 314 337 c 0,11,12
 390 413 390 413 460 490 c 128,-1,13
 530 567 530 567 583.5 643 c 128,-1,14
 637 719 637 719 668.5 793.5 c 128,-1,15
 700 868 700 868 700 940 c 0,16,17
 700 994 700 994 680.5 1046.5 c 128,-1,18
 661 1099 661 1099 628 1140 c 128,-1,19
 595 1181 595 1181 551.5 1206 c 128,-1,20
 508 1231 508 1231 460 1231 c 0,21,22
 408 1231 408 1231 362.5 1211 c 128,-1,23
 317 1191 317 1191 280 1157.5 c 128,-1,24
 243 1124 243 1124 217.5 1080.5 c 128,-1,25
 192 1037 192 1037 181 991 c 0,26,27
 178 980 178 980 176 970.5 c 128,-1,28
 174 961 174 961 169 954.5 c 128,-1,29
 164 948 164 948 153 944 c 128,-1,30
 142 940 142 940 123 940 c 2,31,-1
 114 940 l 2,32,33
 100 940 100 940 92.5 943.5 c 128,-1,34
 85 947 85 947 85 961 c 0,35,36
 85 966 85 966 89.5 998 c 128,-1,37
 94 1030 94 1030 105.5 1072 c 128,-1,38
 117 1114 117 1114 136.5 1158.5 c 128,-1,39
 156 1203 156 1203 186 1233 c 1,40,-1
 185 1233 l 1,41,42
 226 1275 226 1275 265.5 1303 c 128,-1,43
 305 1331 305 1331 345.5 1348 c 128,-1,44
 386 1365 386 1365 428.5 1372.5 c 128,-1,45
 471 1380 471 1380 519 1380 c 0,46,47
 616 1380 616 1380 695.5 1349 c 128,-1,48
 775 1318 775 1318 831.5 1263.5 c 128,-1,49
 888 1209 888 1209 918.5 1135 c 128,-1,50
 949 1061 949 1061 949 975 c 0,51,52
 949 913 949 913 921 851.5 c 128,-1,53
 893 790 893 790 842.5 726 c 128,-1,54
 792 662 792 662 721.5 595.5 c 128,-1,55
 651 529 651 529 566 456 c 0,56,57
 557 449 557 449 537 430 c 128,-1,58
 517 411 517 411 490.5 385.5 c 128,-1,59
 464 360 464 360 434 330.5 c 128,-1,60
 404 301 404 301 376.5 273 c 128,-1,61
 349 245 349 245 326 221 c 128,-1,62
 303 197 303 197 291 182 c 1,63,-1
 834 182 l 2,64,65
 856 182 856 182 870 188.5 c 128,-1,66
 884 195 884 195 894.5 211.5 c 128,-1,67
 905 228 905 228 914 256 c 128,-1,68
 923 284 923 284 934 326 c 1,69,-1
 999 326 l 1,70,-1
 953 44 l 2,71,72
 950 30 950 30 936 15 c 128,-1,73
 922 0 922 0 887 0 c 2,74,-1
 100 0 l 1,75,-1
 100 0 l 1,0,1
EndSplineSet
EndChar

StartChar: three
Encoding: 51 51 22
Width: 1049
Flags: W
LayerCount: 2
Fore
SplineSet
425 -26 m 0,0,1
 394 -26 394 -26 354 -24.5 c 128,-1,2
 314 -23 314 -23 272 -17 c 128,-1,3
 230 -11 230 -11 190 -0.5 c 128,-1,4
 150 10 150 10 118.5 27.5 c 128,-1,5
 87 45 87 45 68 71 c 128,-1,6
 49 97 49 97 49 133 c 0,7,8
 49 155 49 155 59 172 c 128,-1,9
 69 189 69 189 86 200 c 128,-1,10
 103 211 103 211 124.5 217 c 128,-1,11
 146 223 146 223 170 223 c 0,12,13
 198 223 198 223 222.5 211 c 128,-1,14
 247 199 247 199 269.5 181.5 c 128,-1,15
 292 164 292 164 314 143.5 c 128,-1,16
 336 123 336 123 360 105.5 c 128,-1,17
 384 88 384 88 411 76 c 128,-1,18
 438 64 438 64 470 64 c 1,19,20
 529 69 529 69 574 105 c 128,-1,21
 619 141 619 141 649 194.5 c 128,-1,22
 679 248 679 248 694 311.5 c 128,-1,23
 709 375 709 375 709 435 c 0,24,25
 709 509 709 509 692 561 c 128,-1,26
 675 613 675 613 649.5 646 c 128,-1,27
 624 679 624 679 593 694.5 c 128,-1,28
 562 710 562 710 534 710 c 0,29,30
 511 710 511 710 494 705 c 128,-1,31
 477 700 477 700 464 693.5 c 128,-1,32
 451 687 451 687 442 679.5 c 128,-1,33
 433 672 433 672 425 667 c 0,34,35
 418 662 418 662 410 659 c 128,-1,36
 402 656 402 656 385 656 c 0,37,38
 367 656 367 656 356.5 669.5 c 128,-1,39
 346 683 346 683 346 694 c 0,40,41
 346 700 346 700 358.5 714.5 c 128,-1,42
 371 729 371 729 382 739 c 0,43,44
 418 771 418 771 457.5 811 c 128,-1,45
 497 851 497 851 529 895 c 128,-1,46
 561 939 561 939 582 985 c 128,-1,47
 603 1031 603 1031 603 1076 c 0,48,49
 603 1110 603 1110 589.5 1141.5 c 128,-1,50
 576 1173 576 1173 553.5 1198 c 128,-1,51
 531 1223 531 1223 502.5 1238 c 128,-1,52
 474 1253 474 1253 444 1253 c 0,53,54
 387 1253 387 1253 344 1233.5 c 128,-1,55
 301 1214 301 1214 270 1185 c 128,-1,56
 239 1156 239 1156 218 1123.5 c 128,-1,57
 197 1091 197 1091 183 1065 c 0,58,59
 177 1054 177 1054 169.5 1051 c 128,-1,60
 162 1048 162 1048 150 1048 c 0,61,62
 145 1048 145 1048 137.5 1050 c 128,-1,63
 130 1052 130 1052 123 1056 c 128,-1,64
 116 1060 116 1060 111 1066 c 128,-1,65
 106 1072 106 1072 106 1080 c 1,66,67
 106 1079 106 1079 107.5 1083 c 128,-1,68
 109 1087 109 1087 111 1092 c 256,69,70
 113 1097 113 1097 116 1104 c 0,71,72
 141 1164 141 1164 181.5 1215 c 128,-1,73
 222 1266 222 1266 271 1302.5 c 128,-1,74
 320 1339 320 1339 375 1359.5 c 128,-1,75
 430 1380 430 1380 485 1380 c 0,76,77
 564 1380 564 1380 628 1364 c 128,-1,78
 692 1348 692 1348 738 1317 c 128,-1,79
 784 1286 784 1286 809 1240.5 c 128,-1,80
 834 1195 834 1195 834 1136 c 0,81,82
 834 1091 834 1091 815.5 1050 c 128,-1,83
 797 1009 797 1009 767.5 971.5 c 128,-1,84
 738 934 738 934 700.5 901 c 128,-1,85
 663 868 663 868 624 841 c 1,86,87
 712 832 712 832 775 799 c 128,-1,88
 838 766 838 766 878.5 716.5 c 128,-1,89
 919 667 919 667 938 605 c 128,-1,90
 957 543 957 543 957 477 c 0,91,92
 957 403 957 403 933 336.5 c 128,-1,93
 909 270 909 270 869 214.5 c 128,-1,94
 829 159 829 159 775.5 114.5 c 128,-1,95
 722 70 722 70 663 38.5 c 128,-1,96
 604 7 604 7 542.5 -9.5 c 128,-1,97
 481 -26 481 -26 425 -26 c 0,0,1
EndSplineSet
EndChar

StartChar: four
Encoding: 52 52 23
Width: 1049
Flags: W
LayerCount: 2
Fore
SplineSet
46 395 m 0,0,1
 46 399 46 399 46 405.5 c 128,-1,2
 46 412 46 412 46.5 419 c 128,-1,3
 47 426 47 426 47.5 431.5 c 128,-1,4
 48 437 48 437 50 439 c 2,5,-1
 650 1356 l 2,6,7
 656 1365 656 1365 664 1369.5 c 128,-1,8
 672 1374 672 1374 681 1376 c 128,-1,9
 690 1378 690 1378 698.5 1378.5 c 128,-1,10
 707 1379 707 1379 713 1379 c 0,11,12
 721 1379 721 1379 734.5 1378.5 c 128,-1,13
 748 1378 748 1378 760.5 1375.5 c 128,-1,14
 773 1373 773 1373 782.5 1368 c 128,-1,15
 792 1363 792 1363 792 1353 c 2,16,-1
 792 571 l 2,17,18
 792 552 792 552 794.5 549 c 128,-1,19
 797 546 797 546 811 546 c 2,20,-1
 978 546 l 2,21,22
 989 546 989 546 999 544 c 128,-1,23
 1009 542 1009 542 1009 528 c 2,24,-1
 1009 380 l 2,25,26
 1009 356 1009 356 989 356 c 2,27,-1
 807 356 l 2,28,29
 796 356 796 356 794 353.5 c 128,-1,30
 792 351 792 351 792 336 c 2,31,-1
 792 11 l 2,32,33
 792 6 792 6 788.5 -5 c 128,-1,34
 785 -16 785 -16 765 -16 c 2,35,-1
 587 -16 l 2,36,37
 573 -16 573 -16 570 -7 c 128,-1,38
 567 2 567 2 567 7 c 2,39,-1
 567 326 l 2,40,41
 567 337 567 337 566.5 343 c 128,-1,42
 566 349 566 349 562 352 c 128,-1,43
 558 355 558 355 550 355.5 c 128,-1,44
 542 356 542 356 527 356 c 2,45,-1
 90 356 l 2,46,47
 71 356 71 356 58.5 368.5 c 128,-1,48
 46 381 46 381 46 395 c 0,0,1
235 558 m 1,49,50
 235 550 235 550 241.5 548 c 128,-1,51
 248 546 248 546 267 546 c 2,52,-1
 545 546 l 2,53,54
 558 546 558 546 561.5 552 c 128,-1,55
 565 558 565 558 567 566 c 1,56,-1
 567 967 l 2,57,58
 567 981 567 981 563.5 993.5 c 128,-1,59
 560 1006 560 1006 549 1006 c 0,60,61
 541 1006 541 1006 533.5 998.5 c 128,-1,62
 526 991 526 991 520 985 c 1,63,-1
 246 575 l 2,64,65
 244 573 244 573 242.5 570.5 c 128,-1,66
 241 568 241 568 239 565 c 0,67,68
 237 561 237 561 235 558 c 1,49,50
EndSplineSet
EndChar

StartChar: five
Encoding: 53 53 24
Width: 1049
Flags: W
LayerCount: 2
Fore
SplineSet
84 111 m 0,0,1
 84 132 84 132 94.5 148.5 c 128,-1,2
 105 165 105 165 121.5 177 c 128,-1,3
 138 189 138 189 159.5 195.5 c 128,-1,4
 181 202 181 202 203 202 c 0,5,6
 240 202 240 202 272 179 c 128,-1,7
 304 156 304 156 335.5 128 c 128,-1,8
 367 100 367 100 399.5 77 c 128,-1,9
 432 54 432 54 470 54 c 0,10,11
 519 54 519 54 555 71 c 128,-1,12
 591 88 591 88 617.5 116 c 128,-1,13
 644 144 644 144 661 180 c 128,-1,14
 678 216 678 216 688.5 254 c 128,-1,15
 699 292 699 292 703 328.5 c 128,-1,16
 707 365 707 365 707 395 c 0,17,18
 707 466 707 466 693 517 c 128,-1,19
 679 568 679 568 655.5 604 c 128,-1,20
 632 640 632 640 602.5 662 c 128,-1,21
 573 684 573 684 542.5 696.5 c 128,-1,22
 512 709 512 709 483 713 c 128,-1,23
 454 717 454 717 432 717 c 0,24,25
 407 717 407 717 381 709 c 128,-1,26
 355 701 355 701 332 690 c 128,-1,27
 309 679 309 679 290.5 667.5 c 128,-1,28
 272 656 272 656 261 649 c 1,29,30
 255 647 255 647 251 644.5 c 128,-1,31
 247 642 247 642 242.5 640 c 128,-1,32
 238 638 238 638 232 636.5 c 128,-1,33
 226 635 226 635 216 635 c 0,34,35
 194 635 194 635 181 641.5 c 128,-1,36
 168 648 168 648 167 664 c 1,37,-1
 197 1340 l 1,38,-1
 753 1340 l 2,39,40
 762 1340 762 1340 767.5 1343.5 c 128,-1,41
 773 1347 773 1347 776.5 1352.5 c 128,-1,42
 780 1358 780 1358 782.5 1365 c 128,-1,43
 785 1372 785 1372 790 1380 c 1,44,-1
 859 1380 l 1,45,-1
 832 1165 l 1,46,-1
 294 1165 l 1,47,-1
 279 858 l 1,48,49
 297 864 297 864 321.5 869 c 128,-1,50
 346 874 346 874 374.5 877.5 c 128,-1,51
 403 881 403 881 432 883.5 c 128,-1,52
 461 886 461 886 488 886 c 0,53,54
 530 886 530 886 580 875 c 128,-1,55
 630 864 630 864 681 842 c 128,-1,56
 732 820 732 820 779.5 786 c 128,-1,57
 827 752 827 752 864 705.5 c 128,-1,58
 901 659 901 659 923 599.5 c 128,-1,59
 945 540 945 540 945 468 c 0,60,61
 945 372 945 372 922 298 c 128,-1,62
 899 224 899 224 859.5 169 c 128,-1,63
 820 114 820 114 767.5 77 c 128,-1,64
 715 40 715 40 656 17 c 128,-1,65
 597 -6 597 -6 534.5 -16 c 128,-1,66
 472 -26 472 -26 414 -26 c 0,67,68
 396 -26 396 -26 364.5 -23.5 c 128,-1,69
 333 -21 333 -21 296.5 -15.5 c 128,-1,70
 260 -10 260 -10 222 0 c 128,-1,71
 184 10 184 10 153.5 25 c 128,-1,72
 123 40 123 40 103.5 61.5 c 128,-1,73
 84 83 84 83 84 111 c 0,0,1
EndSplineSet
EndChar

StartChar: six
Encoding: 54 54 25
Width: 1049
Flags: W
LayerCount: 2
Fore
SplineSet
60 506 m 0,0,1
 60 642 60 642 102 752 c 128,-1,2
 144 862 144 862 228 958.5 c 128,-1,3
 312 1055 312 1055 437.5 1143.5 c 128,-1,4
 563 1232 563 1232 731 1324 c 0,5,6
 740 1329 740 1329 759 1338 c 128,-1,7
 778 1347 778 1347 800 1356 c 128,-1,8
 822 1365 822 1365 844.5 1371.5 c 128,-1,9
 867 1378 867 1378 885 1378 c 0,10,11
 918 1378 918 1378 932.5 1375 c 128,-1,12
 947 1372 947 1372 947 1358 c 0,13,14
 947 1348 947 1348 922.5 1329.5 c 128,-1,15
 898 1311 898 1311 865 1291 c 128,-1,16
 832 1271 832 1271 800 1252 c 128,-1,17
 768 1233 768 1233 753 1223 c 0,18,19
 723 1202 723 1202 675 1166.5 c 128,-1,20
 627 1131 627 1131 578 1087 c 128,-1,21
 529 1043 529 1043 489 994.5 c 128,-1,22
 449 946 449 946 434 900 c 1,23,24
 448 904 448 904 468 907 c 128,-1,25
 488 910 488 910 515 910 c 0,26,27
 619 910 619 910 705.5 873 c 128,-1,28
 792 836 792 836 854 772.5 c 128,-1,29
 916 709 916 709 950.5 624 c 128,-1,30
 985 539 985 539 985 443 c 0,31,32
 985 345 985 345 950 259.5 c 128,-1,33
 915 174 915 174 852 110.5 c 128,-1,34
 789 47 789 47 702.5 10.5 c 128,-1,35
 616 -26 616 -26 514 -26 c 0,36,37
 440 -26 440 -26 377.5 -5 c 128,-1,38
 315 16 315 16 264.5 53.5 c 128,-1,39
 214 91 214 91 175.5 142 c 128,-1,40
 137 193 137 193 111.5 252 c 128,-1,41
 86 311 86 311 73 375.5 c 128,-1,42
 60 440 60 440 60 506 c 0,0,1
526 55 m 0,43,44
 586 55 586 55 626 88.5 c 128,-1,45
 666 122 666 122 690 174.5 c 128,-1,46
 714 227 714 227 724 291 c 128,-1,47
 734 355 734 355 734 416 c 0,48,49
 734 494 734 494 723 567.5 c 128,-1,50
 712 641 712 641 684 697.5 c 128,-1,51
 656 754 656 754 608 788.5 c 128,-1,52
 560 823 560 823 485 823 c 0,53,54
 429 823 429 823 393 794.5 c 128,-1,55
 357 766 357 766 337 715.5 c 128,-1,56
 317 665 317 665 309.5 597 c 128,-1,57
 302 529 302 529 302 450 c 0,58,59
 302 409 302 409 306 363.5 c 128,-1,60
 310 318 310 318 320 274 c 128,-1,61
 330 230 330 230 346.5 190.5 c 128,-1,62
 363 151 363 151 388 120.5 c 128,-1,63
 413 90 413 90 447 72.5 c 128,-1,64
 481 55 481 55 526 55 c 0,43,44
EndSplineSet
EndChar

StartChar: seven
Encoding: 55 55 26
Width: 1049
Flags: W
LayerCount: 2
Fore
SplineSet
297 10 m 1,0,1
 318 59 318 59 350.5 131 c 128,-1,2
 383 203 383 203 422 288 c 128,-1,3
 461 373 461 373 503.5 466 c 128,-1,4
 546 559 546 559 587 649.5 c 128,-1,5
 628 740 628 740 666 823 c 128,-1,6
 704 906 704 906 733 971.5 c 128,-1,7
 762 1037 762 1037 779.5 1079.5 c 128,-1,8
 797 1122 797 1122 799 1132 c 1,9,-1
 262 1132 l 2,10,11
 235 1132 235 1132 220 1119.5 c 128,-1,12
 205 1107 205 1107 200 1093 c 2,13,-1
 147 963 l 2,14,15
 140 946 140 946 133 940 c 128,-1,16
 126 934 126 934 103 934 c 0,17,18
 78 934 78 934 68 943 c 128,-1,19
 58 952 58 952 60 961 c 2,20,-1
 120 1306 l 2,21,22
 121 1309 121 1309 123.5 1315 c 128,-1,23
 126 1321 126 1321 132 1326.5 c 128,-1,24
 138 1332 138 1332 148 1336 c 128,-1,25
 158 1340 158 1340 174 1340 c 2,26,-1
 933 1340 l 2,27,28
 959 1340 959 1340 979.5 1331 c 128,-1,29
 1000 1322 1000 1322 1000 1296 c 0,30,31
 1000 1281 1000 1281 995.5 1253 c 128,-1,32
 991 1225 991 1225 980 1201 c 2,33,-1
 427 -26 l 1,34,-1
 297 -26 l 1,35,-1
 297 10 l 1,0,1
EndSplineSet
EndChar

StartChar: eight
Encoding: 56 56 27
Width: 1049
Flags: W
LayerCount: 2
Fore
SplineSet
142 316 m 0,0,1
 142 378 142 378 161 429.5 c 128,-1,2
 180 481 180 481 212.5 525.5 c 128,-1,3
 245 570 245 570 289 609 c 128,-1,4
 333 648 333 648 384 686 c 1,5,6
 344 726 344 726 307 765.5 c 128,-1,7
 270 805 270 805 241.5 848 c 128,-1,8
 213 891 213 891 196 939 c 128,-1,9
 179 987 179 987 179 1045 c 0,10,11
 179 1120 179 1120 203 1181.5 c 128,-1,12
 227 1243 227 1243 271.5 1287 c 128,-1,13
 316 1331 316 1331 380.5 1355.5 c 128,-1,14
 445 1380 445 1380 526 1380 c 0,15,16
 598 1380 598 1380 662 1357 c 128,-1,17
 726 1334 726 1334 774 1292.5 c 128,-1,18
 822 1251 822 1251 850 1193 c 128,-1,19
 878 1135 878 1135 878 1066 c 0,20,21
 878 1037 878 1037 867.5 1005 c 128,-1,22
 857 973 857 973 840 941.5 c 128,-1,23
 823 910 823 910 800 879 c 128,-1,24
 777 848 777 848 751.5 821.5 c 128,-1,25
 726 795 726 795 700 774 c 128,-1,26
 674 753 674 753 651 740 c 1,27,28
 701 698 701 698 747 657.5 c 128,-1,29
 793 617 793 617 828 569.5 c 128,-1,30
 863 522 863 522 884 464.5 c 128,-1,31
 905 407 905 407 905 332 c 0,32,33
 905 260 905 260 877 195 c 128,-1,34
 849 130 849 130 799.5 81.5 c 128,-1,35
 750 33 750 33 682.5 4 c 128,-1,36
 615 -25 615 -25 537 -25 c 0,37,38
 460 -25 460 -25 388.5 -1 c 128,-1,39
 317 23 317 23 262 67.5 c 128,-1,40
 207 112 207 112 174.5 175 c 128,-1,41
 142 238 142 238 142 316 c 0,0,1
345 310 m 0,42,43
 345 256 345 256 358 208.5 c 128,-1,44
 371 161 371 161 396 125 c 128,-1,45
 421 89 421 89 457 68 c 128,-1,46
 493 47 493 47 539 47 c 0,47,48
 566 47 566 47 594 61.5 c 128,-1,49
 622 76 622 76 645 107.5 c 128,-1,50
 668 139 668 139 682.5 188 c 128,-1,51
 697 237 697 237 697 306 c 0,52,53
 697 350 697 350 672.5 394.5 c 128,-1,54
 648 439 648 439 612.5 479.5 c 128,-1,55
 577 520 577 520 536.5 554.5 c 128,-1,56
 496 589 496 589 464 614 c 1,57,58
 405 569 405 569 375 491 c 128,-1,59
 345 413 345 413 345 310 c 0,42,43
376 1118 m 0,60,61
 376 1067 376 1067 392.5 1023.5 c 128,-1,62
 409 980 409 980 436.5 942.5 c 128,-1,63
 464 905 464 905 500 871.5 c 128,-1,64
 536 838 536 838 574 806 c 0,65,66
 579 801 579 801 583 801 c 256,67,68
 587 801 587 801 592.5 804.5 c 128,-1,69
 598 808 598 808 608 817 c 1,70,71
 629 839 629 839 644 868 c 128,-1,72
 659 897 659 897 668 929.5 c 128,-1,73
 677 962 677 962 681.5 997 c 128,-1,74
 686 1032 686 1032 686 1067 c 0,75,76
 686 1112 686 1112 677.5 1156 c 128,-1,77
 669 1200 669 1200 649.5 1234 c 128,-1,78
 630 1268 630 1268 599 1289 c 128,-1,79
 568 1310 568 1310 524 1310 c 0,80,81
 488 1310 488 1310 460 1294.5 c 128,-1,82
 432 1279 432 1279 413.5 1253 c 128,-1,83
 395 1227 395 1227 385.5 1192 c 128,-1,84
 376 1157 376 1157 376 1118 c 0,60,61
EndSplineSet
EndChar

StartChar: nine
Encoding: 57 57 28
Width: 1049
Flags: W
LayerCount: 2
Fore
SplineSet
82 -7 m 0,0,1
 82 5 82 5 94.5 15 c 128,-1,2
 107 25 107 25 123 33 c 0,3,4
 183 64 183 64 246 100.5 c 128,-1,5
 309 137 309 137 369 180 c 128,-1,6
 429 223 429 223 484 273.5 c 128,-1,7
 539 324 539 324 584 384 c 0,8,9
 590 391 590 391 597.5 402.5 c 128,-1,10
 605 414 605 414 613 426 c 128,-1,11
 621 438 621 438 628.5 450 c 128,-1,12
 636 462 636 462 641 471 c 1,13,14
 601 460 601 460 560.5 453 c 128,-1,15
 520 446 520 446 474 446 c 0,16,17
 372 446 372 446 293.5 486 c 128,-1,18
 215 526 215 526 161.5 590 c 128,-1,19
 108 654 108 654 80 735 c 128,-1,20
 52 816 52 816 52 899 c 0,21,22
 52 989 52 989 83 1075 c 128,-1,23
 114 1161 114 1161 171.5 1229 c 128,-1,24
 229 1297 229 1297 311.5 1338.5 c 128,-1,25
 394 1380 394 1380 497 1380 c 0,26,27
 615 1380 615 1380 707.5 1337 c 128,-1,28
 800 1294 800 1294 864 1221 c 128,-1,29
 928 1148 928 1148 962 1051.5 c 128,-1,30
 996 955 996 955 996 848 c 0,31,32
 996 710 996 710 951.5 588.5 c 128,-1,33
 907 467 907 467 828 365.5 c 128,-1,34
 749 264 749 264 640 183.5 c 128,-1,35
 531 103 531 103 402 47 c 0,36,37
 375 35 375 35 343.5 22 c 128,-1,38
 312 9 312 9 277 -2 c 128,-1,39
 242 -13 242 -13 204 -20 c 128,-1,40
 166 -27 166 -27 127 -27 c 0,41,42
 104 -27 104 -27 93 -24 c 128,-1,43
 82 -21 82 -21 82 -7 c 0,0,1
542 531 m 0,44,45
 582 531 582 531 620.5 544 c 128,-1,46
 659 557 659 557 691 582 c 0,47,48
 706 593 706 593 714.5 627 c 128,-1,49
 723 661 723 661 728 703 c 128,-1,50
 733 745 733 745 734.5 787.5 c 128,-1,51
 736 830 736 830 736 859 c 0,52,53
 736 900 736 900 733.5 948.5 c 128,-1,54
 731 997 731 997 723 1046 c 128,-1,55
 715 1095 715 1095 700 1140.5 c 128,-1,56
 685 1186 685 1186 659.5 1221.5 c 128,-1,57
 634 1257 634 1257 596.5 1278 c 128,-1,58
 559 1299 559 1299 507 1299 c 0,59,60
 442 1299 442 1299 402.5 1259 c 128,-1,61
 363 1219 363 1219 342 1157.5 c 128,-1,62
 321 1096 321 1096 314 1023 c 128,-1,63
 307 950 307 950 307 884 c 0,64,65
 307 822 307 822 322 759 c 128,-1,66
 337 696 337 696 366.5 645.5 c 128,-1,67
 396 595 396 595 440 563 c 128,-1,68
 484 531 484 531 542 531 c 0,44,45
EndSplineSet
EndChar

StartChar: colon
Encoding: 58 58 29
Width: 594
Flags: W
LayerCount: 2
Fore
SplineSet
130 775 m 0,0,1
 130 809 130 809 143 839.5 c 128,-1,2
 156 870 156 870 179 893 c 128,-1,3
 202 916 202 916 232 929 c 128,-1,4
 262 942 262 942 297 942 c 0,5,6
 331 942 331 942 361.5 929 c 128,-1,7
 392 916 392 916 415 893 c 128,-1,8
 438 870 438 870 451 839.5 c 128,-1,9
 464 809 464 809 464 775 c 0,10,11
 464 740 464 740 451 710 c 128,-1,12
 438 680 438 680 415 657 c 128,-1,13
 392 634 392 634 361.5 621 c 128,-1,14
 331 608 331 608 297 608 c 0,15,16
 262 608 262 608 232 621 c 128,-1,17
 202 634 202 634 179 657 c 128,-1,18
 156 680 156 680 143 710 c 128,-1,19
 130 740 130 740 130 775 c 0,0,1
130 127 m 0,20,21
 130 161 130 161 143 191.5 c 128,-1,22
 156 222 156 222 179 245 c 128,-1,23
 202 268 202 268 232 281 c 128,-1,24
 262 294 262 294 297 294 c 0,25,26
 331 294 331 294 361.5 281 c 128,-1,27
 392 268 392 268 415 245 c 128,-1,28
 438 222 438 222 451 191.5 c 128,-1,29
 464 161 464 161 464 127 c 0,30,31
 464 92 464 92 451 62 c 128,-1,32
 438 32 438 32 415 9 c 128,-1,33
 392 -14 392 -14 361.5 -27 c 128,-1,34
 331 -40 331 -40 297 -40 c 0,35,36
 262 -40 262 -40 232 -27 c 128,-1,37
 202 -14 202 -14 179 9 c 128,-1,38
 156 32 156 32 143 62 c 128,-1,39
 130 92 130 92 130 127 c 0,20,21
EndSplineSet
EndChar

StartChar: semicolon
Encoding: 59 59 30
Width: 600
Flags: W
LayerCount: 2
Fore
SplineSet
138 772 m 0,0,1
 138 806 138 806 151 836.5 c 128,-1,2
 164 867 164 867 187 890 c 128,-1,3
 210 913 210 913 240 926 c 128,-1,4
 270 939 270 939 305 939 c 0,5,6
 339 939 339 939 369.5 926 c 128,-1,7
 400 913 400 913 423 890 c 128,-1,8
 446 867 446 867 459 836.5 c 128,-1,9
 472 806 472 806 472 772 c 0,10,11
 472 737 472 737 459 707 c 128,-1,12
 446 677 446 677 423 654 c 128,-1,13
 400 631 400 631 369.5 618 c 128,-1,14
 339 605 339 605 305 605 c 0,15,16
 270 605 270 605 240 618 c 128,-1,17
 210 631 210 631 187 654 c 128,-1,18
 164 677 164 677 151 707 c 128,-1,19
 138 737 138 737 138 772 c 0,0,1
209 -302 m 0,20,21
 189 -302 189 -302 184 -289 c 128,-1,22
 179 -276 179 -276 179 -265 c 0,23,24
 180 -252 180 -252 187.5 -241 c 128,-1,25
 195 -230 195 -230 206 -221 c 128,-1,26
 217 -212 217 -212 228.5 -203.5 c 128,-1,27
 240 -195 240 -195 249 -187 c 0,28,29
 263 -173 263 -173 278 -156 c 128,-1,30
 293 -139 293 -139 305 -120 c 128,-1,31
 317 -101 317 -101 325 -81 c 128,-1,32
 333 -61 333 -61 333 -41 c 0,33,34
 333 -33 333 -33 330.5 -24 c 128,-1,35
 328 -15 328 -15 311 -15 c 0,36,37
 279 -15 279 -15 245.5 -5 c 128,-1,38
 212 5 212 5 184 25 c 128,-1,39
 156 45 156 45 138.5 74.5 c 128,-1,40
 121 104 121 104 121 143 c 0,41,42
 121 181 121 181 133 210.5 c 128,-1,43
 145 240 145 240 167 260 c 128,-1,44
 189 280 189 280 218.5 290.5 c 128,-1,45
 248 301 248 301 284 301 c 0,46,47
 346 301 346 301 384.5 277.5 c 128,-1,48
 423 254 423 254 444 220.5 c 128,-1,49
 465 187 465 187 472 150.5 c 128,-1,50
 479 114 479 114 479 87 c 0,51,52
 479 33 479 33 462 -19 c 128,-1,53
 445 -71 445 -71 417.5 -117 c 128,-1,54
 390 -163 390 -163 354 -202 c 128,-1,55
 318 -241 318 -241 280 -269 c 0,56,57
 265 -280 265 -280 245.5 -291 c 128,-1,58
 226 -302 226 -302 209 -302 c 0,20,21
EndSplineSet
EndChar

StartChar: less
Encoding: 60 60 31
Width: 1049
Flags: W
LayerCount: 2
Fore
SplineSet
438 625 m 1,0,1
 550 558 550 558 666.5 488.5 c 128,-1,2
 783 419 783 419 895 353 c 1,3,-1
 895 129 l 1,4,-1
 154 570 l 1,5,-1
 154 676 l 1,6,-1
 895 1109 l 1,7,-1
 895 891 l 1,8,-1
 438 625 l 1,0,1
EndSplineSet
EndChar

StartChar: equal
Encoding: 61 61 32
Width: 1049
Flags: W
LayerCount: 2
Fore
SplineSet
980 904 m 1,0,-1
 980 717 l 1,1,-1
 70 717 l 1,2,-1
 70 904 l 1,3,-1
 980 904 l 1,0,-1
980 534 m 1,4,-1
 980 347 l 1,5,-1
 70 347 l 1,6,-1
 70 534 l 1,7,-1
 980 534 l 1,4,-1
EndSplineSet
EndChar

StartChar: greater
Encoding: 62 62 33
Width: 1049
Flags: W
LayerCount: 2
Fore
SplineSet
154 892 m 1,0,-1
 154 1110 l 1,1,-1
 895 677 l 1,2,-1
 895 571 l 1,3,-1
 154 130 l 1,4,-1
 154 354 l 1,5,6
 266 420 266 420 382.5 489.5 c 128,-1,7
 499 559 499 559 611 626 c 1,8,-1
 154 892 l 1,0,-1
EndSplineSet
EndChar

StartChar: question
Encoding: 63 63 34
Width: 778
Flags: W
LayerCount: 2
Fore
SplineSet
272 358 m 0,0,1
 264 358 264 358 252.5 372.5 c 128,-1,2
 241 387 241 387 229 410.5 c 128,-1,3
 217 434 217 434 205.5 463 c 128,-1,4
 194 492 194 492 184.5 520.5 c 128,-1,5
 175 549 175 549 168.5 574.5 c 128,-1,6
 162 600 162 600 161 616 c 1,7,8
 161 680 161 680 186 720 c 128,-1,9
 211 760 211 760 250.5 787 c 128,-1,10
 290 814 290 814 339 832 c 128,-1,11
 388 850 388 850 435 870 c 0,12,13
 466 883 466 883 493.5 900 c 128,-1,14
 521 917 521 917 541.5 939.5 c 128,-1,15
 562 962 562 962 574 991.5 c 128,-1,16
 586 1021 586 1021 586 1059 c 0,17,18
 586 1105 586 1105 565 1135 c 128,-1,19
 544 1165 544 1165 498 1182.5 c 128,-1,20
 452 1200 452 1200 378 1206.5 c 128,-1,21
 304 1213 304 1213 198 1213 c 1,22,23
 180 1214 180 1214 161 1221.5 c 128,-1,24
 142 1229 142 1229 126.5 1241 c 128,-1,25
 111 1253 111 1253 100.5 1270.5 c 128,-1,26
 90 1288 90 1288 90 1309 c 0,27,28
 90 1339 90 1339 99 1365.5 c 128,-1,29
 108 1392 108 1392 128 1412 c 128,-1,30
 148 1432 148 1432 180.5 1443.5 c 128,-1,31
 213 1455 213 1455 260 1455 c 0,32,33
 344 1455 344 1455 416 1420 c 128,-1,34
 488 1385 488 1385 540.5 1325.5 c 128,-1,35
 593 1266 593 1266 623 1188.5 c 128,-1,36
 653 1111 653 1111 653 1026 c 0,37,38
 653 967 653 967 635 907 c 128,-1,39
 617 847 617 847 585 793.5 c 128,-1,40
 553 740 553 740 509 697 c 128,-1,41
 465 654 465 654 413 629 c 0,42,43
 388 617 388 617 362.5 607 c 128,-1,44
 337 597 337 597 317 582.5 c 128,-1,45
 297 568 297 568 284 546 c 128,-1,46
 271 524 271 524 271 488 c 0,47,48
 271 467 271 467 273 457 c 128,-1,49
 275 447 275 447 279.5 438.5 c 128,-1,50
 284 430 284 430 290 419 c 128,-1,51
 296 408 296 408 305 386 c 0,52,53
 305 384 305 384 300.5 379 c 128,-1,54
 296 374 296 374 290.5 369.5 c 128,-1,55
 285 365 285 365 279.5 361.5 c 128,-1,56
 274 358 274 358 272 358 c 0,0,1
116 115 m 256,57,58
 116 146 116 146 128 174 c 128,-1,59
 140 202 140 202 160.5 223 c 128,-1,60
 181 244 181 244 208.5 256 c 128,-1,61
 236 268 236 268 268 268 c 0,62,63
 299 268 299 268 327 256 c 128,-1,64
 355 244 355 244 375 223 c 128,-1,65
 395 202 395 202 407 174 c 128,-1,66
 419 146 419 146 419 115 c 256,67,68
 419 84 419 84 407 56 c 128,-1,69
 395 28 395 28 375 6.5 c 128,-1,70
 355 -15 355 -15 327 -27.5 c 128,-1,71
 299 -40 299 -40 268 -40 c 0,72,73
 236 -40 236 -40 208.5 -27.5 c 128,-1,74
 181 -15 181 -15 160.5 6.5 c 128,-1,75
 140 28 140 28 128 56 c 128,-1,76
 116 84 116 84 116 115 c 256,57,58
EndSplineSet
EndChar

StartChar: at
Encoding: 64 64 35
Width: 2049
Flags: W
LayerCount: 2
Fore
SplineSet
1949 162 m 1,0,1
 1897 25 1897 25 1815.5 -87.5 c 128,-1,2
 1734 -200 1734 -200 1625.5 -283 c 128,-1,3
 1517 -366 1517 -366 1383 -415.5 c 128,-1,4
 1249 -465 1249 -465 1092 -475 c 1,5,6
 958 -475 958 -475 836 -444 c 128,-1,7
 714 -413 714 -413 609 -355.5 c 128,-1,8
 504 -298 504 -298 419.5 -215.5 c 128,-1,9
 335 -133 335 -133 275 -31 c 128,-1,10
 215 71 215 71 182.5 191.5 c 128,-1,11
 150 312 150 312 150 446 c 256,12,13
 150 580 150 580 182.5 707.5 c 128,-1,14
 215 835 215 835 275 948.5 c 128,-1,15
 335 1062 335 1062 419.5 1157 c 128,-1,16
 504 1252 504 1252 608.5 1321 c 128,-1,17
 713 1390 713 1390 835 1428.5 c 128,-1,18
 957 1467 957 1467 1091 1467 c 0,19,20
 1217 1467 1217 1467 1324 1438.5 c 128,-1,21
 1431 1410 1431 1410 1517.5 1360 c 128,-1,22
 1604 1310 1604 1310 1669.5 1241 c 128,-1,23
 1735 1172 1735 1172 1779 1090.5 c 128,-1,24
 1823 1009 1823 1009 1845.5 919 c 128,-1,25
 1868 829 1868 829 1868 736 c 0,26,27
 1868 625 1868 625 1844 527 c 128,-1,28
 1820 429 1820 429 1778 346.5 c 128,-1,29
 1736 264 1736 264 1679.5 199 c 128,-1,30
 1623 134 1623 134 1558 88.5 c 128,-1,31
 1493 43 1493 43 1423 19 c 128,-1,32
 1353 -5 1353 -5 1284 -5 c 0,33,34
 1253 -5 1253 -5 1211.5 -2 c 128,-1,35
 1170 1 1170 1 1133 15 c 128,-1,36
 1096 29 1096 29 1070 59.5 c 128,-1,37
 1044 90 1044 90 1044 144 c 0,38,39
 1044 188 1044 188 1049.5 217 c 128,-1,40
 1055 246 1055 246 1060 270 c 1,41,42
 1052 262 1052 262 1042 254 c 128,-1,43
 1032 246 1032 246 1021 236 c 0,44,45
 987 206 987 206 946 170.5 c 128,-1,46
 905 135 905 135 864 104.5 c 128,-1,47
 823 74 823 74 786 53.5 c 128,-1,48
 749 33 749 33 723 33 c 0,49,50
 691 33 691 33 668 48.5 c 128,-1,51
 645 64 645 64 629 89.5 c 128,-1,52
 613 115 613 115 603 146.5 c 128,-1,53
 593 178 593 178 587.5 210 c 128,-1,54
 582 242 582 242 580 270.5 c 128,-1,55
 578 299 578 299 578 319 c 0,56,57
 578 415 578 415 611.5 504 c 128,-1,58
 645 593 645 593 702 671 c 128,-1,59
 759 749 759 749 835.5 813 c 128,-1,60
 912 877 912 877 999 923 c 128,-1,61
 1086 969 1086 969 1178 994.5 c 128,-1,62
 1270 1020 1270 1020 1359 1020 c 0,63,64
 1377 1020 1377 1020 1386.5 1014.5 c 128,-1,65
 1396 1009 1396 1009 1400.5 1000 c 128,-1,66
 1405 991 1405 991 1405.5 980.5 c 128,-1,67
 1406 970 1406 970 1406 961 c 1,68,-1
 1254 264 l 1,69,-1
 1255 266 l 1,70,-1
 1253 250 l 2,71,72
 1252 244 1252 244 1251.5 238 c 128,-1,73
 1251 232 1251 232 1251 229 c 0,74,75
 1251 183 1251 183 1276.5 158.5 c 128,-1,76
 1302 134 1302 134 1343 134 c 0,77,78
 1397 134 1397 134 1446.5 159.5 c 128,-1,79
 1496 185 1496 185 1539.5 229 c 128,-1,80
 1583 273 1583 273 1619 330.5 c 128,-1,81
 1655 388 1655 388 1680.5 452.5 c 128,-1,82
 1706 517 1706 517 1720 583.5 c 128,-1,83
 1734 650 1734 650 1734 711 c 0,84,85
 1734 830 1734 830 1692.5 939 c 128,-1,86
 1651 1048 1651 1048 1569.5 1133 c 128,-1,87
 1488 1218 1488 1218 1368 1271 c 128,-1,88
 1248 1324 1248 1324 1091 1332 c 1,89,90
 980 1325 980 1325 877 1287.5 c 128,-1,91
 774 1250 774 1250 684.5 1189 c 128,-1,92
 595 1128 595 1128 521.5 1046.5 c 128,-1,93
 448 965 448 965 395.5 869 c 128,-1,94
 343 773 343 773 314 665.5 c 128,-1,95
 285 558 285 558 285 446 c 0,96,97
 285 273 285 273 346 129 c 128,-1,98
 407 -15 407 -15 515 -119.5 c 128,-1,99
 623 -224 623 -224 770.5 -282 c 128,-1,100
 918 -340 918 -340 1091 -340 c 0,101,102
 1224 -340 1224 -340 1337 -301.5 c 128,-1,103
 1450 -263 1450 -263 1541.5 -192 c 128,-1,104
 1633 -121 1633 -121 1704 -20.5 c 128,-1,105
 1775 80 1775 80 1824 203 c 1,106,-1
 1921 203 l 1,107,-1
 1949 162 l 1,0,1
772 348 m 0,108,109
 772 331 772 331 773.5 309.5 c 128,-1,110
 775 288 775 288 780.5 269 c 128,-1,111
 786 250 786 250 797 237 c 128,-1,112
 808 224 808 224 828 224 c 0,113,114
 861 224 861 224 898 249.5 c 128,-1,115
 935 275 935 275 970 310.5 c 128,-1,116
 1005 346 1005 346 1036.5 382.5 c 128,-1,117
 1068 419 1068 419 1089 442 c 1,118,-1
 1181 846 l 1,119,120
 1136 845 1136 845 1089.5 832 c 128,-1,121
 1043 819 1043 819 1001 796.5 c 128,-1,122
 959 774 959 774 923.5 742.5 c 128,-1,123
 888 711 888 711 864 673 c 0,124,125
 816 597 816 597 796.5 517 c 128,-1,126
 777 437 777 437 772 348 c 0,108,109
EndSplineSet
EndChar

StartChar: A
Encoding: 65 65 36
Width: 1541
Flags: W
LayerCount: 2
Fore
SplineSet
5 47 m 2,0,1
 5 55 5 55 13 55 c 0,2,3
 32 56 32 56 57.5 60.5 c 128,-1,4
 83 65 83 65 109.5 79.5 c 128,-1,5
 136 94 136 94 161 122.5 c 128,-1,6
 186 151 186 151 203 201 c 2,7,-1
 605 1367 l 2,8,9
 605 1366 605 1366 605.5 1368 c 128,-1,10
 606 1370 606 1370 606 1372 c 0,11,12
 606 1379 606 1379 600.5 1389.5 c 128,-1,13
 595 1400 595 1400 595 1405 c 256,14,15
 595 1410 595 1410 599 1410 c 2,16,-1
 889 1410 l 1,17,18
 891 1409 891 1409 894.5 1408 c 128,-1,19
 898 1407 898 1407 900 1402 c 2,20,-1
 1323 215 l 2,21,22
 1333 187 1333 187 1342 167 c 128,-1,23
 1351 147 1351 147 1363.5 131.5 c 128,-1,24
 1376 116 1376 116 1395 103.5 c 128,-1,25
 1414 91 1414 91 1444 78 c 0,26,27
 1458 71 1458 71 1482 63 c 128,-1,28
 1506 55 1506 55 1528 55 c 0,29,30
 1533 55 1533 55 1534.5 52 c 128,-1,31
 1536 49 1536 49 1536 46 c 2,32,-1
 1536 8 l 2,33,34
 1536 6 1536 6 1534.5 3 c 128,-1,35
 1533 0 1533 0 1528 0 c 2,36,-1
 826 0 l 2,37,38
 821 0 821 0 819.5 3 c 128,-1,39
 818 6 818 6 818 8 c 2,40,-1
 818 47 l 2,41,42
 818 49 818 49 819.5 52 c 128,-1,43
 821 55 821 55 826 55 c 0,44,45
 830 55 830 55 834 55.5 c 128,-1,46
 838 56 838 56 840 56 c 0,47,48
 851 57 851 57 871.5 58 c 128,-1,49
 892 59 892 59 916 61.5 c 128,-1,50
 940 64 940 64 964.5 69.5 c 128,-1,51
 989 75 989 75 1009 85.5 c 128,-1,52
 1029 96 1029 96 1042 113 c 128,-1,53
 1055 130 1055 130 1055 155 c 0,54,55
 1055 161 1055 161 1053 169 c 2,56,-1
 922 530 l 2,57,58
 921 532 921 532 918.5 539 c 128,-1,59
 916 546 916 546 910.5 553.5 c 128,-1,60
 905 561 905 561 896.5 567 c 128,-1,61
 888 573 888 573 876 573 c 2,62,-1
 515 573 l 2,63,64
 502 573 502 573 493 567 c 128,-1,65
 484 561 484 561 478 554 c 128,-1,66
 472 547 472 547 468.5 540 c 128,-1,67
 465 533 465 533 465 532 c 0,68,69
 433 438 433 438 411 373.5 c 128,-1,70
 389 309 389 309 374.5 267 c 128,-1,71
 360 225 360 225 352 202 c 128,-1,72
 344 179 344 179 340.5 168.5 c 128,-1,73
 337 158 337 158 336.5 155.5 c 128,-1,74
 336 153 336 153 336 153 c 2,75,76
 336 150 336 150 337 146.5 c 128,-1,77
 338 143 338 143 339 140 c 0,78,79
 347 115 347 115 368.5 98.5 c 128,-1,80
 390 82 390 82 418 72.5 c 128,-1,81
 446 63 446 63 475.5 59 c 128,-1,82
 505 55 505 55 528 55 c 2,83,-1
 554 55 l 2,84,85
 559 55 559 55 560.5 52 c 128,-1,86
 562 49 562 49 562 47 c 2,87,-1
 562 8 l 2,88,89
 562 6 562 6 560.5 3 c 128,-1,90
 559 0 559 0 554 0 c 2,91,-1
 13 0 l 2,92,93
 5 0 5 0 5 8 c 2,94,-1
 5 47 l 2,0,1
529 717 m 2,95,96
 527 712 527 712 526 707 c 128,-1,97
 525 702 525 702 525 697 c 0,98,99
 525 691 525 691 528 687.5 c 128,-1,100
 531 684 531 684 540 684 c 2,101,-1
 840 684 l 2,102,103
 851 684 851 684 854.5 688.5 c 128,-1,104
 858 693 858 693 858 699 c 0,105,106
 858 704 858 704 857 708 c 128,-1,107
 856 712 856 712 854 717 c 2,108,-1
 721 1082 l 2,109,110
 716 1096 716 1096 706 1102.5 c 128,-1,111
 696 1109 696 1109 688 1109 c 256,112,113
 680 1109 680 1109 670 1101.5 c 128,-1,114
 660 1094 660 1094 655 1081 c 2,115,-1
 529 717 l 2,95,96
EndSplineSet
EndChar

StartChar: B
Encoding: 66 66 37
Width: 1482
Flags: W
LayerCount: 2
Fore
SplineSet
10 47 m 2,0,1
 10 49 10 49 11.5 52 c 128,-1,2
 13 55 13 55 18 55 c 0,3,4
 37 55 37 55 66 57 c 128,-1,5
 95 59 95 59 127.5 64.5 c 128,-1,6
 160 70 160 70 193 80 c 128,-1,7
 226 90 226 90 252 105 c 128,-1,8
 278 120 278 120 294.5 141 c 128,-1,9
 311 162 311 162 311 191 c 2,10,-1
 311 1216 l 2,11,12
 311 1267 311 1267 296 1295.5 c 128,-1,13
 281 1324 281 1324 255.5 1338 c 128,-1,14
 230 1352 230 1352 196 1355.5 c 128,-1,15
 162 1359 162 1359 123 1359 c 2,16,-1
 66 1359 l 2,17,18
 61 1359 61 1359 59.5 1362 c 128,-1,19
 58 1365 58 1365 58 1367 c 2,20,-1
 58 1407 l 2,21,22
 58 1409 58 1409 59.5 1412 c 128,-1,23
 61 1415 61 1415 66 1415 c 0,24,25
 67 1415 67 1415 76.5 1415.5 c 128,-1,26
 86 1416 86 1416 110 1416 c 128,-1,27
 134 1416 134 1416 175 1416.5 c 128,-1,28
 216 1417 216 1417 282 1417 c 0,29,30
 296 1417 296 1417 330.5 1418 c 128,-1,31
 365 1419 365 1419 409.5 1420 c 128,-1,32
 454 1421 454 1421 503.5 1422.5 c 128,-1,33
 553 1424 553 1424 597.5 1425 c 128,-1,34
 642 1426 642 1426 677 1427 c 128,-1,35
 712 1428 712 1428 728 1428 c 0,36,37
 779 1428 779 1428 841.5 1424.5 c 128,-1,38
 904 1421 904 1421 967.5 1409 c 128,-1,39
 1031 1397 1031 1397 1091 1374.5 c 128,-1,40
 1151 1352 1151 1352 1197.5 1314.5 c 128,-1,41
 1244 1277 1244 1277 1272 1222 c 128,-1,42
 1300 1167 1300 1167 1300 1090 c 0,43,44
 1300 1044 1300 1044 1285.5 1006 c 128,-1,45
 1271 968 1271 968 1248.5 938.5 c 128,-1,46
 1226 909 1226 909 1200 887.5 c 128,-1,47
 1174 866 1174 866 1151.5 851.5 c 128,-1,48
 1129 837 1129 837 1112.5 830 c 128,-1,49
 1096 823 1096 823 1094 822 c 1,50,51
 1151 790 1151 790 1202.5 752 c 128,-1,52
 1254 714 1254 714 1293 666.5 c 128,-1,53
 1332 619 1332 619 1354.5 562 c 128,-1,54
 1377 505 1377 505 1377 436 c 0,55,56
 1377 355 1377 355 1355 293 c 128,-1,57
 1333 231 1333 231 1297 185 c 128,-1,58
 1261 139 1261 139 1214.5 107.5 c 128,-1,59
 1168 76 1168 76 1119 55.5 c 128,-1,60
 1070 35 1070 35 1021.5 23.5 c 128,-1,61
 973 12 973 12 933 7 c 128,-1,62
 893 2 893 2 865.5 1 c 128,-1,63
 838 0 838 0 830 0 c 2,64,-1
 18 0 l 2,65,66
 13 0 13 0 11.5 3 c 128,-1,67
 10 6 10 6 10 8 c 2,68,-1
 10 47 l 2,0,1
601 266 m 2,69,70
 601 227 601 227 621 195.5 c 128,-1,71
 641 164 641 164 672 141.5 c 128,-1,72
 703 119 703 119 741.5 106.5 c 128,-1,73
 780 94 780 94 818 94 c 0,74,75
 882 94 882 94 931 118 c 128,-1,76
 980 142 980 142 1012 185 c 128,-1,77
 1044 228 1044 228 1060.5 287.5 c 128,-1,78
 1077 347 1077 347 1077 418 c 0,79,80
 1077 503 1077 503 1051 567 c 128,-1,81
 1025 631 1025 631 978 674 c 128,-1,82
 931 717 931 717 866 738.5 c 128,-1,83
 801 760 801 760 723 760 c 2,84,-1
 614 760 l 2,85,86
 604 760 604 760 602.5 756.5 c 128,-1,87
 601 753 601 753 601 749 c 2,88,-1
 601 266 l 2,69,70
778 852 m 2,89,90
 826 852 826 852 867.5 869.5 c 128,-1,91
 909 887 909 887 939.5 918 c 128,-1,92
 970 949 970 949 987.5 991.5 c 128,-1,93
 1005 1034 1005 1034 1005 1084 c 0,94,95
 1005 1160 1005 1160 986.5 1209.5 c 128,-1,96
 968 1259 968 1259 932 1288 c 128,-1,97
 896 1317 896 1317 842.5 1328.5 c 128,-1,98
 789 1340 789 1340 719 1340 c 0,99,100
 704 1340 704 1340 683.5 1338 c 128,-1,101
 663 1336 663 1336 644 1330.5 c 128,-1,102
 625 1325 625 1325 612 1315 c 128,-1,103
 599 1305 599 1305 599 1289 c 2,104,-1
 599 871 l 2,105,106
 599 868 599 868 602 860 c 128,-1,107
 605 852 605 852 622 852 c 2,108,-1
 778 852 l 2,89,90
EndSplineSet
EndChar

StartChar: C
Encoding: 67 67 38
Width: 1589
Flags: W
LayerCount: 2
Fore
SplineSet
105 696 m 0,0,1
 105 808 105 808 133 907.5 c 128,-1,2
 161 1007 161 1007 212 1091 c 128,-1,3
 263 1175 263 1175 335 1242 c 128,-1,4
 407 1309 407 1309 494.5 1355.5 c 128,-1,5
 582 1402 582 1402 682 1427 c 128,-1,6
 782 1452 782 1452 891 1452 c 0,7,8
 983 1452 983 1452 1068.5 1435.5 c 128,-1,9
 1154 1419 1154 1419 1245 1397 c 0,10,11
 1260 1393 1260 1393 1276.5 1387 c 128,-1,12
 1293 1381 1293 1381 1307.5 1375.5 c 128,-1,13
 1322 1370 1322 1370 1334 1366 c 128,-1,14
 1346 1362 1346 1362 1352 1362 c 0,15,16
 1354 1362 1354 1362 1365.5 1366 c 128,-1,17
 1377 1370 1377 1370 1382 1370 c 2,18,-1
 1428 1370 l 2,19,20
 1440 1370 1440 1370 1440 1353 c 2,21,-1
 1440 1027 l 2,22,23
 1440 1021 1440 1021 1435.5 1019 c 128,-1,24
 1431 1017 1431 1017 1416 1017 c 0,25,26
 1413 1017 1413 1017 1400.5 1017.5 c 128,-1,27
 1388 1018 1388 1018 1385 1023 c 0,28,29
 1383 1026 1383 1026 1377.5 1035 c 128,-1,30
 1372 1044 1372 1044 1365.5 1053.5 c 128,-1,31
 1359 1063 1359 1063 1353.5 1071.5 c 128,-1,32
 1348 1080 1348 1080 1347 1083 c 0,33,34
 1309 1158 1309 1158 1264 1209.5 c 128,-1,35
 1219 1261 1219 1261 1164.5 1293 c 128,-1,36
 1110 1325 1110 1325 1046 1339.5 c 128,-1,37
 982 1354 982 1354 907 1354 c 0,38,39
 812 1354 812 1354 738.5 1332 c 128,-1,40
 665 1310 665 1310 610 1270 c 128,-1,41
 555 1230 555 1230 517.5 1174 c 128,-1,42
 480 1118 480 1118 456.5 1051.5 c 128,-1,43
 433 985 433 985 422.5 909.5 c 128,-1,44
 412 834 412 834 412 754 c 0,45,46
 412 669 412 669 424 585.5 c 128,-1,47
 436 502 436 502 463 426.5 c 128,-1,48
 490 351 490 351 532.5 286.5 c 128,-1,49
 575 222 575 222 635 174.5 c 128,-1,50
 695 127 695 127 775 100 c 128,-1,51
 855 73 855 73 956 73 c 0,52,53
 1041 73 1041 73 1114.5 98.5 c 128,-1,54
 1188 124 1188 124 1249 167.5 c 128,-1,55
 1310 211 1310 211 1357.5 267.5 c 128,-1,56
 1405 324 1405 324 1439 386 c 0,57,58
 1441 391 1441 391 1443.5 391.5 c 128,-1,59
 1446 392 1446 392 1451 392 c 2,60,-1
 1502 392 l 2,61,62
 1505 392 1505 392 1508.5 389.5 c 128,-1,63
 1512 387 1512 387 1512 379 c 0,64,65
 1512 376 1512 376 1507.5 363.5 c 128,-1,66
 1503 351 1503 351 1498 342 c 2,67,-1
 1360 38 l 2,68,69
 1358 35 1358 35 1354 33 c 128,-1,70
 1350 31 1350 31 1347 31 c 0,71,72
 1323 31 1323 31 1313.5 35 c 128,-1,73
 1304 39 1304 39 1294 39 c 0,74,75
 1264 39 1264 39 1214.5 28.5 c 128,-1,76
 1165 18 1165 18 1107.5 6 c 128,-1,77
 1050 -6 1050 -6 991.5 -16.5 c 128,-1,78
 933 -27 933 -27 887 -27 c 0,79,80
 782 -27 782 -27 683 -4 c 128,-1,81
 584 19 584 19 497 62.5 c 128,-1,82
 410 106 410 106 338 169.5 c 128,-1,83
 266 233 266 233 214 313 c 128,-1,84
 162 393 162 393 133.5 489.5 c 128,-1,85
 105 586 105 586 105 696 c 0,0,1
EndSplineSet
EndChar

StartChar: D
Encoding: 68 68 39
Width: 1754
Flags: W
LayerCount: 2
Fore
SplineSet
53 0 m 2,0,1
 47 0 47 0 46 3.5 c 128,-1,2
 45 7 45 7 45 8 c 2,3,-1
 45 51 l 2,4,5
 45 52 45 52 46 55.5 c 128,-1,6
 47 59 47 59 53 59 c 2,7,-1
 75 59 l 2,8,9
 96 59 96 59 127 61.5 c 128,-1,10
 158 64 158 64 187 75.5 c 128,-1,11
 216 87 216 87 236.5 110.5 c 128,-1,12
 257 134 257 134 257 175 c 2,13,-1
 257 1241 l 2,14,15
 257 1272 257 1272 243.5 1293.5 c 128,-1,16
 230 1315 230 1315 209.5 1328.5 c 128,-1,17
 189 1342 189 1342 164 1348 c 128,-1,18
 139 1354 139 1354 117 1354 c 2,19,-1
 53 1354 l 2,20,21
 47 1354 47 1354 46 1357.5 c 128,-1,22
 45 1361 45 1361 45 1362 c 2,23,-1
 45 1405 l 2,24,25
 45 1406 45 1406 46 1409.5 c 128,-1,26
 47 1413 47 1413 53 1413 c 2,27,-1
 75 1413 l 1,28,-1
 486 1420 l 2,29,30
 544 1421 544 1421 611.5 1421.5 c 128,-1,31
 679 1422 679 1422 737 1422 c 0,32,33
 800 1422 800 1422 850 1420.5 c 128,-1,34
 900 1419 900 1419 946 1414.5 c 128,-1,35
 992 1410 992 1410 1039 1403 c 128,-1,36
 1086 1396 1086 1396 1144 1384 c 0,37,38
 1255 1361 1255 1361 1350.5 1299 c 128,-1,39
 1446 1237 1446 1237 1515.5 1149 c 128,-1,40
 1585 1061 1585 1061 1624.5 954 c 128,-1,41
 1664 847 1664 847 1664 735 c 0,42,43
 1664 627 1664 627 1634 530.5 c 128,-1,44
 1604 434 1604 434 1550.5 352.5 c 128,-1,45
 1497 271 1497 271 1423.5 205.5 c 128,-1,46
 1350 140 1350 140 1262 94.5 c 128,-1,47
 1174 49 1174 49 1075 24.5 c 128,-1,48
 976 0 976 0 872 0 c 2,49,-1
 82 0 l 1,50,-1
 53 0 l 2,0,1
542 155 m 2,51,52
 542 126 542 126 560.5 110 c 128,-1,53
 579 94 579 94 609.5 86.5 c 128,-1,54
 640 79 640 79 681 78 c 128,-1,55
 722 77 722 77 767 77 c 0,56,57
 1064 77 1064 77 1212.5 241 c 128,-1,58
 1361 405 1361 405 1361 719 c 0,59,60
 1361 857 1361 857 1327.5 972 c 128,-1,61
 1294 1087 1294 1087 1225.5 1170 c 128,-1,62
 1157 1253 1157 1253 1053.5 1299 c 128,-1,63
 950 1345 950 1345 809 1345 c 2,64,-1
 567 1345 l 2,65,66
 552 1345 552 1345 547 1338.5 c 128,-1,67
 542 1332 542 1332 542 1318 c 2,68,-1
 542 160 l 1,69,-1
 542 155 l 2,51,52
EndSplineSet
EndChar

StartChar: E
Encoding: 69 69 40
Width: 1309
Flags: W
LayerCount: 2
Fore
SplineSet
7 51 m 2,0,1
 7 52 7 52 8 55.5 c 128,-1,2
 9 59 9 59 15 59 c 2,3,-1
 37 59 l 1,4,5
 79 62 79 62 123 62.5 c 128,-1,6
 167 63 167 63 203 73.5 c 128,-1,7
 239 84 239 84 262 110.5 c 128,-1,8
 285 137 285 137 285 193 c 2,9,-1
 285 1217 l 2,10,11
 285 1256 285 1256 269 1280.5 c 128,-1,12
 253 1305 253 1305 227 1320 c 128,-1,13
 201 1335 201 1335 168 1342.5 c 128,-1,14
 135 1350 135 1350 101 1355 c 1,15,-1
 80 1355 l 2,16,17
 75 1355 75 1355 73.5 1358 c 128,-1,18
 72 1361 72 1361 72 1363 c 2,19,-1
 72 1402 l 2,20,21
 72 1404 72 1404 73.5 1407 c 128,-1,22
 75 1410 75 1410 80 1410 c 2,23,-1
 1076 1410 l 2,24,25
 1094 1410 1094 1410 1102 1403.5 c 128,-1,26
 1110 1397 1110 1397 1112 1375 c 2,27,-1
 1130 1055 l 2,28,29
 1130 1050 1130 1050 1121.5 1047.5 c 128,-1,30
 1113 1045 1113 1045 1106 1045 c 0,31,32
 1098 1045 1098 1045 1090 1047 c 128,-1,33
 1082 1049 1082 1049 1079 1053 c 0,34,35
 1072 1063 1072 1063 1069 1082.5 c 128,-1,36
 1066 1102 1066 1102 1062.5 1126 c 128,-1,37
 1059 1150 1059 1150 1052.5 1176 c 128,-1,38
 1046 1202 1046 1202 1033 1224 c 128,-1,39
 1020 1246 1020 1246 997.5 1262.5 c 128,-1,40
 975 1279 975 1279 940 1285 c 1,41,-1
 583 1285 l 2,42,43
 570 1285 570 1285 570 1272 c 2,44,-1
 570 795 l 2,45,46
 570 785 570 785 580 785 c 2,47,-1
 866 785 l 2,48,49
 891 785 891 785 915.5 791.5 c 128,-1,50
 940 798 940 798 958.5 815 c 128,-1,51
 977 832 977 832 988.5 862.5 c 128,-1,52
 1000 893 1000 893 1000 941 c 0,53,54
 1000 949 1000 949 1008 949 c 2,55,-1
 1047 949 l 2,56,57
 1055 949 1055 949 1055 941 c 2,58,-1
 1055 483 l 2,59,60
 1055 478 1055 478 1052 476.5 c 128,-1,61
 1049 475 1049 475 1047 475 c 2,62,-1
 1008 475 l 2,63,64
 1003 475 1003 475 1001.5 478 c 128,-1,65
 1000 481 1000 481 1000 483 c 0,66,67
 1000 539 1000 539 988.5 573.5 c 128,-1,68
 977 608 977 608 958 627.5 c 128,-1,69
 939 647 939 647 914.5 653.5 c 128,-1,70
 890 660 890 660 863 660 c 2,71,-1
 580 660 l 2,72,73
 570 660 570 660 570 650 c 2,74,-1
 570 213 l 2,75,76
 570 184 570 184 579 166.5 c 128,-1,77
 588 149 588 149 603.5 140 c 128,-1,78
 619 131 619 131 639 128 c 128,-1,79
 659 125 659 125 681 125 c 2,80,-1
 954 125 l 2,81,82
 1012 125 1012 125 1051 151.5 c 128,-1,83
 1090 178 1090 178 1114 216 c 128,-1,84
 1138 254 1138 254 1149.5 295 c 128,-1,85
 1161 336 1161 336 1164 365 c 0,86,87
 1166 378 1166 378 1177 385.5 c 128,-1,88
 1188 393 1188 393 1202 393 c 0,89,90
 1207 393 1207 393 1214 389 c 128,-1,91
 1221 385 1221 385 1221 380 c 2,92,-1
 1188 14 l 1,93,94
 1186 9 1186 9 1182.5 4.5 c 128,-1,95
 1179 0 1179 0 1174 0 c 2,96,-1
 15 0 l 2,97,98
 9 0 9 0 8 3.5 c 128,-1,99
 7 7 7 7 7 8 c 2,100,-1
 7 22 l 1,101,-1
 7 51 l 2,0,1
EndSplineSet
EndChar

StartChar: F
Encoding: 70 70 41
Width: 1212
Flags: W
LayerCount: 2
Fore
SplineSet
888 819 m 1,0,1
 902 819 902 819 925 821.5 c 128,-1,2
 948 824 948 824 969.5 836.5 c 128,-1,3
 991 849 991 849 1006.5 875.5 c 128,-1,4
 1022 902 1022 902 1022 950 c 0,5,6
 1022 958 1022 958 1030 958 c 2,7,-1
 1069 958 l 2,8,9
 1077 958 1077 958 1077 950 c 2,10,-1
 1077 548 l 2,11,12
 1077 543 1077 543 1074 541.5 c 128,-1,13
 1071 540 1071 540 1069 540 c 2,14,-1
 1030 540 l 2,15,16
 1025 540 1025 540 1023.5 543 c 128,-1,17
 1022 546 1022 546 1022 548 c 0,18,19
 1022 602 1022 602 1006.5 631.5 c 128,-1,20
 991 661 991 661 970 675 c 128,-1,21
 949 689 949 689 926.5 691.5 c 128,-1,22
 904 694 904 694 890 694 c 2,23,-1
 556 694 l 2,24,25
 544 694 544 694 538 686.5 c 128,-1,26
 532 679 532 679 532 667 c 2,27,-1
 532 188 l 2,28,29
 532 161 532 161 542.5 142.5 c 128,-1,30
 553 124 553 124 571.5 110.5 c 128,-1,31
 590 97 590 97 615 87 c 128,-1,32
 640 77 640 77 670 68 c 0,33,34
 685 63 685 63 702 59 c 128,-1,35
 719 55 719 55 730 55 c 0,36,37
 736 55 736 55 737 51.5 c 128,-1,38
 738 48 738 48 738 47 c 2,39,-1
 738 8 l 2,40,41
 738 6 738 6 736.5 3 c 128,-1,42
 735 0 735 0 730 0 c 2,43,-1
 94 0 l 2,44,45
 89 0 89 0 87.5 3 c 128,-1,46
 86 6 86 6 86 8 c 2,47,-1
 86 47 l 2,48,49
 86 49 86 49 87 52 c 128,-1,50
 88 55 88 55 94 55 c 0,51,52
 105 55 105 55 122.5 59.5 c 128,-1,53
 140 64 140 64 149 68 c 0,54,55
 192 87 192 87 219.5 118.5 c 128,-1,56
 247 150 247 150 247 195 c 2,57,-1
 247 1260 l 2,58,59
 247 1298 247 1298 226 1320 c 128,-1,60
 205 1342 205 1342 178.5 1353 c 128,-1,61
 152 1364 152 1364 128.5 1367 c 128,-1,62
 105 1370 105 1370 99 1370 c 2,63,-1
 95 1370 l 2,64,65
 90 1370 90 1370 88.5 1373 c 128,-1,66
 87 1376 87 1376 87 1378 c 2,67,-1
 87 1402 l 2,68,69
 87 1404 87 1404 88.5 1407 c 128,-1,70
 90 1410 90 1410 95 1410 c 2,71,-1
 1083 1410 l 1,72,73
 1095 1408 1095 1408 1101 1404.5 c 128,-1,74
 1107 1401 1107 1401 1107 1387 c 2,75,-1
 1107 1115 l 2,76,77
 1107 1103 1107 1103 1100 1100 c 128,-1,78
 1093 1097 1093 1097 1084 1097 c 2,79,-1
 1064 1097 l 1,80,81
 1062 1098 1062 1098 1058.5 1114.5 c 128,-1,82
 1055 1131 1055 1131 1049 1153.5 c 128,-1,83
 1043 1176 1043 1176 1034.5 1198.5 c 128,-1,84
 1026 1221 1026 1221 1015 1234 c 0,85,86
 1001 1249 1001 1249 988 1259 c 128,-1,87
 975 1269 975 1269 959 1275 c 128,-1,88
 943 1281 943 1281 922 1283 c 128,-1,89
 901 1285 901 1285 871 1285 c 2,90,-1
 552 1285 l 2,91,92
 532 1285 532 1285 532 1265 c 2,93,-1
 532 842 l 2,94,95
 532 819 532 819 556 819 c 2,96,-1
 888 819 l 1,97,-1
 888 819 l 1,0,1
EndSplineSet
EndChar

StartChar: G
Encoding: 71 71 42
Width: 1666
Flags: W
LayerCount: 2
Fore
SplineSet
115 717 m 0,0,1
 115 818 115 818 142 911 c 128,-1,2
 169 1004 169 1004 218 1085.5 c 128,-1,3
 267 1167 267 1167 335.5 1233.5 c 128,-1,4
 404 1300 404 1300 486 1348 c 128,-1,5
 568 1396 568 1396 661.5 1422 c 128,-1,6
 755 1448 755 1448 854 1448 c 0,7,8
 907 1448 907 1448 962 1441.5 c 128,-1,9
 1017 1435 1017 1435 1069.5 1425 c 128,-1,10
 1122 1415 1122 1415 1169 1403 c 128,-1,11
 1216 1391 1216 1391 1251.5 1381 c 128,-1,12
 1287 1371 1287 1371 1309.5 1364.5 c 128,-1,13
 1332 1358 1332 1358 1335 1358 c 2,14,-1
 1347 1358 l 2,15,16
 1355 1358 1355 1358 1359.5 1359.5 c 128,-1,17
 1364 1361 1364 1361 1367.5 1363 c 128,-1,18
 1371 1365 1371 1365 1375 1366.5 c 128,-1,19
 1379 1368 1379 1368 1387 1368 c 2,20,-1
 1427 1368 l 2,21,22
 1429 1368 1429 1368 1433.5 1366.5 c 128,-1,23
 1438 1365 1438 1365 1438 1357 c 2,24,-1
 1438 1024 l 2,25,26
 1438 1013 1438 1013 1428.5 1009 c 128,-1,27
 1419 1005 1419 1005 1412 1005 c 0,28,29
 1403 1006 1403 1006 1396 1015 c 128,-1,30
 1389 1024 1389 1024 1383 1035 c 128,-1,31
 1377 1046 1377 1046 1373 1056 c 128,-1,32
 1369 1066 1369 1066 1368 1071 c 0,33,34
 1343 1149 1343 1149 1297.5 1202.5 c 128,-1,35
 1252 1256 1252 1256 1190.5 1290 c 128,-1,36
 1129 1324 1129 1324 1055.5 1339 c 128,-1,37
 982 1354 982 1354 901 1354 c 0,38,39
 762 1354 762 1354 669 1303 c 128,-1,40
 576 1252 576 1252 519.5 1166 c 128,-1,41
 463 1080 463 1080 439.5 967.5 c 128,-1,42
 416 855 416 855 416 731 c 0,43,44
 416 646 416 646 433 564 c 128,-1,45
 450 482 450 482 481.5 408.5 c 128,-1,46
 513 335 513 335 558 273.5 c 128,-1,47
 603 212 603 212 658.5 167.5 c 128,-1,48
 714 123 714 123 778.5 98 c 128,-1,49
 843 73 843 73 915 73 c 0,50,51
 996 73 996 73 1057.5 90.5 c 128,-1,52
 1119 108 1119 108 1157 159 c 1,53,-1
 1157 380 l 2,54,55
 1157 423 1157 423 1146.5 456.5 c 128,-1,56
 1136 490 1136 490 1108 513 c 128,-1,57
 1080 536 1080 536 1032 548 c 128,-1,58
 984 560 984 560 909 560 c 0,59,60
 903 560 903 560 900.5 571.5 c 128,-1,61
 898 583 898 583 898 591 c 0,62,63
 898 596 898 596 900.5 608 c 128,-1,64
 903 620 903 620 909 620 c 2,65,-1
 1605 620 l 2,66,67
 1613 620 1613 620 1614.5 608.5 c 128,-1,68
 1616 597 1616 597 1616 591 c 0,69,70
 1616 586 1616 586 1614 575 c 128,-1,71
 1612 564 1612 564 1605 560 c 1,72,73
 1578 549 1578 549 1549.5 541 c 128,-1,74
 1521 533 1521 533 1497 520 c 128,-1,75
 1473 507 1473 507 1457.5 484.5 c 128,-1,76
 1442 462 1442 462 1442 423 c 2,77,-1
 1442 131 l 2,78,79
 1442 123 1442 123 1435.5 118 c 128,-1,80
 1429 113 1429 113 1415 107 c 0,81,82
 1359 80 1359 80 1288 56 c 128,-1,83
 1217 32 1217 32 1142 13.5 c 128,-1,84
 1067 -5 1067 -5 993 -16 c 128,-1,85
 919 -27 919 -27 858 -27 c 0,86,87
 703 -27 703 -27 568 24.5 c 128,-1,88
 433 76 433 76 332 172.5 c 128,-1,89
 231 269 231 269 173 407 c 128,-1,90
 115 545 115 545 115 717 c 0,0,1
EndSplineSet
EndChar

StartChar: H
Encoding: 72 72 43
Width: 1802
Flags: W
LayerCount: 2
Fore
SplineSet
68 0 m 1,0,1
 63 0 63 0 61.5 3 c 128,-1,2
 60 6 60 6 60 8 c 2,3,-1
 60 62 l 2,4,5
 60 64 60 64 61.5 67 c 128,-1,6
 63 70 63 70 68 70 c 0,7,8
 99 70 99 70 130.5 74.5 c 128,-1,9
 162 79 162 79 188 94 c 128,-1,10
 214 109 214 109 230.5 137 c 128,-1,11
 247 165 247 165 247 213 c 2,12,-1
 247 1215 l 2,13,14
 247 1249 247 1249 236 1272 c 128,-1,15
 225 1295 225 1295 205 1309.5 c 128,-1,16
 185 1324 185 1324 157 1331 c 128,-1,17
 129 1338 129 1338 95 1340 c 0,18,19
 87 1340 87 1340 87 1348 c 2,20,-1
 87 1402 l 2,21,22
 87 1410 87 1410 94 1410 c 2,23,-1
 686 1410 l 2,24,25
 691 1410 691 1410 692.5 1407 c 128,-1,26
 694 1404 694 1404 694 1402 c 2,27,-1
 694 1348 l 2,28,29
 694 1342 694 1342 686 1342 c 0,30,31
 656 1342 656 1342 628 1336.5 c 128,-1,32
 600 1331 600 1331 579 1316 c 128,-1,33
 558 1301 558 1301 545 1273.5 c 128,-1,34
 532 1246 532 1246 532 1201 c 2,35,-1
 532 789 l 2,36,37
 532 779 532 779 535 776 c 128,-1,38
 538 773 538 773 548 773 c 2,39,-1
 1246 773 l 2,40,41
 1256 773 1256 773 1259 776 c 128,-1,42
 1262 779 1262 779 1262 789 c 2,43,-1
 1262 1217 l 2,44,45
 1262 1252 1262 1252 1240 1275 c 128,-1,46
 1218 1298 1218 1298 1184.5 1311.5 c 128,-1,47
 1151 1325 1151 1325 1112 1331.5 c 128,-1,48
 1073 1338 1073 1338 1040 1340 c 0,49,50
 1032 1340 1032 1340 1032 1348 c 2,51,-1
 1032 1402 l 2,52,53
 1032 1410 1032 1410 1039 1410 c 2,54,-1
 1706 1410 l 2,55,56
 1711 1410 1711 1410 1712.5 1407 c 128,-1,57
 1714 1404 1714 1404 1714 1402 c 2,58,-1
 1714 1348 l 2,59,60
 1714 1342 1714 1342 1706 1342 c 0,61,62
 1676 1342 1676 1342 1647.5 1336.5 c 128,-1,63
 1619 1331 1619 1331 1596.5 1316 c 128,-1,64
 1574 1301 1574 1301 1560.5 1273.5 c 128,-1,65
 1547 1246 1547 1246 1547 1201 c 2,66,-1
 1547 211 l 2,67,68
 1547 185 1547 185 1554.5 164.5 c 128,-1,69
 1562 144 1562 144 1578 124 c 1,70,71
 1594 102 1594 102 1630.5 87 c 128,-1,72
 1667 72 1667 72 1734 70 c 0,73,74
 1742 70 1742 70 1742 62 c 2,75,-1
 1742 8 l 2,76,77
 1742 0 1742 0 1734 0 c 2,78,-1
 1008 0 l 2,79,80
 1003 0 1003 0 1001.5 3 c 128,-1,81
 1000 6 1000 6 1000 8 c 2,82,-1
 1000 62 l 2,83,84
 1000 64 1000 64 1001.5 67 c 128,-1,85
 1003 70 1003 70 1008 70 c 0,86,87
 1038 70 1038 70 1081 74 c 128,-1,88
 1124 78 1124 78 1164.5 91.5 c 128,-1,89
 1205 105 1205 105 1233.5 130.5 c 128,-1,90
 1262 156 1262 156 1262 200 c 2,91,-1
 1262 632 l 2,92,93
 1262 642 1262 642 1259 645 c 128,-1,94
 1256 648 1256 648 1246 648 c 2,95,-1
 548 648 l 2,96,97
 538 648 538 648 535 645 c 128,-1,98
 532 642 532 642 532 632 c 2,99,-1
 532 190 l 2,100,101
 532 156 532 156 547 133 c 128,-1,102
 562 110 562 110 586.5 96 c 128,-1,103
 611 82 611 82 643 76 c 128,-1,104
 675 70 675 70 709 70 c 0,105,106
 715 70 715 70 716 67 c 128,-1,107
 717 64 717 64 717 62 c 2,108,-1
 717 8 l 2,109,110
 717 6 717 6 716 3 c 128,-1,111
 715 0 715 0 710 0 c 2,112,-1
 68 0 l 1,113,-1
 68 0 l 1,0,1
EndSplineSet
EndChar

StartChar: I
Encoding: 73 73 44
Width: 789
Flags: W
LayerCount: 2
Fore
SplineSet
537 190 m 1,0,1
 537 156 537 156 547.5 133 c 128,-1,2
 558 110 558 110 577.5 96 c 128,-1,3
 597 82 597 82 625.5 76 c 128,-1,4
 654 70 654 70 689 70 c 0,5,6
 697 70 697 70 697 62 c 2,7,-1
 697 8 l 2,8,9
 697 5 697 5 696 2.5 c 128,-1,10
 695 0 695 0 689 0 c 2,11,-1
 98 0 l 2,12,13
 93 0 93 0 91.5 3 c 128,-1,14
 90 6 90 6 90 8 c 2,15,-1
 90 62 l 2,16,17
 90 64 90 64 91.5 67 c 128,-1,18
 93 70 93 70 98 70 c 0,19,20
 133 70 133 70 161.5 74.5 c 128,-1,21
 190 79 190 79 210 94 c 128,-1,22
 230 109 230 109 241 137 c 128,-1,23
 252 165 252 165 252 213 c 2,24,-1
 252 1220 l 2,25,26
 252 1254 252 1254 241.5 1277 c 128,-1,27
 231 1300 231 1300 211.5 1314 c 128,-1,28
 192 1328 192 1328 163.5 1334 c 128,-1,29
 135 1340 135 1340 100 1340 c 0,30,31
 92 1340 92 1340 92 1348 c 2,32,-1
 92 1402 l 2,33,34
 92 1410 92 1410 100 1410 c 2,35,-1
 691 1410 l 2,36,37
 696 1410 696 1410 697.5 1407 c 128,-1,38
 699 1404 699 1404 699 1402 c 2,39,-1
 699 1348 l 2,40,41
 699 1346 699 1346 697.5 1343 c 128,-1,42
 696 1340 696 1340 691 1340 c 0,43,44
 656 1340 656 1340 627.5 1335.5 c 128,-1,45
 599 1331 599 1331 579 1316 c 128,-1,46
 559 1301 559 1301 548 1273 c 128,-1,47
 537 1245 537 1245 537 1197 c 2,48,-1
 537 190 l 1,49,-1
 537 190 l 1,0,1
EndSplineSet
EndChar

StartChar: J
Encoding: 74 74 45
Width: 783
Flags: W
LayerCount: 2
Fore
SplineSet
246 1235 m 1,0,1
 246 1273 246 1273 232.5 1296.5 c 128,-1,2
 219 1320 219 1320 194 1333 c 128,-1,3
 169 1346 169 1346 133 1350.5 c 128,-1,4
 97 1355 97 1355 52 1355 c 0,5,6
 44 1355 44 1355 44 1363 c 2,7,-1
 44 1402 l 2,8,9
 44 1410 44 1410 52 1410 c 2,10,-1
 685 1410 l 2,11,12
 690 1410 690 1410 691.5 1407 c 128,-1,13
 693 1404 693 1404 693 1402 c 2,14,-1
 693 1363 l 2,15,16
 693 1361 693 1361 691.5 1358 c 128,-1,17
 690 1355 690 1355 685 1355 c 0,18,19
 654 1355 654 1355 626 1350.5 c 128,-1,20
 598 1346 598 1346 577 1331 c 128,-1,21
 556 1316 556 1316 543.5 1288 c 128,-1,22
 531 1260 531 1260 531 1212 c 2,23,-1
 531 -10 l 2,24,25
 531 -84 531 -84 516.5 -159.5 c 128,-1,26
 502 -235 502 -235 472.5 -305 c 128,-1,27
 443 -375 443 -375 398 -436 c 128,-1,28
 353 -497 353 -497 293 -542.5 c 128,-1,29
 233 -588 233 -588 157.5 -614 c 128,-1,30
 82 -640 82 -640 -10 -640 c 0,31,32
 -135 -640 -135 -640 -192 -610.5 c 128,-1,33
 -249 -581 -249 -581 -250 -535 c 0,34,35
 -250 -514 -250 -514 -240.5 -495.5 c 128,-1,36
 -231 -477 -231 -477 -216.5 -463 c 128,-1,37
 -202 -449 -202 -449 -184 -441 c 128,-1,38
 -166 -433 -166 -433 -148 -433 c 0,39,40
 -118 -433 -118 -433 -96 -440 c 128,-1,41
 -74 -447 -74 -447 -57.5 -457.5 c 128,-1,42
 -41 -468 -41 -468 -28.5 -480.5 c 128,-1,43
 -16 -493 -16 -493 -2.5 -503.5 c 128,-1,44
 11 -514 11 -514 25.5 -521 c 128,-1,45
 40 -528 40 -528 61 -528 c 0,46,47
 106 -528 106 -528 137.5 -510 c 128,-1,48
 169 -492 169 -492 189.5 -460.5 c 128,-1,49
 210 -429 210 -429 221.5 -387 c 128,-1,50
 233 -345 233 -345 238.5 -297.5 c 128,-1,51
 244 -250 244 -250 245 -199.5 c 128,-1,52
 246 -149 246 -149 246 -100 c 2,53,-1
 246 1235 l 1,54,-1
 246 1235 l 1,0,1
EndSplineSet
EndChar

StartChar: K
Encoding: 75 75 46
Width: 1659
Flags: W
LayerCount: 2
Fore
SplineSet
248 1235 m 2,0,1
 248 1269 248 1269 229.5 1292 c 128,-1,2
 211 1315 211 1315 182 1329.5 c 128,-1,3
 153 1344 153 1344 117.5 1351 c 128,-1,4
 82 1358 82 1358 48 1360 c 0,5,6
 40 1360 40 1360 40 1368 c 2,7,-1
 40 1402 l 2,8,9
 40 1410 40 1410 47 1410 c 2,10,-1
 725 1410 l 2,11,12
 730 1410 730 1410 731.5 1407 c 128,-1,13
 733 1404 733 1404 733 1402 c 2,14,-1
 733 1368 l 2,15,16
 733 1362 733 1362 725 1362 c 0,17,18
 696 1362 696 1362 662.5 1357 c 128,-1,19
 629 1352 629 1352 600 1338 c 128,-1,20
 571 1324 571 1324 552 1299 c 128,-1,21
 533 1274 533 1274 533 1233 c 2,22,-1
 533 822 l 2,23,24
 533 780 533 780 536 757 c 128,-1,25
 539 734 539 734 550 734 c 0,26,27
 556 734 556 734 561.5 734.5 c 128,-1,28
 567 735 567 735 572 738 c 0,29,30
 629 764 629 764 674.5 801 c 128,-1,31
 720 838 720 838 758.5 882 c 128,-1,32
 797 926 797 926 830.5 975 c 128,-1,33
 864 1024 864 1024 897 1075 c 0,34,35
 915 1103 915 1103 935 1130.5 c 128,-1,36
 955 1158 955 1158 971.5 1184 c 128,-1,37
 988 1210 988 1210 999 1234.5 c 128,-1,38
 1010 1259 1010 1259 1010 1283 c 0,39,40
 1010 1310 1010 1310 997 1325.5 c 128,-1,41
 984 1341 984 1341 964 1348.5 c 128,-1,42
 944 1356 944 1356 921 1358 c 128,-1,43
 898 1360 898 1360 878 1360 c 2,44,-1
 868 1360 l 2,45,46
 863 1360 863 1360 861.5 1363 c 128,-1,47
 860 1366 860 1366 860 1368 c 2,48,-1
 860 1402 l 2,49,50
 860 1404 860 1404 861 1407 c 128,-1,51
 862 1410 862 1410 868 1410 c 2,52,-1
 1476 1410 l 2,53,54
 1481 1410 1481 1410 1482.5 1407 c 128,-1,55
 1484 1404 1484 1404 1484 1402 c 2,56,-1
 1484 1368 l 2,57,58
 1484 1365 1484 1365 1481 1360.5 c 128,-1,59
 1478 1356 1478 1356 1472 1356 c 0,60,61
 1411 1354 1411 1354 1361.5 1346 c 128,-1,62
 1312 1338 1312 1338 1271 1319 c 128,-1,63
 1230 1300 1230 1300 1195.5 1266.5 c 128,-1,64
 1161 1233 1161 1233 1130 1181 c 0,65,66
 1077 1091 1077 1091 1035 1027 c 128,-1,67
 993 963 993 963 960.5 919 c 128,-1,68
 928 875 928 875 905 848 c 128,-1,69
 882 821 882 821 866.5 803.5 c 128,-1,70
 851 786 851 786 842.5 774.5 c 128,-1,71
 834 763 834 763 832 752 c 1,72,73
 837 742 837 742 855 725.5 c 128,-1,74
 873 709 873 709 902.5 682 c 128,-1,75
 932 655 932 655 973 615 c 128,-1,76
 1014 575 1014 575 1066 516.5 c 128,-1,77
 1118 458 1118 458 1181 378.5 c 128,-1,78
 1244 299 1244 299 1317 195 c 0,79,80
 1352 144 1352 144 1405 113 c 128,-1,81
 1458 82 1458 82 1524 68 c 0,82,83
 1558 60 1558 60 1578 56 c 128,-1,84
 1598 52 1598 52 1610 50.5 c 128,-1,85
 1622 49 1622 49 1629.5 48.5 c 128,-1,86
 1637 48 1637 48 1646 48 c 0,87,88
 1651 48 1651 48 1652.5 45 c 128,-1,89
 1654 42 1654 42 1654 40 c 2,90,-1
 1654 8 l 2,91,92
 1654 0 1654 0 1646 0 c 2,93,-1
 902 0 l 2,94,95
 894 0 894 0 894 8 c 2,96,-1
 894 42 l 2,97,98
 894 49 894 49 902 50 c 0,99,100
 915 52 915 52 938.5 51.5 c 128,-1,101
 962 51 962 51 984.5 54 c 128,-1,102
 1007 57 1007 57 1024 68 c 128,-1,103
 1041 79 1041 79 1041 104 c 1,104,105
 1039 121 1039 121 1018.5 154 c 128,-1,106
 998 187 998 187 968 226.5 c 128,-1,107
 938 266 938 266 903.5 307 c 128,-1,108
 869 348 869 348 840 381 c 0,109,110
 805 420 805 420 773.5 460.5 c 128,-1,111
 742 501 742 501 709 534.5 c 128,-1,112
 676 568 676 568 640 589 c 128,-1,113
 604 610 604 610 562 610 c 2,114,-1
 543 610 l 2,115,116
 535 610 535 610 534 606.5 c 128,-1,117
 533 603 533 603 533 596 c 2,118,-1
 533 173 l 2,119,120
 533 128 533 128 551.5 103 c 128,-1,121
 570 78 570 78 598.5 66 c 128,-1,122
 627 54 627 54 661 51 c 128,-1,123
 695 48 695 48 725 48 c 0,124,125
 730 48 730 48 731.5 45 c 128,-1,126
 733 42 733 42 733 40 c 2,127,-1
 733 8 l 2,128,129
 733 6 733 6 731.5 3 c 128,-1,130
 730 0 730 0 725 0 c 2,131,-1
 47 0 l 2,132,133
 40 0 40 0 40 8 c 2,134,-1
 40 42 l 2,135,136
 40 50 40 50 48 50 c 0,137,138
 82 51 82 51 117.5 58.5 c 128,-1,139
 153 66 153 66 182 80.5 c 128,-1,140
 211 95 211 95 229.5 118 c 128,-1,141
 248 141 248 141 248 175 c 2,142,-1
 248 1235 l 2,0,1
EndSplineSet
EndChar

StartChar: L
Encoding: 76 76 47
Width: 1299
Flags: W
LayerCount: 2
Fore
SplineSet
48 0 m 1,0,1
 43 0 43 0 41.5 3 c 128,-1,2
 40 6 40 6 40 8 c 2,3,-1
 40 62 l 2,4,5
 40 64 40 64 41 67 c 128,-1,6
 42 70 42 70 48 70 c 2,7,-1
 72 70 l 2,8,9
 75 70 75 70 91.5 71.5 c 128,-1,10
 108 73 108 73 129.5 76.5 c 128,-1,11
 151 80 151 80 174 86 c 128,-1,12
 197 92 197 92 213 101 c 0,13,14
 248 121 248 121 265 152.5 c 128,-1,15
 282 184 282 184 282 223 c 2,16,-1
 282 1221 l 2,17,18
 282 1257 282 1257 258.5 1280 c 128,-1,19
 235 1303 235 1303 202.5 1316.5 c 128,-1,20
 170 1330 170 1330 136.5 1335 c 128,-1,21
 103 1340 103 1340 83 1340 c 2,22,-1
 61 1340 l 2,23,24
 56 1340 56 1340 54.5 1343.5 c 128,-1,25
 53 1347 53 1347 53 1348 c 2,26,-1
 53 1402 l 2,27,28
 53 1404 53 1404 54.5 1407 c 128,-1,29
 56 1410 56 1410 61 1410 c 2,30,-1
 828 1410 l 2,31,32
 833 1410 833 1410 834.5 1407 c 128,-1,33
 836 1404 836 1404 836 1402 c 2,34,-1
 836 1348 l 2,35,36
 836 1346 836 1346 834.5 1343 c 128,-1,37
 833 1340 833 1340 828 1340 c 2,38,-1
 785 1340 l 2,39,40
 729 1340 729 1340 681 1331 c 128,-1,41
 633 1322 633 1322 603 1311 c 0,42,43
 580 1303 580 1303 573.5 1284.5 c 128,-1,44
 567 1266 567 1266 567 1221 c 2,45,-1
 567 172 l 1,46,47
 569 155 569 155 585 140 c 128,-1,48
 601 125 601 125 621 125 c 2,49,-1
 971 125 l 2,50,51
 1006 125 1006 125 1037.5 140 c 128,-1,52
 1069 155 1069 155 1096 178.5 c 128,-1,53
 1123 202 1123 202 1146 230 c 128,-1,54
 1169 258 1169 258 1188 284 c 128,-1,55
 1207 310 1207 310 1222 330.5 c 128,-1,56
 1237 351 1237 351 1248 360 c 0,57,58
 1253 363 1253 363 1259.5 366 c 128,-1,59
 1266 369 1266 369 1275 369 c 0,60,61
 1292 369 1292 369 1292 356 c 0,62,63
 1292 350 1292 350 1289 344 c 2,64,-1
 1123 18 l 2,65,66
 1119 10 1119 10 1114 5 c 128,-1,67
 1109 0 1109 0 1102 0 c 2,68,-1
 48 0 l 1,69,-1
 48 0 l 1,0,1
EndSplineSet
EndChar

StartChar: M
Encoding: 77 77 48
Width: 1988
Flags: W
LayerCount: 2
Fore
SplineSet
26 52 m 2,0,1
 26 54 26 54 27.5 57 c 128,-1,2
 29 60 29 60 34 60 c 0,3,4
 100 60 100 60 136.5 75.5 c 128,-1,5
 173 91 173 91 190.5 118.5 c 128,-1,6
 208 146 208 146 212 184 c 128,-1,7
 216 222 216 222 218 266 c 0,8,9
 224 395 224 395 232.5 516.5 c 128,-1,10
 241 638 241 638 249 755.5 c 128,-1,11
 257 873 257 873 263 988 c 128,-1,12
 269 1103 269 1103 269 1219 c 2,13,-1
 269 1256 l 2,14,15
 269 1279 269 1279 254 1296.5 c 128,-1,16
 239 1314 239 1314 218.5 1326 c 128,-1,17
 198 1338 198 1338 177 1344 c 128,-1,18
 156 1350 156 1350 144 1350 c 0,19,20
 136 1350 136 1350 136 1358 c 2,21,-1
 136 1402 l 2,22,23
 136 1404 136 1404 137 1407 c 128,-1,24
 138 1410 138 1410 144 1410 c 2,25,-1
 498 1410 l 1,26,27
 509 1408 509 1408 516 1402.5 c 128,-1,28
 523 1397 523 1397 529 1388 c 1,29,-1
 964 418 l 2,30,31
 971 401 971 401 982 401 c 256,32,33
 993 401 993 401 998 406 c 128,-1,34
 1003 411 1003 411 1006 419 c 2,35,-1
 1436 1370 l 1,36,37
 1446 1389 1446 1389 1456 1399.5 c 128,-1,38
 1466 1410 1466 1410 1476 1410 c 2,39,-1
 1828 1410 l 2,40,41
 1834 1410 1834 1410 1835 1407 c 128,-1,42
 1836 1404 1836 1404 1836 1402 c 2,43,-1
 1836 1358 l 2,44,45
 1836 1356 1836 1356 1834.5 1353 c 128,-1,46
 1833 1350 1833 1350 1828 1350 c 0,47,48
 1826 1350 1826 1350 1804.5 1346 c 128,-1,49
 1783 1342 1783 1342 1757.5 1330.5 c 128,-1,50
 1732 1319 1732 1319 1711 1297.5 c 128,-1,51
 1690 1276 1690 1276 1690 1241 c 1,52,-1
 1748 176 l 2,53,54
 1749 147 1749 147 1763.5 127 c 128,-1,55
 1778 107 1778 107 1799 94 c 128,-1,56
 1820 81 1820 81 1843.5 74.5 c 128,-1,57
 1867 68 1867 68 1887.5 64.5 c 128,-1,58
 1908 61 1908 61 1922.5 60.5 c 128,-1,59
 1937 60 1937 60 1938 60 c 0,60,61
 1943 60 1943 60 1944.5 57 c 128,-1,62
 1946 54 1946 54 1946 52 c 2,63,-1
 1946 8 l 2,64,65
 1946 6 1946 6 1944.5 3 c 128,-1,66
 1943 0 1943 0 1938 0 c 2,67,-1
 1280 0 l 2,68,69
 1272 0 1272 0 1272 8 c 2,70,-1
 1272 52 l 2,71,72
 1272 60 1272 60 1280 60 c 0,73,74
 1304 60 1304 60 1334.5 62.5 c 128,-1,75
 1365 65 1365 65 1393 74 c 128,-1,76
 1421 83 1421 83 1440 100.5 c 128,-1,77
 1459 118 1459 118 1459 147 c 1,78,-1
 1413 964 l 2,79,80
 1412 974 1412 974 1408 974 c 256,81,82
 1404 974 1404 974 1400 965 c 2,83,-1
 962 17 l 2,84,85
 957 6 957 6 948.5 3 c 128,-1,86
 940 0 940 0 919 0 c 0,87,88
 883 0 883 0 865.5 2 c 128,-1,89
 848 4 848 4 842 18 c 2,90,-1
 416 957 l 2,91,92
 413 964 413 964 411.5 967.5 c 128,-1,93
 410 971 410 971 406 971 c 0,94,95
 399 971 399 971 399 958 c 0,96,97
 399 928 399 928 396 870 c 128,-1,98
 393 812 393 812 388 739.5 c 128,-1,99
 383 667 383 667 378 586 c 128,-1,100
 373 505 373 505 368 429 c 128,-1,101
 363 353 363 353 360 287.5 c 128,-1,102
 357 222 357 222 357 180 c 2,103,-1
 357 139 l 1,104,105
 361 120 361 120 377 105 c 128,-1,106
 393 90 393 90 417 80 c 128,-1,107
 441 70 441 70 470 65 c 128,-1,108
 499 60 499 60 531 60 c 0,109,110
 536 60 536 60 536.5 57 c 128,-1,111
 537 54 537 54 537 52 c 2,112,-1
 537 8 l 2,113,114
 537 0 537 0 531 0 c 2,115,-1
 34 0 l 2,116,117
 26 0 26 0 26 8 c 2,118,-1
 26 52 l 2,0,1
EndSplineSet
EndChar

StartChar: N
Encoding: 78 78 49
Width: 1777
Flags: W
LayerCount: 2
Fore
SplineSet
68 0 m 1,0,1
 66 0 66 0 63 2.5 c 128,-1,2
 60 5 60 5 60 8 c 2,3,-1
 60 52 l 2,4,5
 60 60 60 60 68 60 c 0,6,7
 79 60 79 60 93 60 c 128,-1,8
 107 60 107 60 120.5 61 c 128,-1,9
 134 62 134 62 145 63 c 128,-1,10
 156 64 156 64 162 67 c 0,11,12
 187 79 187 79 203 99 c 128,-1,13
 219 119 219 119 227.5 145 c 128,-1,14
 236 171 236 171 239 202 c 128,-1,15
 242 233 242 233 242 268 c 2,16,-1
 242 1267 l 2,17,18
 242 1294 242 1294 220.5 1310.5 c 128,-1,19
 199 1327 199 1327 170.5 1335.5 c 128,-1,20
 142 1344 142 1344 112.5 1347 c 128,-1,21
 83 1350 83 1350 68 1350 c 0,22,23
 63 1350 63 1350 61.5 1353 c 128,-1,24
 60 1356 60 1356 60 1358 c 2,25,-1
 60 1402 l 2,26,27
 60 1404 60 1404 61.5 1407 c 128,-1,28
 63 1410 63 1410 68 1410 c 2,29,-1
 521 1410 l 1,30,-1
 1383 456 l 2,31,32
 1388 451 1388 451 1390 448.5 c 128,-1,33
 1392 446 1392 446 1395 446 c 0,34,35
 1399 446 1399 446 1400 449 c 128,-1,36
 1401 452 1401 452 1401 455 c 2,37,-1
 1401 1049 l 2,38,39
 1401 1148 1401 1148 1394 1207.5 c 128,-1,40
 1387 1267 1387 1267 1368 1298.5 c 128,-1,41
 1349 1330 1349 1330 1317 1340 c 128,-1,42
 1285 1350 1285 1350 1235 1350 c 2,43,-1
 1184 1350 l 2,44,45
 1179 1350 1179 1350 1177.5 1353 c 128,-1,46
 1176 1356 1176 1356 1176 1358 c 2,47,-1
 1176 1402 l 2,48,49
 1176 1404 1176 1404 1177.5 1407 c 128,-1,50
 1179 1410 1179 1410 1184 1410 c 2,51,-1
 1734 1410 l 2,52,53
 1740 1410 1740 1410 1741 1407 c 128,-1,54
 1742 1404 1742 1404 1742 1402 c 2,55,-1
 1742 1358 l 2,56,57
 1742 1356 1742 1356 1740.5 1353 c 128,-1,58
 1739 1350 1739 1350 1734 1350 c 0,59,60
 1714 1350 1714 1350 1682.5 1342 c 128,-1,61
 1651 1334 1651 1334 1621 1319 c 128,-1,62
 1591 1304 1591 1304 1569.5 1282 c 128,-1,63
 1548 1260 1548 1260 1548 1232 c 2,64,-1
 1548 49 l 2,65,66
 1548 32 1548 32 1540 20.5 c 128,-1,67
 1532 9 1532 9 1519.5 2 c 128,-1,68
 1507 -5 1507 -5 1492.5 -8.5 c 128,-1,69
 1478 -12 1478 -12 1466 -12 c 0,70,71
 1446 -12 1446 -12 1419.5 -3.5 c 128,-1,72
 1393 5 1393 5 1367 34 c 2,73,-1
 423 1081 l 2,74,75
 416 1088 416 1088 413 1089.5 c 128,-1,76
 410 1091 410 1091 405 1091 c 256,77,78
 400 1091 400 1091 400 1081 c 2,79,-1
 400 188 l 2,80,81
 400 160 400 160 413.5 139.5 c 128,-1,82
 427 119 427 119 448 104.5 c 128,-1,83
 469 90 469 90 494.5 81.5 c 128,-1,84
 520 73 520 73 544.5 68 c 128,-1,85
 569 63 569 63 588.5 61.5 c 128,-1,86
 608 60 608 60 618 60 c 0,87,88
 623 60 623 60 625 56 c 0,89,90
 626 54 626 54 626 52 c 2,91,-1
 626 8 l 2,92,93
 626 6 626 6 624.5 3 c 128,-1,94
 623 0 623 0 618 0 c 2,95,-1
 68 0 l 1,96,-1
 68 0 l 1,0,1
EndSplineSet
EndChar

StartChar: O
Encoding: 79 79 50
Width: 1826
Flags: W
LayerCount: 2
Fore
SplineSet
902 -26 m 0,0,1
 867 -26 867 -26 814.5 -20 c 128,-1,2
 762 -14 762 -14 699.5 2 c 128,-1,3
 637 18 637 18 569 44 c 128,-1,4
 501 70 501 70 435.5 110.5 c 128,-1,5
 370 151 370 151 311 206.5 c 128,-1,6
 252 262 252 262 207.5 335.5 c 128,-1,7
 163 409 163 409 136.5 503 c 128,-1,8
 110 597 110 597 110 714 c 0,9,10
 110 818 110 818 138.5 913 c 128,-1,11
 167 1008 167 1008 220 1090 c 128,-1,12
 273 1172 273 1172 348.5 1239 c 128,-1,13
 424 1306 424 1306 517 1353 c 128,-1,14
 610 1400 610 1400 719 1426 c 128,-1,15
 828 1452 828 1452 948 1452 c 0,16,17
 1052 1452 1052 1452 1149.5 1426.5 c 128,-1,18
 1247 1401 1247 1401 1332 1354.5 c 128,-1,19
 1417 1308 1417 1308 1487.5 1243 c 128,-1,20
 1558 1178 1558 1178 1609 1098 c 128,-1,21
 1660 1018 1660 1018 1688 925.5 c 128,-1,22
 1716 833 1716 833 1716 733 c 0,23,24
 1716 639 1716 639 1689 546.5 c 128,-1,25
 1662 454 1662 454 1611 369.5 c 128,-1,26
 1560 285 1560 285 1487.5 213 c 128,-1,27
 1415 141 1415 141 1325 87.5 c 128,-1,28
 1235 34 1235 34 1128 4 c 128,-1,29
 1021 -26 1021 -26 902 -26 c 0,0,1
404 751 m 0,30,31
 404 670 404 670 420.5 589 c 128,-1,32
 437 508 437 508 469 433 c 128,-1,33
 501 358 501 358 548 292.5 c 128,-1,34
 595 227 595 227 655 178.5 c 128,-1,35
 715 130 715 130 788.5 102.5 c 128,-1,36
 862 75 862 75 948 75 c 0,37,38
 1069 75 1069 75 1158 126.5 c 128,-1,39
 1247 178 1247 178 1305.5 263 c 128,-1,40
 1364 348 1364 348 1392.5 458.5 c 128,-1,41
 1421 569 1421 569 1421 687 c 0,42,43
 1421 773 1421 773 1404.5 855.5 c 128,-1,44
 1388 938 1388 938 1356.5 1012.5 c 128,-1,45
 1325 1087 1325 1087 1278.5 1149.5 c 128,-1,46
 1232 1212 1232 1212 1171.5 1258 c 128,-1,47
 1111 1304 1111 1304 1037.5 1329.5 c 128,-1,48
 964 1355 964 1355 878 1355 c 0,49,50
 801 1355 801 1355 736 1331 c 128,-1,51
 671 1307 671 1307 618.5 1265.5 c 128,-1,52
 566 1224 566 1224 526 1166.5 c 128,-1,53
 486 1109 486 1109 459 1042 c 128,-1,54
 432 975 432 975 418 900.5 c 128,-1,55
 404 826 404 826 404 751 c 0,30,31
EndSplineSet
EndChar

StartChar: P
Encoding: 80 80 51
Width: 1301
Flags: W
LayerCount: 2
Fore
SplineSet
100 0 m 2,0,1
 92 0 92 0 92 10 c 2,2,-1
 92 52 l 2,3,4
 92 53 92 53 93 56.5 c 128,-1,5
 94 60 94 60 100 60 c 0,6,7
 134 60 134 60 163.5 70 c 128,-1,8
 193 80 193 80 215 97 c 128,-1,9
 237 114 237 114 250 138 c 128,-1,10
 263 162 263 162 263 190 c 2,11,-1
 263 1206 l 2,12,13
 263 1256 263 1256 253 1284.5 c 128,-1,14
 243 1313 243 1313 223.5 1327.5 c 128,-1,15
 204 1342 204 1342 174.5 1345.5 c 128,-1,16
 145 1349 145 1349 106 1349 c 2,17,-1
 61 1349 l 2,18,19
 50 1349 50 1349 45 1361.5 c 128,-1,20
 40 1374 40 1374 40 1383 c 0,21,22
 40 1388 40 1388 42 1398 c 128,-1,23
 44 1408 44 1408 53 1410 c 0,24,25
 54 1410 54 1410 59.5 1410 c 128,-1,26
 65 1410 65 1410 79 1410.5 c 128,-1,27
 93 1411 93 1411 116.5 1411.5 c 128,-1,28
 140 1412 140 1412 178 1413 c 0,29,30
 233 1414 233 1414 295.5 1416 c 128,-1,31
 358 1418 358 1418 422 1420 c 128,-1,32
 486 1422 486 1422 548.5 1423.5 c 128,-1,33
 611 1425 611 1425 666 1425 c 2,34,-1
 807 1425 l 2,35,36
 887 1425 887 1425 963 1398 c 128,-1,37
 1039 1371 1039 1371 1098 1318.5 c 128,-1,38
 1157 1266 1157 1266 1193 1188 c 128,-1,39
 1229 1110 1229 1110 1229 1008 c 0,40,41
 1229 944 1229 944 1210 885.5 c 128,-1,42
 1191 827 1191 827 1158.5 778 c 128,-1,43
 1126 729 1126 729 1083.5 689.5 c 128,-1,44
 1041 650 1041 650 994.5 623 c 128,-1,45
 948 596 948 596 900 582.5 c 0,46,47
 858.193548387 570.741935484 858.193548387 570.741935484 820.938605619 570.741935484 c 0,48,49
 815.419354839 570.741935484 815.419354839 570.741935484 810 571 c 2,50,-1
 571 583 l 2,51,52
 570 583 570 583 563 583 c 128,-1,53
 556 583 556 583 553 581 c 256,54,55
 550 579 550 579 549 577 c 128,-1,56
 548 575 548 575 548 569 c 2,57,-1
 548 193 l 2,58,59
 548 154 548 154 569.5 128.5 c 128,-1,60
 591 103 591 103 625.5 88 c 128,-1,61
 660 73 660 73 703 66.5 c 128,-1,62
 746 60 746 60 788 60 c 0,63,64
 794 60 794 60 795 57 c 128,-1,65
 796 54 796 54 796 52 c 2,66,-1
 796 8 l 2,67,68
 796 6 796 6 794.5 3 c 128,-1,69
 793 0 793 0 788 0 c 2,70,-1
 100 0 l 2,0,1
550 696 m 2,71,72
 551 688 551 688 554.5 681.5 c 128,-1,73
 558 675 558 675 569 674 c 0,74,75
 573 674 573 674 583.5 673 c 128,-1,76
 594 672 594 672 608 671 c 128,-1,77
 622 670 622 670 638.5 669 c 128,-1,78
 655 668 655 668 671 668 c 0,79,80
 738 668 738 668 788.5 695 c 128,-1,81
 839 722 839 722 872.5 770.5 c 128,-1,82
 906 819 906 819 922.5 885.5 c 128,-1,83
 939 952 939 952 939 1032 c 0,84,85
 939 1197 939 1197 873 1274 c 128,-1,86
 807 1351 807 1351 679 1351 c 0,87,88
 665 1351 665 1351 653 1350.5 c 128,-1,89
 641 1350 641 1350 629 1349.5 c 128,-1,90
 617 1349 617 1349 603.5 1348.5 c 128,-1,91
 590 1348 590 1348 573 1347 c 0,92,93
 567 1347 567 1347 557.5 1344.5 c 128,-1,94
 548 1342 548 1342 548 1331 c 2,95,-1
 548 726 l 1,96,-1
 550 696 l 2,71,72
EndSplineSet
EndChar

StartChar: Q
Encoding: 81 81 52
Width: 1822
Flags: W
LayerCount: 2
Fore
SplineSet
880 -26 m 0,0,1
 860 -24 860 -24 838 -22 c 128,-1,2
 816 -20 816 -20 796 -16 c 0,3,4
 657 9 657 9 532.5 72.5 c 128,-1,5
 408 136 408 136 314 230.5 c 128,-1,6
 220 325 220 325 165 446 c 128,-1,7
 110 567 110 567 110 707 c 0,8,9
 110 872 110 872 172 1008.5 c 128,-1,10
 234 1145 234 1145 342.5 1243.5 c 128,-1,11
 451 1342 451 1342 599.5 1396 c 128,-1,12
 748 1450 748 1450 922 1450 c 0,13,14
 1033 1450 1033 1450 1134.5 1425.5 c 128,-1,15
 1236 1401 1236 1401 1323.5 1356 c 128,-1,16
 1411 1311 1411 1311 1483 1245.5 c 128,-1,17
 1555 1180 1555 1180 1605.5 1099 c 128,-1,18
 1656 1018 1656 1018 1684 921.5 c 128,-1,19
 1712 825 1712 825 1712 717 c 0,20,21
 1712 598 1712 598 1672 493 c 128,-1,22
 1632 388 1632 388 1561.5 299 c 128,-1,23
 1491 210 1491 210 1395.5 138 c 128,-1,24
 1300 66 1300 66 1190 13 c 1,25,26
 1233 -19 1233 -19 1275.5 -51 c 128,-1,27
 1318 -83 1318 -83 1355 -111.5 c 128,-1,28
 1392 -140 1392 -140 1421.5 -163 c 128,-1,29
 1451 -186 1451 -186 1469 -201 c 0,30,31
 1479 -209 1479 -209 1482.5 -212 c 128,-1,32
 1486 -215 1486 -215 1488 -216 c 0,33,34
 1530 -250 1530 -250 1570.5 -279 c 128,-1,35
 1611 -308 1611 -308 1646 -322 c 0,36,37
 1651 -324 1651 -324 1655.5 -325 c 128,-1,38
 1660 -326 1660 -326 1667 -328 c 1,39,-1
 1666 -328 l 1,40,41
 1681 -331 1681 -331 1698 -335.5 c 128,-1,42
 1715 -340 1715 -340 1729.5 -345.5 c 128,-1,43
 1744 -351 1744 -351 1753 -356.5 c 128,-1,44
 1762 -362 1762 -362 1762 -368 c 0,45,46
 1762 -387 1762 -387 1746.5 -397.5 c 128,-1,47
 1731 -408 1731 -408 1707 -412.5 c 128,-1,48
 1683 -417 1683 -417 1654.5 -418 c 128,-1,49
 1626 -419 1626 -419 1601 -419 c 0,50,51
 1519 -419 1519 -419 1453 -400 c 128,-1,52
 1387 -381 1387 -381 1324 -344 c 0,53,54
 1277 -316 1277 -316 1236 -287.5 c 128,-1,55
 1195 -259 1195 -259 1157.5 -230 c 128,-1,56
 1120 -201 1120 -201 1084 -170.5 c 128,-1,57
 1048 -140 1048 -140 1010 -106 c 0,58,59
 978 -77 978 -77 946.5 -53.5 c 128,-1,60
 915 -30 915 -30 880 -26 c 0,0,1
402 747 m 0,61,62
 402 663 402 663 419.5 580.5 c 128,-1,63
 437 498 437 498 470.5 423 c 128,-1,64
 504 348 504 348 552.5 284.5 c 128,-1,65
 601 221 601 221 663 174.5 c 128,-1,66
 725 128 725 128 800 101.5 c 128,-1,67
 875 75 875 75 961 75 c 0,68,69
 1058 75 1058 75 1143 118 c 128,-1,70
 1228 161 1228 161 1290.5 240 c 128,-1,71
 1353 319 1353 319 1389 431 c 128,-1,72
 1425 543 1425 543 1425 680 c 0,73,74
 1425 805 1425 805 1391 922.5 c 128,-1,75
 1357 1040 1357 1040 1289.5 1132.5 c 128,-1,76
 1222 1225 1222 1225 1120.5 1284.5 c 128,-1,77
 1019 1344 1019 1344 884 1355 c 1,78,79
 773 1355 773 1355 683.5 1306 c 128,-1,80
 594 1257 594 1257 531.5 1173.5 c 128,-1,81
 469 1090 469 1090 435.5 980 c 128,-1,82
 402 870 402 870 402 747 c 0,61,62
EndSplineSet
EndChar

StartChar: R
Encoding: 82 82 53
Width: 1509
Flags: W
LayerCount: 2
Fore
SplineSet
44 52 m 2,0,1
 44 53 44 53 45 56.5 c 128,-1,2
 46 60 46 60 52 60 c 256,3,4
 58 60 58 60 71 62 c 128,-1,5
 84 64 84 64 98 66 c 128,-1,6
 112 68 112 68 124 70.5 c 128,-1,7
 136 73 136 73 141 74 c 0,8,9
 198 87 198 87 220.5 116.5 c 128,-1,10
 243 146 243 146 243 190 c 2,11,-1
 243 1206 l 2,12,13
 243 1256 243 1256 222 1285 c 128,-1,14
 201 1314 201 1314 173.5 1328.5 c 128,-1,15
 146 1343 146 1343 120.5 1346.5 c 128,-1,16
 95 1350 95 1350 86 1350 c 2,17,-1
 48 1350 l 2,18,19
 43 1350 43 1350 41.5 1353 c 128,-1,20
 40 1356 40 1356 40 1358 c 2,21,-1
 40 1402 l 2,22,23
 40 1404 40 1404 41 1406.5 c 128,-1,24
 42 1409 42 1409 48 1410 c 0,25,26
 49 1410 49 1410 52.5 1410 c 128,-1,27
 56 1410 56 1410 67 1410.5 c 128,-1,28
 78 1411 78 1411 99 1411.5 c 128,-1,29
 120 1412 120 1412 158 1413 c 0,30,31
 213 1414 213 1414 275.5 1416 c 128,-1,32
 338 1418 338 1418 402 1420 c 128,-1,33
 466 1422 466 1422 528.5 1423.5 c 128,-1,34
 591 1425 591 1425 646 1425 c 2,35,-1
 747 1425 l 2,36,37
 826 1425 826 1425 908 1398 c 128,-1,38
 990 1371 990 1371 1056.5 1318.5 c 128,-1,39
 1123 1266 1123 1266 1165.5 1188 c 128,-1,40
 1208 1110 1208 1110 1208 1008 c 0,41,42
 1208 942 1208 942 1190 890.5 c 128,-1,43
 1172 839 1172 839 1140.5 799.5 c 128,-1,44
 1109 760 1109 760 1065.5 730 c 128,-1,45
 1022 700 1022 700 971 677 c 1,46,-1
 1274 197 l 2,47,48
 1313 135 1313 135 1365 84.5 c 128,-1,49
 1417 34 1417 34 1486 14 c 0,50,51
 1494 12 1494 12 1495.5 8.5 c 128,-1,52
 1497 5 1497 5 1497 0 c 0,53,54
 1497 -15 1497 -15 1489 -20 c 128,-1,55
 1481 -25 1481 -25 1464 -25 c 0,56,57
 1422 -25 1422 -25 1368.5 -19.5 c 128,-1,58
 1315 -14 1315 -14 1261 -1.5 c 128,-1,59
 1207 11 1207 11 1158.5 31 c 128,-1,60
 1110 51 1110 51 1077 81 c 0,61,62
 1045 109 1045 109 1012 152 c 128,-1,63
 979 195 979 195 945.5 244.5 c 128,-1,64
 912 294 912 294 879.5 347.5 c 128,-1,65
 847 401 847 401 816.5 452 c 128,-1,66
 786 503 786 503 758 547 c 128,-1,67
 730 591 730 591 707 622 c 1,68,-1
 551 633 l 2,69,70
 550 633 550 633 543 633 c 128,-1,71
 536 633 536 633 533 631 c 256,72,73
 530 629 530 629 529 627 c 128,-1,74
 528 625 528 625 528 619 c 2,75,-1
 528 193 l 2,76,77
 528 166 528 166 535 146 c 128,-1,78
 542 126 542 126 558.5 111.5 c 128,-1,79
 575 97 575 97 601.5 88 c 128,-1,80
 628 79 628 79 666 74 c 0,81,82
 672 73 672 73 683.5 71 c 128,-1,83
 695 69 695 69 708.5 66.5 c 128,-1,84
 722 64 722 64 735 62 c 128,-1,85
 748 60 748 60 757 60 c 0,86,87
 763 60 763 60 764 57 c 128,-1,88
 765 54 765 54 765 52 c 2,89,-1
 765 8 l 2,90,91
 765 6 765 6 763.5 3 c 128,-1,92
 762 0 762 0 757 0 c 2,93,-1
 52 0 l 2,94,95
 47 0 47 0 45.5 14 c 128,-1,96
 44 28 44 28 44 40 c 2,97,-1
 44 52 l 2,0,1
530 733 m 2,98,99
 531 725 531 725 534.5 718.5 c 128,-1,100
 538 712 538 712 549 711 c 0,101,102
 558 710 558 710 576 707.5 c 128,-1,103
 594 705 594 705 626 705 c 0,104,105
 714 705 714 705 771 732 c 128,-1,106
 828 759 828 759 861 804.5 c 128,-1,107
 894 850 894 850 906.5 909 c 128,-1,108
 919 968 919 968 919 1032 c 0,109,110
 919 1099 919 1099 898 1159 c 128,-1,111
 877 1219 877 1219 839.5 1263 c 128,-1,112
 802 1307 802 1307 749.5 1333 c 128,-1,113
 697 1359 697 1359 634 1359 c 0,114,115
 620 1359 620 1359 612 1358.5 c 128,-1,116
 604 1358 604 1358 596.5 1357.5 c 128,-1,117
 589 1357 589 1357 579.5 1356.5 c 128,-1,118
 570 1356 570 1356 553 1355 c 0,119,120
 547 1355 547 1355 537.5 1352.5 c 128,-1,121
 528 1350 528 1350 528 1339 c 2,122,-1
 528 763 l 1,123,-1
 530 733 l 2,98,99
EndSplineSet
EndChar

StartChar: S
Encoding: 83 83 54
Width: 1087
Flags: W
LayerCount: 2
Fore
SplineSet
136 27 m 1,0,1
 123 27 123 27 120 48 c 0,2,3
 109 142 109 142 103 194 c 128,-1,4
 97 246 97 246 94.5 272 c 128,-1,5
 92 298 92 298 91.5 305.5 c 128,-1,6
 91 313 91 313 91 316 c 0,7,8
 91 327 91 327 101 340 c 128,-1,9
 111 353 111 353 125 353 c 0,10,11
 135 353 135 353 146.5 341 c 128,-1,12
 158 329 158 329 168.5 313 c 128,-1,13
 179 297 179 297 186.5 281 c 128,-1,14
 194 265 194 265 196 258 c 1,15,16
 222 203 222 203 252.5 165.5 c 128,-1,17
 283 128 283 128 322 105.5 c 128,-1,18
 361 83 361 83 410 73 c 128,-1,19
 459 63 459 63 522 63 c 0,20,21
 629 63 629 63 688.5 114 c 128,-1,22
 748 165 748 165 748 278 c 0,23,24
 748 343 748 343 719.5 396 c 128,-1,25
 691 449 691 449 645 494.5 c 128,-1,26
 599 540 599 540 540 581 c 128,-1,27
 481 622 481 622 419 664 c 128,-1,28
 357 706 357 706 298 751.5 c 128,-1,29
 239 797 239 797 193 852 c 128,-1,30
 147 907 147 907 118.5 974 c 128,-1,31
 90 1041 90 1041 90 1125 c 0,32,33
 90 1176 90 1176 108.5 1220 c 128,-1,34
 127 1264 127 1264 158 1300 c 128,-1,35
 189 1336 189 1336 230.5 1364.5 c 128,-1,36
 272 1393 272 1393 319 1412.5 c 128,-1,37
 366 1432 366 1432 414.5 1442 c 128,-1,38
 463 1452 463 1452 509 1452 c 0,39,40
 546 1452 546 1452 583.5 1445.5 c 128,-1,41
 621 1439 621 1439 657.5 1430 c 128,-1,42
 694 1421 694 1421 731 1410.5 c 128,-1,43
 768 1400 768 1400 804 1391 c 1,44,-1
 870 1397 l 2,45,46
 879 1397 879 1397 881.5 1389.5 c 128,-1,47
 884 1382 884 1382 885 1376 c 2,48,-1
 914 1141 l 2,49,50
 914 1136 914 1136 901 1134 c 128,-1,51
 888 1132 888 1132 881 1132 c 0,52,53
 875 1132 875 1132 863 1133.5 c 128,-1,54
 851 1135 851 1135 849 1137 c 0,55,56
 846 1140 846 1140 841.5 1149.5 c 128,-1,57
 837 1159 837 1159 832 1170.5 c 128,-1,58
 827 1182 827 1182 821.5 1194 c 128,-1,59
 816 1206 816 1206 810 1215 c 0,60,61
 762 1289 762 1289 687 1325.5 c 128,-1,62
 612 1362 612 1362 522 1362 c 0,63,64
 483 1362 483 1362 449 1353 c 128,-1,65
 415 1344 415 1344 390 1324.5 c 128,-1,66
 365 1305 365 1305 350.5 1275 c 128,-1,67
 336 1245 336 1245 336 1203 c 0,68,69
 336 1142 336 1142 364.5 1092.5 c 128,-1,70
 393 1043 393 1043 439.5 999.5 c 128,-1,71
 486 956 486 956 545.5 915 c 128,-1,72
 605 874 605 874 666.5 831.5 c 128,-1,73
 728 789 728 789 787.5 741 c 128,-1,74
 847 693 847 693 893.5 635 c 128,-1,75
 940 577 940 577 968.5 506 c 128,-1,76
 997 435 997 435 997 346 c 0,77,78
 997 287 997 287 976.5 236 c 128,-1,79
 956 185 956 185 921 143.5 c 128,-1,80
 886 102 886 102 839 70 c 128,-1,81
 792 38 792 38 738.5 16.5 c 128,-1,82
 685 -5 685 -5 628.5 -16 c 128,-1,83
 572 -27 572 -27 518 -27 c 0,84,85
 450 -27 450 -27 399.5 -17 c 128,-1,86
 349 -7 349 -7 312.5 5.5 c 128,-1,87
 276 18 276 18 251 28 c 128,-1,88
 226 38 226 38 209 38 c 0,89,90
 203 38 203 38 200 37 c 2,91,-1
 136 27 l 1,0,1
EndSplineSet
EndChar

StartChar: T
Encoding: 84 84 55
Width: 1502
Flags: W
LayerCount: 2
Fore
SplineSet
608 1257 m 1,0,1
 608 1278 608 1278 599.5 1280.5 c 128,-1,2
 591 1283 591 1283 579 1285 c 1,3,-1
 240 1285 l 1,4,5
 203 1277 203 1277 182 1255.5 c 128,-1,6
 161 1234 161 1234 149 1205 c 128,-1,7
 137 1176 137 1176 131 1142.5 c 128,-1,8
 125 1109 125 1109 118 1078 c 0,9,10
 116 1069 116 1069 114 1056.5 c 128,-1,11
 112 1044 112 1044 110 1042 c 0,12,13
 108 1039 108 1039 103 1039 c 2,14,-1
 70 1039 l 2,15,16
 64 1039 64 1039 64 1043 c 2,17,-1
 64 1076 l 1,18,-1
 101 1418 l 2,19,20
 103 1429 103 1429 110 1439 c 128,-1,21
 117 1449 117 1449 132 1449 c 0,22,23
 139 1449 139 1449 145.5 1445 c 128,-1,24
 152 1441 152 1441 158 1435.5 c 128,-1,25
 164 1430 164 1430 169.5 1425 c 128,-1,26
 175 1420 175 1420 181 1418 c 0,27,28
 193 1413 193 1413 203.5 1411.5 c 128,-1,29
 214 1410 214 1410 227 1410 c 2,30,-1
 1275 1410 l 2,31,32
 1288 1410 1288 1410 1298.5 1411.5 c 128,-1,33
 1309 1413 1309 1413 1321 1418 c 0,34,35
 1327 1420 1327 1420 1332.5 1425 c 128,-1,36
 1338 1430 1338 1430 1344 1435.5 c 128,-1,37
 1350 1441 1350 1441 1356.5 1445 c 128,-1,38
 1363 1449 1363 1449 1370 1449 c 0,39,40
 1385 1449 1385 1449 1392 1439 c 128,-1,41
 1399 1429 1399 1429 1401 1418 c 2,42,-1
 1438 1076 l 1,43,-1
 1438 1043 l 2,44,45
 1438 1039 1438 1039 1432 1039 c 2,46,-1
 1399 1039 l 2,47,48
 1394 1039 1394 1039 1392 1042 c 0,49,50
 1390 1044 1390 1044 1388 1056.5 c 128,-1,51
 1386 1069 1386 1069 1384 1078 c 0,52,53
 1377 1109 1377 1109 1371 1142.5 c 128,-1,54
 1365 1176 1365 1176 1353 1205 c 128,-1,55
 1341 1234 1341 1234 1320 1255.5 c 128,-1,56
 1299 1277 1299 1277 1262 1285 c 1,57,-1
 922 1285 l 1,58,59
 910 1283 910 1283 901.5 1280.5 c 128,-1,60
 893 1278 893 1278 893 1257 c 2,61,-1
 893 195 l 2,62,63
 893 165 893 165 908 141.5 c 128,-1,64
 923 118 923 118 948.5 100 c 128,-1,65
 974 82 974 82 1008.5 71 c 128,-1,66
 1043 60 1043 60 1082 56 c 0,67,68
 1093 55 1093 55 1110 55 c 128,-1,69
 1127 55 1127 55 1139 55 c 0,70,71
 1144 55 1144 55 1145.5 52 c 128,-1,72
 1147 49 1147 49 1147 47 c 2,73,-1
 1147 8 l 2,74,75
 1147 6 1147 6 1145.5 3 c 128,-1,76
 1144 0 1144 0 1139 0 c 2,77,-1
 362 0 l 2,78,79
 357 0 357 0 355.5 3 c 128,-1,80
 354 6 354 6 354 8 c 2,81,-1
 354 47 l 2,82,83
 354 49 354 49 355.5 52 c 128,-1,84
 357 55 357 55 362 55 c 0,85,86
 373 55 373 55 390.5 55 c 128,-1,87
 408 55 408 55 419 56 c 0,88,89
 458 60 458 60 492.5 71 c 128,-1,90
 527 82 527 82 552.5 100 c 128,-1,91
 578 118 578 118 593 141.5 c 128,-1,92
 608 165 608 165 608 195 c 2,93,-1
 608 1257 l 1,94,-1
 608 1257 l 1,0,1
EndSplineSet
EndChar

StartChar: U
Encoding: 85 85 56
Width: 1672
Flags: W
LayerCount: 2
Fore
SplineSet
211 1235 m 1,0,1
 211 1264 211 1264 197.5 1286.5 c 128,-1,2
 184 1309 184 1309 161 1324 c 128,-1,3
 138 1339 138 1339 108 1347 c 128,-1,4
 78 1355 78 1355 44 1355 c 0,5,6
 36 1355 36 1355 36 1363 c 2,7,-1
 36 1402 l 2,8,9
 36 1410 36 1410 43 1410 c 2,10,-1
 675 1410 l 2,11,12
 680 1410 680 1410 681.5 1407 c 128,-1,13
 683 1404 683 1404 683 1402 c 2,14,-1
 683 1363 l 2,15,16
 683 1361 683 1361 681.5 1358 c 128,-1,17
 680 1355 680 1355 675 1355 c 0,18,19
 645 1355 645 1355 613.5 1351 c 128,-1,20
 582 1347 582 1347 555.5 1333 c 128,-1,21
 529 1319 529 1319 512.5 1292.5 c 128,-1,22
 496 1266 496 1266 496 1221 c 2,23,-1
 496 520 l 2,24,25
 496 320 496 320 598 210.5 c 128,-1,26
 700 101 700 101 903 101 c 0,27,28
 987 101 987 101 1064 124.5 c 128,-1,29
 1141 148 1141 148 1200 197 c 128,-1,30
 1259 246 1259 246 1294 322 c 128,-1,31
 1329 398 1329 398 1329 503 c 2,32,-1
 1329 1124 l 2,33,34
 1329 1158 1329 1158 1326.5 1194 c 128,-1,35
 1324 1230 1324 1230 1310 1262 c 128,-1,36
 1296 1294 1296 1294 1266 1317.5 c 128,-1,37
 1236 1341 1236 1341 1181 1350 c 0,38,39
 1156 1354 1156 1354 1139.5 1354.5 c 128,-1,40
 1123 1355 1123 1355 1118 1355 c 0,41,42
 1110 1355 1110 1355 1110 1363 c 2,43,-1
 1110 1402 l 2,44,45
 1110 1410 1110 1410 1118 1410 c 2,46,-1
 1640 1410 l 2,47,48
 1645 1410 1645 1410 1646.5 1407 c 128,-1,49
 1648 1404 1648 1404 1648 1402 c 2,50,-1
 1648 1363 l 2,51,52
 1648 1361 1648 1361 1646 1358 c 128,-1,53
 1644 1355 1644 1355 1640 1355 c 0,54,55
 1604 1355 1604 1355 1576.5 1349.5 c 128,-1,56
 1549 1344 1549 1344 1535 1338 c 0,57,58
 1518 1331 1518 1331 1504 1316.5 c 128,-1,59
 1490 1302 1490 1302 1480.5 1285.5 c 128,-1,60
 1471 1269 1471 1269 1466 1251.5 c 128,-1,61
 1461 1234 1461 1234 1461 1221 c 2,62,-1
 1461 581 l 2,63,64
 1461 440 1461 440 1424 327.5 c 128,-1,65
 1387 215 1387 215 1312.5 136.5 c 128,-1,66
 1238 58 1238 58 1125 15.5 c 128,-1,67
 1012 -27 1012 -27 861 -27 c 0,68,69
 789 -27 789 -27 712.5 -16 c 128,-1,70
 636 -5 636 -5 563.5 19 c 128,-1,71
 491 43 491 43 427 81 c 128,-1,72
 363 119 363 119 315 172 c 128,-1,73
 267 225 267 225 239 294 c 128,-1,74
 211 363 211 363 211 450 c 2,75,-1
 211 1235 l 1,76,-1
 211 1235 l 1,0,1
EndSplineSet
EndChar

StartChar: V
Encoding: 86 86 57
Width: 1595
Flags: W
LayerCount: 2
Fore
SplineSet
727 -27 m 1,0,1
 703 -27 703 -27 696 -5 c 1,2,-1
 175 1257 l 2,3,4
 166 1279 166 1279 151.5 1294.5 c 128,-1,5
 137 1310 137 1310 122 1320.5 c 128,-1,6
 107 1331 107 1331 93 1336.5 c 128,-1,7
 79 1342 79 1342 70 1344 c 0,8,9
 63 1346 63 1346 54 1348 c 128,-1,10
 45 1350 45 1350 36.5 1351.5 c 128,-1,11
 28 1353 28 1353 21 1354 c 128,-1,12
 14 1355 14 1355 13 1355 c 0,13,14
 5 1355 5 1355 5 1363 c 2,15,-1
 5 1402 l 2,16,17
 5 1410 5 1410 13 1410 c 2,18,-1
 693 1410 l 2,19,20
 699 1410 699 1410 700 1407.5 c 128,-1,21
 701 1405 701 1405 701 1402 c 2,22,-1
 701 1363 l 2,23,24
 701 1361 701 1361 699.5 1358 c 128,-1,25
 698 1355 698 1355 693 1355 c 2,26,-1
 678 1355 l 1,27,28
 653 1351 653 1351 621.5 1347 c 128,-1,29
 590 1343 590 1343 562.5 1332.5 c 128,-1,30
 535 1322 535 1322 516.5 1301.5 c 128,-1,31
 498 1281 498 1281 498 1245 c 0,32,33
 498 1232 498 1232 502.5 1215 c 128,-1,34
 507 1198 507 1198 512 1187 c 2,35,-1
 869 321 l 2,36,37
 870 318 870 318 871.5 316.5 c 128,-1,38
 873 315 873 315 875 313 c 256,39,40
 877 311 877 311 879 311 c 0,41,42
 886 311 886 311 890 322 c 2,43,-1
 1218 1208 l 2,44,45
 1222 1219 1222 1219 1226.5 1228.5 c 128,-1,46
 1231 1238 1231 1238 1231 1248 c 0,47,48
 1231 1283 1231 1283 1208 1308.5 c 128,-1,49
 1185 1334 1185 1334 1144 1341 c 0,50,51
 1138 1342 1138 1342 1124.5 1344 c 128,-1,52
 1111 1346 1111 1346 1096 1348.5 c 128,-1,53
 1081 1351 1081 1351 1067 1353 c 128,-1,54
 1053 1355 1053 1355 1047 1355 c 0,55,56
 1039 1355 1039 1355 1039 1363 c 2,57,-1
 1039 1402 l 2,58,59
 1039 1404 1039 1404 1040 1407 c 128,-1,60
 1041 1410 1041 1410 1047 1410 c 2,61,-1
 1582 1410 l 2,62,63
 1588 1410 1588 1410 1589 1407 c 128,-1,64
 1590 1404 1590 1404 1590 1402 c 2,65,-1
 1590 1363 l 2,66,67
 1590 1360 1590 1360 1589 1357.5 c 128,-1,68
 1588 1355 1588 1355 1582 1355 c 2,69,-1
 1545 1355 l 1,70,71
 1490 1344 1490 1344 1454.5 1312.5 c 128,-1,72
 1419 1281 1419 1281 1394.5 1238.5 c 128,-1,73
 1370 1196 1370 1196 1353 1147.5 c 128,-1,74
 1336 1099 1336 1099 1319 1054 c 2,75,-1
 932 8 l 2,76,77
 923 -17 923 -17 910 -22 c 128,-1,78
 897 -27 897 -27 874 -27 c 2,79,-1
 727 -27 l 1,80,-1
 727 -27 l 1,0,1
EndSplineSet
EndChar

StartChar: W
Encoding: 87 87 58
Width: 2352
Flags: W
LayerCount: 2
Fore
SplineSet
1448 -27 m 2,0,1
 1424 -27 1424 -27 1417 -5 c 1,2,-1
 1195 532 l 1,3,-1
 971 8 l 2,4,5
 960 -16 960 -16 948 -21.5 c 128,-1,6
 936 -27 936 -27 913 -27 c 2,7,-1
 768 -27 l 2,8,9
 756 -27 756 -27 749 -21.5 c 128,-1,10
 742 -16 742 -16 737 -4 c 2,11,-1
 219 1242 l 2,12,13
 208 1268 208 1268 187 1285.5 c 128,-1,14
 166 1303 166 1303 142.5 1313.5 c 128,-1,15
 119 1324 119 1324 97.5 1329.5 c 128,-1,16
 76 1335 76 1335 64 1337 c 0,17,18
 57 1338 57 1338 47 1340.5 c 128,-1,19
 37 1343 37 1343 27 1345 c 128,-1,20
 17 1347 17 1347 9.5 1348.5 c 128,-1,21
 2 1350 2 1350 0 1350 c 0,22,23
 -8 1350 -8 1350 -8 1358 c 2,24,-1
 -8 1402 l 2,25,26
 -8 1410 -8 1410 0 1410 c 2,27,-1
 660 1410 l 2,28,29
 666 1410 666 1410 667 1407.5 c 128,-1,30
 668 1405 668 1405 668 1402 c 2,31,-1
 668 1358 l 2,32,33
 668 1356 668 1356 666.5 1353 c 128,-1,34
 665 1350 665 1350 660 1350 c 2,35,-1
 642 1350 l 2,36,37
 603 1350 603 1350 581 1341 c 128,-1,38
 559 1332 559 1332 547.5 1318.5 c 128,-1,39
 536 1305 536 1305 533.5 1290 c 128,-1,40
 531 1275 531 1275 531 1263 c 0,41,42
 531 1241 531 1241 537.5 1222 c 128,-1,43
 544 1203 544 1203 549 1182 c 1,44,-1
 908 317 l 2,45,46
 913 307 913 307 927 307 c 0,47,48
 933 307 933 307 936 310 c 128,-1,49
 939 313 939 313 942 318 c 2,50,-1
 1115 726 l 1,51,-1
 896 1252 l 2,52,53
 883 1283 883 1283 856 1307 c 128,-1,54
 829 1331 829 1331 804 1337 c 1,55,56
 790 1342 790 1342 772 1346 c 128,-1,57
 754 1350 754 1350 749 1350 c 0,58,59
 741 1350 741 1350 741 1358 c 2,60,-1
 741 1402 l 2,61,62
 741 1410 741 1410 749 1410 c 2,63,-1
 1699 1410 l 2,64,65
 1705 1410 1705 1410 1706 1407 c 128,-1,66
 1707 1404 1707 1404 1707 1402 c 2,67,-1
 1707 1358 l 2,68,69
 1707 1355 1707 1355 1706 1352.5 c 128,-1,70
 1705 1350 1705 1350 1699 1350 c 2,71,-1
 1662 1350 l 2,72,73
 1626 1350 1626 1350 1598.5 1340 c 128,-1,74
 1571 1330 1571 1330 1549 1309 c 128,-1,75
 1527 1288 1527 1288 1508.5 1256 c 128,-1,76
 1490 1224 1490 1224 1472 1181 c 2,77,-1
 1349 895 l 1,78,-1
 1588 320 l 2,79,80
 1593 310 1593 310 1607 310 c 0,81,82
 1617 310 1617 310 1622 321 c 2,83,-1
 2021 1256 l 2,84,85
 2033 1284 2033 1284 2033 1303 c 0,86,87
 2033 1329 2033 1329 2010.5 1339.5 c 128,-1,88
 1988 1350 1988 1350 1927 1350 c 2,89,-1
 1865 1350 l 2,90,91
 1857 1350 1857 1350 1857 1358 c 2,92,-1
 1857 1402 l 2,93,94
 1857 1404 1857 1404 1858 1407 c 128,-1,95
 1859 1410 1859 1410 1865 1410 c 2,96,-1
 2340 1410 l 2,97,98
 2346 1410 2346 1410 2347 1407 c 128,-1,99
 2348 1404 2348 1404 2348 1402 c 2,100,-1
 2348 1358 l 2,101,102
 2348 1355 2348 1355 2347 1352.5 c 128,-1,103
 2346 1350 2346 1350 2340 1350 c 2,104,-1
 2293 1350 l 2,105,106
 2269 1350 2269 1350 2251 1340.5 c 128,-1,107
 2233 1331 2233 1331 2217.5 1311.5 c 128,-1,108
 2202 1292 2202 1292 2187.5 1263 c 128,-1,109
 2173 1234 2173 1234 2157 1195 c 2,110,-1
 1650 8 l 2,111,112
 1639 -16 1639 -16 1627 -21.5 c 128,-1,113
 1615 -27 1615 -27 1592 -27 c 2,114,-1
 1448 -27 l 2,0,1
1349 1276 m 2,115,116
 1356 1292 1356 1292 1357.5 1300 c 128,-1,117
 1359 1308 1359 1308 1359 1318 c 0,118,119
 1359 1350 1359 1350 1291 1350 c 0,120,121
 1263 1350 1263 1350 1245 1343.5 c 128,-1,122
 1227 1337 1227 1337 1216.5 1327.5 c 128,-1,123
 1206 1318 1206 1318 1202 1306 c 128,-1,124
 1198 1294 1198 1294 1198 1283 c 256,125,126
 1198 1272 1198 1272 1201 1260 c 128,-1,127
 1204 1248 1204 1248 1211.5 1227.5 c 128,-1,128
 1219 1207 1219 1207 1232.5 1174 c 128,-1,129
 1246 1141 1246 1141 1268 1088 c 1,130,-1
 1349 1276 l 2,115,116
EndSplineSet
EndChar

StartChar: X
Encoding: 88 88 59
Width: 1725
Flags: W
LayerCount: 2
Fore
SplineSet
5 52 m 2,0,1
 5 60 5 60 13 60 c 2,2,-1
 52 60 l 2,3,4
 87 60 87 60 122.5 75.5 c 128,-1,5
 158 91 158 91 192.5 115 c 128,-1,6
 227 139 227 139 258 168 c 128,-1,7
 289 197 289 197 314 224 c 128,-1,8
 339 251 339 251 357 273 c 128,-1,9
 375 295 375 295 382 305 c 2,10,-1
 696 715 l 1,11,12
 601 838 601 838 531 929.5 c 128,-1,13
 461 1021 461 1021 409 1087.5 c 128,-1,14
 357 1154 357 1154 319.5 1198.5 c 128,-1,15
 282 1243 282 1243 251 1270.5 c 128,-1,16
 220 1298 220 1298 191.5 1312.5 c 128,-1,17
 163 1327 163 1327 131 1334 c 0,18,19
 120 1336 120 1336 104 1339 c 128,-1,20
 88 1342 88 1342 71 1344.5 c 128,-1,21
 54 1347 54 1347 38.5 1348.5 c 128,-1,22
 23 1350 23 1350 13 1350 c 0,23,24
 8 1350 8 1350 6.5 1353 c 128,-1,25
 5 1356 5 1356 5 1358 c 2,26,-1
 5 1402 l 2,27,28
 5 1404 5 1404 6.5 1407 c 128,-1,29
 8 1410 8 1410 13 1410 c 2,30,-1
 766 1410 l 2,31,32
 772 1410 772 1410 773 1407 c 128,-1,33
 774 1404 774 1404 774 1402 c 2,34,-1
 774 1358 l 2,35,36
 774 1356 774 1356 773 1353 c 128,-1,37
 772 1350 772 1350 766 1350 c 0,38,39
 685 1350 685 1350 648 1340 c 128,-1,40
 611 1330 611 1330 611 1308 c 0,41,42
 611 1303 611 1303 622 1284 c 128,-1,43
 633 1265 633 1265 656 1236 c 2,44,-1
 857 971 l 2,45,46
 862 964 862 964 865.5 962.5 c 128,-1,47
 869 961 869 961 875 961 c 0,48,49
 884 961 884 961 889.5 968.5 c 128,-1,50
 895 976 895 976 902 984 c 2,51,-1
 1095 1236 l 2,52,53
 1105 1248 1105 1248 1118 1267.5 c 128,-1,54
 1131 1287 1131 1287 1131 1305 c 0,55,56
 1131 1321 1131 1321 1115.5 1330 c 128,-1,57
 1100 1339 1100 1339 1077.5 1343.5 c 128,-1,58
 1055 1348 1055 1348 1029.5 1349 c 128,-1,59
 1004 1350 1004 1350 985 1350 c 0,60,61
 977 1350 977 1350 977 1358 c 2,62,-1
 977 1403 l 2,63,64
 977 1405 977 1405 978 1407.5 c 128,-1,65
 979 1410 979 1410 985 1410 c 2,66,-1
 1556 1410 l 2,67,68
 1562 1410 1562 1410 1563 1407.5 c 128,-1,69
 1564 1405 1564 1405 1564 1402 c 2,70,-1
 1564 1358 l 2,71,72
 1564 1355 1564 1355 1563 1352.5 c 128,-1,73
 1562 1350 1562 1350 1556 1350 c 0,74,75
 1452 1350 1452 1350 1377 1306 c 128,-1,76
 1302 1262 1302 1262 1244 1186 c 2,77,-1
 966 827 l 1,78,-1
 1461 174 l 2,79,80
 1474 157 1474 157 1491.5 141 c 128,-1,81
 1509 125 1509 125 1529 111 c 128,-1,82
 1549 97 1549 97 1570.5 87 c 128,-1,83
 1592 77 1592 77 1613 73 c 1,84,85
 1625 67 1625 67 1643 64.5 c 128,-1,86
 1661 62 1661 62 1678 59 c 128,-1,87
 1695 56 1695 56 1707.5 50.5 c 128,-1,88
 1720 45 1720 45 1720 33 c 0,89,90
 1720 17 1720 17 1707.5 8.5 c 128,-1,91
 1695 0 1695 0 1681 0 c 2,92,-1
 1016 0 l 2,93,94
 1011 0 1011 0 1009.5 3 c 128,-1,95
 1008 6 1008 6 1008 8 c 2,96,-1
 1008 52 l 2,97,98
 1008 54 1008 54 1009 56 c 0,99,100
 1010 59 1010 59 1016 60 c 0,101,102
 1025 62 1025 62 1044.5 61.5 c 128,-1,103
 1064 61 1064 61 1083.5 65 c 128,-1,104
 1103 69 1103 69 1117.5 81 c 128,-1,105
 1132 93 1132 93 1132 120 c 0,106,107
 1132 128 1132 128 1127.5 139 c 128,-1,108
 1123 150 1123 150 1120 155 c 2,109,-1
 805 572 l 2,110,111
 801 577 801 577 798 579.5 c 128,-1,112
 795 582 795 582 788 582 c 0,113,114
 780 582 780 582 777.5 579.5 c 128,-1,115
 775 577 775 577 771 572 c 2,116,-1
 457 165 l 2,117,118
 448 153 448 153 445.5 144.5 c 128,-1,119
 443 136 443 136 443 125 c 0,120,121
 443 94 443 94 462.5 82 c 128,-1,122
 482 70 482 70 507.5 67 c 128,-1,123
 533 64 533 64 558 65 c 128,-1,124
 583 66 583 66 594 60 c 0,125,126
 602 56 602 56 602 52 c 2,127,-1
 602 8 l 2,128,129
 602 6 602 6 600.5 3 c 128,-1,130
 599 0 599 0 594 0 c 2,131,-1
 13 0 l 2,132,133
 8 0 8 0 6.5 3 c 128,-1,134
 5 6 5 6 5 8 c 2,135,-1
 5 19 l 1,136,-1
 5 52 l 2,0,1
EndSplineSet
EndChar

StartChar: Y
Encoding: 89 89 60
Width: 1634
Flags: W
LayerCount: 2
Fore
SplineSet
712 494 m 2,0,1
 712 500 712 500 709 504 c 2,2,-1
 300 1158 l 2,3,4
 283 1185 283 1185 263.5 1212.5 c 128,-1,5
 244 1240 244 1240 220.5 1264.5 c 128,-1,6
 197 1289 197 1289 169.5 1307.5 c 128,-1,7
 142 1326 142 1326 110 1334 c 0,8,9
 105 1335 105 1335 94 1337.5 c 128,-1,10
 83 1340 83 1340 71 1342 c 128,-1,11
 59 1344 59 1344 48 1346 c 128,-1,12
 37 1348 37 1348 32 1349 c 0,13,14
 22 1350 22 1350 13 1361.5 c 128,-1,15
 4 1373 4 1373 4 1382 c 0,16,17
 4 1384 4 1384 4.5 1389 c 128,-1,18
 5 1394 5 1394 6.5 1398.5 c 128,-1,19
 8 1403 8 1403 11 1406.5 c 128,-1,20
 14 1410 14 1410 19 1410 c 2,21,-1
 698 1410 l 2,22,23
 709 1410 709 1410 712 1400 c 128,-1,24
 715 1390 715 1390 715 1382 c 0,25,26
 715 1372 715 1372 713.5 1361 c 128,-1,27
 712 1350 712 1350 702 1350 c 0,28,29
 675 1348 675 1348 651 1346 c 128,-1,30
 627 1344 627 1344 610 1336.5 c 128,-1,31
 593 1329 593 1329 583 1314 c 128,-1,32
 573 1299 573 1299 573 1272 c 0,33,34
 573 1248 573 1248 585 1229 c 2,35,-1
 890 739 l 2,36,37
 901 722 901 722 904.5 718 c 128,-1,38
 908 714 908 714 916 714 c 0,39,40
 923 714 923 714 928.5 722 c 128,-1,41
 934 730 934 730 942 743 c 2,42,-1
 1183 1152 l 2,43,44
 1197 1175 1197 1175 1211.5 1203 c 128,-1,45
 1226 1231 1226 1231 1226 1260 c 0,46,47
 1226 1288 1226 1288 1218.5 1304.5 c 128,-1,48
 1211 1321 1211 1321 1196 1330 c 128,-1,49
 1181 1339 1181 1339 1159.5 1343 c 128,-1,50
 1138 1347 1138 1347 1110 1350 c 0,51,52
 1099 1351 1099 1351 1097 1362 c 128,-1,53
 1095 1373 1095 1373 1095 1382 c 0,54,55
 1095 1389 1095 1389 1097.5 1399.5 c 128,-1,56
 1100 1410 1100 1410 1112 1410 c 2,57,-1
 1615 1410 l 2,58,59
 1623 1410 1623 1410 1626 1398.5 c 128,-1,60
 1629 1387 1629 1387 1629 1382 c 0,61,62
 1629 1372 1629 1372 1622.5 1365 c 128,-1,63
 1616 1358 1616 1358 1606.5 1353.5 c 128,-1,64
 1597 1349 1597 1349 1586.5 1346.5 c 128,-1,65
 1576 1344 1576 1344 1567 1342 c 0,66,67
 1517 1331 1517 1331 1480.5 1305.5 c 128,-1,68
 1444 1280 1444 1280 1409 1242 c 0,69,70
 1404 1237 1404 1237 1394.5 1226 c 128,-1,71
 1385 1215 1385 1215 1384 1213 c 2,72,-1
 997 548 l 1,73,-1
 997 195 l 2,74,75
 997 135 997 135 1028 102 c 128,-1,76
 1059 69 1059 69 1138 61 c 0,77,78
 1149 60 1149 60 1166 60 c 128,-1,79
 1183 60 1183 60 1195 60 c 0,80,81
 1200 60 1200 60 1201.5 57 c 128,-1,82
 1203 54 1203 54 1203 52 c 2,83,-1
 1203 8 l 2,84,85
 1203 6 1203 6 1201.5 3 c 128,-1,86
 1200 0 1200 0 1195 0 c 2,87,-1
 514 0 l 2,88,89
 509 0 509 0 507.5 3 c 128,-1,90
 506 6 506 6 506 8 c 2,91,-1
 506 52 l 2,92,93
 506 54 506 54 507.5 57 c 128,-1,94
 509 60 509 60 514 60 c 0,95,96
 525 60 525 60 542.5 60 c 128,-1,97
 560 60 560 60 571 61 c 0,98,99
 650 69 650 69 681 102 c 128,-1,100
 712 135 712 135 712 195 c 2,101,-1
 712 494 l 2,0,1
EndSplineSet
EndChar

StartChar: Z
Encoding: 90 90 61
Width: 1536
Flags: W
LayerCount: 2
Fore
SplineSet
77 43 m 0,0,1
 77 54 77 54 81 65.5 c 128,-1,2
 85 77 85 77 93 86 c 2,3,-1
 998 1257 l 2,4,5
 1002 1262 1002 1262 1002 1267 c 0,6,7
 1002 1275 1002 1275 995 1276 c 128,-1,8
 988 1277 988 1277 982 1277 c 2,9,-1
 483 1277 l 2,10,11
 460 1277 460 1277 434.5 1270.5 c 128,-1,12
 409 1264 409 1264 386.5 1251.5 c 128,-1,13
 364 1239 364 1239 346 1220.5 c 128,-1,14
 328 1202 328 1202 321 1177 c 0,15,16
 317 1166 317 1166 310.5 1135.5 c 128,-1,17
 304 1105 304 1105 292 1044 c 0,18,19
 290 1034 290 1034 276 1029.5 c 128,-1,20
 262 1025 262 1025 245 1025 c 0,21,22
 242 1025 242 1025 236.5 1025 c 128,-1,23
 231 1025 231 1025 225.5 1026 c 128,-1,24
 220 1027 220 1027 215 1028 c 128,-1,25
 210 1029 210 1029 209 1031 c 1,26,-1
 224 1376 l 2,27,28
 224 1379 224 1379 225 1386.5 c 128,-1,29
 226 1394 226 1394 228 1399 c 0,30,31
 231 1407 231 1407 239 1409 c 0,32,33
 243 1410 243 1410 247 1410 c 2,34,-1
 1371 1410 l 2,35,36
 1374 1410 1374 1410 1376.5 1405 c 128,-1,37
 1379 1400 1379 1400 1381.5 1393.5 c 128,-1,38
 1384 1387 1384 1387 1385.5 1379.5 c 128,-1,39
 1387 1372 1387 1372 1387 1367 c 0,40,41
 1387 1346 1387 1346 1374 1327 c 1,42,-1
 504 202 l 2,43,44
 501 197 501 197 492.5 185 c 128,-1,45
 484 173 484 173 484 165 c 0,46,47
 484 151 484 151 500 144.5 c 128,-1,48
 516 138 516 138 530 138 c 2,49,-1
 1166 138 l 2,50,51
 1222 138 1222 138 1259 171 c 128,-1,52
 1296 204 1296 204 1318.5 252.5 c 128,-1,53
 1341 301 1341 301 1351 355 c 128,-1,54
 1361 409 1361 409 1363 451 c 0,55,56
 1364 457 1364 457 1369 460 c 128,-1,57
 1374 463 1374 463 1380.5 464.5 c 128,-1,58
 1387 466 1387 466 1393.5 466 c 128,-1,59
 1400 466 1400 466 1405 466 c 0,60,61
 1407 466 1407 466 1413 465 c 128,-1,62
 1419 464 1419 464 1425 462.5 c 128,-1,63
 1431 461 1431 461 1435.5 458.5 c 128,-1,64
 1440 456 1440 456 1440 454 c 2,65,-1
 1440 407 l 1,66,-1
 1419 59 l 2,67,68
 1418 48 1418 48 1418 37.5 c 128,-1,69
 1418 27 1418 27 1415.5 19 c 128,-1,70
 1413 11 1413 11 1407.5 5.5 c 128,-1,71
 1402 0 1402 0 1390 0 c 2,72,-1
 115 0 l 2,73,74
 102 0 102 0 94.5 4.5 c 128,-1,75
 87 9 87 9 83 16 c 128,-1,76
 79 23 79 23 78 30.5 c 128,-1,77
 77 38 77 38 77 43 c 0,0,1
EndSplineSet
EndChar

StartChar: bracketleft
Encoding: 91 91 62
Width: 780
Flags: W
LayerCount: 2
Fore
SplineSet
742 1731 m 1,0,-1
 742 1615 l 1,1,-1
 504 1615 l 2,2,3
 431 1615 431 1615 431 1542 c 2,4,-1
 431 -153 l 2,5,6
 431 -226 431 -226 504 -226 c 2,7,-1
 765 -226 l 1,8,-1
 765 -342 l 1,9,-1
 205 -342 l 1,10,-1
 205 1731 l 1,11,-1
 742 1731 l 1,0,-1
EndSplineSet
EndChar

StartChar: bracketright
Encoding: 93 93 64
Width: 780
Flags: W
LayerCount: 2
Fore
SplineSet
15 -342 m 1,0,-1
 15 -226 l 1,1,-1
 277 -226 l 2,2,3
 315 -226 315 -226 332 -208.5 c 128,-1,4
 349 -191 349 -191 349 -153 c 2,5,-1
 349 1542 l 2,6,7
 349 1580 349 1580 332 1597.5 c 128,-1,8
 315 1615 315 1615 277 1615 c 2,9,-1
 37 1615 l 1,10,-1
 37 1731 l 1,11,-1
 575 1731 l 1,12,-1
 575 -342 l 1,13,-1
 15 -342 l 1,0,-1
EndSplineSet
EndChar

StartChar: asciicircum
Encoding: 94 94 65
Width: 1115
Flags: W
LayerCount: 2
Fore
SplineSet
561 1127 m 1,0,-1
 257 679 l 1,1,-1
 96 679 l 1,2,-1
 496 1379 l 1,3,-1
 627 1379 l 1,4,-1
 1019 679 l 1,5,-1
 857 679 l 1,6,-1
 561 1127 l 1,0,-1
EndSplineSet
EndChar

StartChar: underscore
Encoding: 95 95 66
Width: 1014
Flags: W
LayerCount: 2
Fore
SplineSet
-16 -205 m 1,0,-1
 1030 -205 l 1,1,-1
 1030 -320 l 1,2,-1
 -16 -320 l 1,3,-1
 -16 -205 l 1,0,-1
EndSplineSet
EndChar

StartChar: grave
Encoding: 96 96 67
Width: 740
Flags: W
LayerCount: 2
Fore
SplineSet
519 1062 m 2,0,1
 514 1055 514 1055 505.5 1049.5 c 128,-1,2
 497 1044 497 1044 491 1044 c 0,3,4
 480 1044 480 1044 471 1051 c 2,5,-1
 202 1268 l 2,6,7
 179 1287 179 1287 159.5 1314 c 128,-1,8
 140 1341 140 1341 140 1378 c 0,9,10
 140 1397 140 1397 147 1414 c 128,-1,11
 154 1431 154 1431 166.5 1444 c 128,-1,12
 179 1457 179 1457 195.5 1464.5 c 128,-1,13
 212 1472 212 1472 232 1472 c 0,14,15
 255 1472 255 1472 278 1458.5 c 128,-1,16
 301 1445 301 1445 323 1415 c 2,17,-1
 533 1124 l 2,18,19
 538 1117 538 1117 539.5 1111.5 c 128,-1,20
 541 1106 541 1106 541 1099 c 0,21,22
 541 1096 541 1096 540 1092 c 128,-1,23
 539 1088 539 1088 535 1083 c 2,24,-1
 519 1062 l 2,0,1
EndSplineSet
EndChar

StartChar: a
Encoding: 97 97 68
Width: 1017
Flags: W
LayerCount: 2
Fore
SplineSet
487 20 m 1,0,1
 454 -3 454 -3 409 -16 c 128,-1,2
 364 -29 364 -29 319 -29 c 0,3,4
 197 -29 197 -29 133.5 26 c 128,-1,5
 70 81 70 81 70 175 c 0,6,7
 70 229 70 229 94.5 268 c 128,-1,8
 119 307 119 307 167 337 c 128,-1,9
 215 367 215 367 285.5 391.5 c 128,-1,10
 356 416 356 416 449 440 c 0,11,12
 499 453 499 453 529.5 468 c 128,-1,13
 560 483 560 483 586 497 c 0,14,15
 603 506 603 506 605.5 513 c 128,-1,16
 608 520 608 520 608 526 c 2,17,-1
 608 700 l 2,18,19
 608 733 608 733 598.5 761.5 c 128,-1,20
 589 790 589 790 570 811 c 128,-1,21
 551 832 551 832 524 844 c 128,-1,22
 497 856 497 856 463 856 c 0,23,24
 434 856 434 856 409 846 c 128,-1,25
 384 836 384 836 366 817 c 128,-1,26
 348 798 348 798 337.5 772 c 128,-1,27
 327 746 327 746 327 713 c 0,28,29
 327 710 327 710 327.5 704 c 128,-1,30
 328 698 328 698 329 691.5 c 128,-1,31
 330 685 330 685 331 680 c 128,-1,32
 332 675 332 675 332 674 c 0,33,34
 331 672 331 672 315.5 666 c 128,-1,35
 300 660 300 660 277.5 652.5 c 128,-1,36
 255 645 255 645 228 637.5 c 128,-1,37
 201 630 201 630 176.5 623 c 128,-1,38
 152 616 152 616 133.5 610.5 c 128,-1,39
 115 605 115 605 108 604 c 1,40,41
 97 604 97 604 94.5 615.5 c 128,-1,42
 92 627 92 627 92 638 c 0,43,44
 92 696 92 696 127 751 c 128,-1,45
 162 806 162 806 220.5 848.5 c 128,-1,46
 279 891 279 891 355 917 c 128,-1,47
 431 943 431 943 512 943 c 0,48,49
 584 943 584 943 641 924.5 c 128,-1,50
 698 906 698 906 738 873.5 c 128,-1,51
 778 841 778 841 799 798.5 c 128,-1,52
 820 756 820 756 820 708 c 2,53,-1
 820 231 l 2,54,55
 820 205 820 205 839.5 184.5 c 128,-1,56
 859 164 859 164 890 164 c 0,57,58
 908 164 908 164 922.5 170.5 c 128,-1,59
 937 177 937 177 948.5 185.5 c 128,-1,60
 960 194 960 194 968 200.5 c 128,-1,61
 976 207 976 207 982 207 c 0,62,63
 990 207 990 207 991 200.5 c 128,-1,64
 992 194 992 194 992 189 c 0,65,66
 992 172 992 172 987.5 154.5 c 128,-1,67
 983 137 983 137 972 129 c 0,68,69
 923 92 923 92 885 62.5 c 128,-1,70
 847 33 847 33 816 12 c 128,-1,71
 785 -9 785 -9 760 -20 c 128,-1,72
 735 -31 735 -31 713 -31 c 0,73,74
 693 -31 693 -31 677.5 -20 c 128,-1,75
 662 -9 662 -9 650.5 7 c 128,-1,76
 639 23 639 23 631 41.5 c 128,-1,77
 623 60 623 60 617.5 76 c 128,-1,78
 612 92 612 92 609 102 c 128,-1,79
 606 112 606 112 604 111 c 2,80,-1
 487 20 l 1,0,1
303 199 m 0,81,82
 303 172 303 172 313.5 155 c 128,-1,83
 324 138 324 138 341 129 c 128,-1,84
 358 120 358 120 379.5 116.5 c 128,-1,85
 401 113 401 113 424 113 c 0,86,87
 445 113 445 113 476 123.5 c 128,-1,88
 507 134 507 134 536.5 151.5 c 128,-1,89
 566 169 566 169 587 191.5 c 128,-1,90
 608 214 608 214 608 237 c 2,91,-1
 608 402 l 2,92,93
 608 413 608 413 600 413 c 0,94,95
 598 413 598 413 596 412 c 2,96,-1
 364 304 l 1,97,98
 350 294 350 294 338.5 285.5 c 128,-1,99
 327 277 327 277 319 265.5 c 128,-1,100
 311 254 311 254 307 238.5 c 128,-1,101
 303 223 303 223 303 199 c 0,81,82
EndSplineSet
EndChar

StartChar: b
Encoding: 98 98 69
Width: 1175
Flags: W
LayerCount: 2
Fore
SplineSet
358 1639 m 2,0,1
 362 1641 362 1641 366.5 1643 c 128,-1,2
 371 1645 371 1645 373 1645 c 0,3,4
 390 1645 390 1645 390 1621 c 2,5,-1
 390 866 l 2,6,7
 390 856 390 856 392.5 845.5 c 128,-1,8
 395 835 395 835 405 835 c 0,9,10
 409 835 409 835 421 841 c 0,11,12
 458 858 458 858 490.5 875 c 128,-1,13
 523 892 523 892 554.5 905.5 c 128,-1,14
 586 919 586 919 618 927.5 c 128,-1,15
 650 936 650 936 685 936 c 0,16,17
 764 936 764 936 833 900 c 128,-1,18
 902 864 902 864 953.5 802 c 128,-1,19
 1005 740 1005 740 1035 655.5 c 128,-1,20
 1065 571 1065 571 1065 475 c 0,21,22
 1065 364 1065 364 1026 271.5 c 128,-1,23
 987 179 987 179 917.5 112.5 c 128,-1,24
 848 46 848 46 752.5 9.5 c 128,-1,25
 657 -27 657 -27 545 -27 c 0,26,27
 485 -27 485 -27 434.5 -22.5 c 128,-1,28
 384 -18 384 -18 339 -10.5 c 128,-1,29
 294 -3 294 -3 253 7 c 128,-1,30
 212 17 212 17 172 27 c 0,31,32
 163 29 163 29 160.5 35.5 c 128,-1,33
 158 42 158 42 158 51 c 2,34,-1
 158 1363 l 2,35,36
 158 1387 158 1387 145 1400.5 c 128,-1,37
 132 1414 132 1414 112 1421 c 128,-1,38
 92 1428 92 1428 69 1432.5 c 128,-1,39
 46 1437 46 1437 25 1443 c 0,40,41
 19 1445 19 1445 15.5 1448.5 c 128,-1,42
 12 1452 12 1452 12 1463 c 0,43,44
 12 1468 12 1468 15 1473 c 128,-1,45
 18 1478 18 1478 27 1483 c 2,46,-1
 358 1639 l 2,0,1
402 751 m 0,47,48
 394 746 394 746 392 740.5 c 128,-1,49
 390 735 390 735 390 727 c 2,50,-1
 390 244 l 1,51,52
 400 149 400 149 452 100 c 128,-1,53
 504 51 504 51 593 51 c 0,54,55
 665 51 665 51 713 79 c 128,-1,56
 761 107 761 107 790.5 157 c 128,-1,57
 820 207 820 207 832.5 274.5 c 128,-1,58
 845 342 845 342 845 422 c 0,59,60
 845 500 845 500 833 567.5 c 128,-1,61
 821 635 821 635 790 685.5 c 128,-1,62
 759 736 759 736 706 765.5 c 128,-1,63
 653 795 653 795 571 795 c 0,64,65
 544 795 544 795 522.5 793 c 128,-1,66
 501 791 501 791 482 786.5 c 128,-1,67
 463 782 463 782 444 773 c 128,-1,68
 425 764 425 764 402 751 c 0,47,48
EndSplineSet
EndChar

StartChar: c
Encoding: 99 99 70
Width: 988
Flags: W
LayerCount: 2
Fore
SplineSet
90 423 m 0,0,1
 91 568 91 568 134 667.5 c 128,-1,2
 177 767 177 767 249 828 c 128,-1,3
 321 889 321 889 416.5 916 c 128,-1,4
 512 943 512 943 617 943 c 0,5,6
 639 943 639 943 669.5 941.5 c 128,-1,7
 700 940 700 940 732.5 935.5 c 128,-1,8
 765 931 765 931 796.5 922 c 128,-1,9
 828 913 828 913 853.5 897.5 c 128,-1,10
 879 882 879 882 894.5 859.5 c 128,-1,11
 910 837 910 837 910 805 c 0,12,13
 910 781 910 781 901 766.5 c 128,-1,14
 892 752 892 752 876 743.5 c 128,-1,15
 860 735 860 735 839 732 c 128,-1,16
 818 729 818 729 794 729 c 0,17,18
 766 729 766 729 746.5 738.5 c 128,-1,19
 727 748 727 748 711 761.5 c 128,-1,20
 695 775 695 775 681 791.5 c 128,-1,21
 667 808 667 808 650.5 821.5 c 128,-1,22
 634 835 634 835 613 844.5 c 128,-1,23
 592 854 592 854 562 854 c 0,24,25
 492 854 492 854 447 818.5 c 128,-1,26
 402 783 402 783 376.5 728.5 c 128,-1,27
 351 674 351 674 341.5 609 c 128,-1,28
 332 544 332 544 332 485 c 0,29,30
 332 405 332 405 347 337.5 c 128,-1,31
 362 270 362 270 395.5 221 c 128,-1,32
 429 172 429 172 482.5 144.5 c 128,-1,33
 536 117 536 117 612 117 c 0,34,35
 640 117 640 117 667.5 126 c 128,-1,36
 695 135 695 135 720.5 150.5 c 128,-1,37
 746 166 746 166 768.5 186 c 128,-1,38
 791 206 791 206 810 229 c 0,39,40
 820 241 820 241 829.5 249 c 128,-1,41
 839 257 839 257 859 257 c 0,42,43
 883 257 883 257 900.5 244.5 c 128,-1,44
 918 232 918 232 918 218 c 0,45,46
 918 214 918 214 916.5 207.5 c 128,-1,47
 915 201 915 201 906 189 c 0,48,49
 868 141 868 141 824 101 c 128,-1,50
 780 61 780 61 730 33 c 128,-1,51
 680 5 680 5 622.5 -10.5 c 128,-1,52
 565 -26 565 -26 500 -26 c 0,53,54
 414 -26 414 -26 339.5 12.5 c 128,-1,55
 265 51 265 51 209.5 114.5 c 128,-1,56
 154 178 154 178 122 258.5 c 128,-1,57
 90 339 90 339 90 423 c 0,0,1
EndSplineSet
EndChar

StartChar: d
Encoding: 100 100 71
Width: 1166
Flags: W
LayerCount: 2
Fore
SplineSet
960 1639 m 2,0,1
 964 1641 964 1641 968.5 1643 c 128,-1,2
 973 1645 973 1645 975 1645 c 0,3,4
 992 1645 992 1645 992 1621 c 2,5,-1
 992 229 l 2,6,7
 992 185 992 185 1014.5 166 c 128,-1,8
 1037 147 1037 147 1082 147 c 1,9,-1
 1140 151 l 2,10,11
 1144 151 1144 151 1145 145.5 c 128,-1,12
 1146 140 1146 140 1146 134 c 0,13,14
 1146 132 1146 132 1143.5 128.5 c 128,-1,15
 1141 125 1141 125 1131 121 c 2,16,-1
 789 -21 l 2,17,18
 787 -22 787 -22 779 -24.5 c 128,-1,19
 771 -27 771 -27 770 -27 c 0,20,21
 763 -27 763 -27 761.5 -18.5 c 128,-1,22
 760 -10 760 -10 760 -2 c 2,23,-1
 760 67 l 2,24,25
 760 77 760 77 753 77 c 0,26,27
 750 77 750 77 744 74 c 0,28,29
 709 54 709 54 678 35.5 c 128,-1,30
 647 17 647 17 615.5 3 c 128,-1,31
 584 -11 584 -11 549.5 -19 c 128,-1,32
 515 -27 515 -27 473 -27 c 0,33,34
 383 -27 383 -27 311 10 c 128,-1,35
 239 47 239 47 189 109 c 128,-1,36
 139 171 139 171 112 251 c 128,-1,37
 85 331 85 331 85 418 c 0,38,39
 85 523 85 523 126.5 613 c 128,-1,40
 168 703 168 703 237.5 769 c 128,-1,41
 307 835 307 835 399 872.5 c 128,-1,42
 491 910 491 910 592 910 c 0,43,44
 619 910 619 910 639 905 c 128,-1,45
 659 900 659 900 676 894.5 c 128,-1,46
 693 889 693 889 710 884 c 128,-1,47
 727 879 727 879 748 879 c 0,48,49
 751 879 751 879 755.5 881 c 128,-1,50
 760 883 760 883 760 892 c 2,51,-1
 760 1363 l 2,52,53
 760 1387 760 1387 747 1400.5 c 128,-1,54
 734 1414 734 1414 714 1421 c 128,-1,55
 694 1428 694 1428 671 1432.5 c 128,-1,56
 648 1437 648 1437 627 1443 c 0,57,58
 621 1445 621 1445 617.5 1448.5 c 128,-1,59
 614 1452 614 1452 614 1463 c 0,60,61
 614 1468 614 1468 617 1473 c 128,-1,62
 620 1478 620 1478 629 1483 c 2,63,-1
 960 1639 l 2,0,1
312 463 m 0,64,65
 312 391 312 391 328.5 324.5 c 128,-1,66
 345 258 345 258 379.5 207.5 c 128,-1,67
 414 157 414 157 467 127 c 128,-1,68
 520 97 520 97 592 97 c 0,69,70
 603 97 603 97 631 103 c 128,-1,71
 659 109 659 109 687.5 118.5 c 128,-1,72
 716 128 716 128 738 141 c 128,-1,73
 760 154 760 154 760 169 c 2,74,-1
 760 666 l 2,75,76
 760 735 760 735 710.5 778 c 128,-1,77
 661 821 661 821 569 821 c 0,78,79
 502 821 502 821 453.5 789.5 c 128,-1,80
 405 758 405 758 373.5 707 c 128,-1,81
 342 656 342 656 327 592 c 128,-1,82
 312 528 312 528 312 463 c 0,64,65
EndSplineSet
EndChar

StartChar: e
Encoding: 101 101 72
Width: 1014
Flags: W
LayerCount: 2
Fore
SplineSet
70 405 m 0,0,1
 70 522 70 522 103 620.5 c 128,-1,2
 136 719 136 719 198 791 c 128,-1,3
 260 863 260 863 349.5 903 c 128,-1,4
 439 943 439 943 553 943 c 0,5,6
 587 943 587 943 614 938.5 c 128,-1,7
 641 934 641 934 663.5 926.5 c 128,-1,8
 686 919 686 919 705.5 908.5 c 128,-1,9
 725 898 725 898 745 886 c 1,10,11
 768 874 768 874 797.5 843 c 128,-1,12
 827 812 827 812 853 771 c 128,-1,13
 879 730 879 730 897 683.5 c 128,-1,14
 915 637 915 637 915 594 c 0,15,16
 915 580 915 580 909.5 563.5 c 128,-1,17
 904 547 904 547 891 547 c 2,18,-1
 301 547 l 2,19,20
 291 547 291 547 287.5 529 c 128,-1,21
 284 511 284 511 284 485 c 0,22,23
 284 397 284 397 309.5 328.5 c 128,-1,24
 335 260 335 260 378 212.5 c 128,-1,25
 421 165 421 165 477 140.5 c 128,-1,26
 533 116 533 116 595 116 c 0,27,28
 634 116 634 116 670 126.5 c 128,-1,29
 706 137 706 137 739 154 c 128,-1,30
 772 171 772 171 801 192 c 128,-1,31
 830 213 830 213 856 234 c 1,32,33
 862 236 862 236 864 236 c 0,34,35
 867 236 867 236 872 231 c 0,36,37
 881 223 881 223 890 212.5 c 128,-1,38
 899 202 899 202 904 195 c 0,39,40
 907 192 907 192 907 189 c 256,41,42
 907 186 907 186 903 182 c 0,43,44
 870 143 870 143 822 105.5 c 128,-1,45
 774 68 774 68 719.5 38.5 c 128,-1,46
 665 9 665 9 608 -9 c 128,-1,47
 551 -27 551 -27 500 -27 c 0,48,49
 397 -27 397 -27 317 10.5 c 128,-1,50
 237 48 237 48 182 109 c 128,-1,51
 127 170 127 170 98.5 247.5 c 128,-1,52
 70 325 70 325 70 405 c 0,0,1
657 624 m 2,53,54
 683 624 683 624 683 647 c 0,55,56
 683 686 683 686 670.5 720.5 c 128,-1,57
 658 755 658 755 635 781.5 c 128,-1,58
 612 808 612 808 579.5 823 c 128,-1,59
 547 838 547 838 507 838 c 0,60,61
 459 838 459 838 423 817.5 c 128,-1,62
 387 797 387 797 362 768 c 128,-1,63
 337 739 337 739 324.5 708 c 128,-1,64
 312 677 312 677 312 655 c 0,65,66
 312 638 312 638 317 631 c 128,-1,67
 322 624 322 624 330 624 c 2,68,-1
 657 624 l 2,53,54
EndSplineSet
EndChar

StartChar: f
Encoding: 102 102 73
Width: 700
Flags: W
LayerCount: 2
Fore
SplineSet
40 30 m 0,0,1
 40 35 40 35 43 46.5 c 128,-1,2
 46 58 46 58 50 60 c 0,3,4
 63 66 63 66 87 69 c 128,-1,5
 111 72 111 72 135 82.5 c 128,-1,6
 159 93 159 93 177 115.5 c 128,-1,7
 195 138 195 138 195 182 c 2,8,-1
 195 761 l 2,9,10
 195 772 195 772 183 772 c 2,11,-1
 74 772 l 2,12,13
 62 772 62 772 51 779.5 c 128,-1,14
 40 787 40 787 40 801 c 0,15,16
 40 812 40 812 51.5 820 c 128,-1,17
 63 828 63 828 80 836 c 128,-1,18
 97 844 97 844 117.5 851.5 c 128,-1,19
 138 859 138 859 155 868.5 c 128,-1,20
 172 878 172 878 183.5 890 c 128,-1,21
 195 902 195 902 195 919 c 2,22,-1
 195 952 l 2,23,24
 195 1092 195 1092 231 1222 c 128,-1,25
 267 1352 267 1352 339.5 1452 c 128,-1,26
 412 1552 412 1552 520.5 1612 c 128,-1,27
 629 1672 629 1672 774 1672 c 0,28,29
 788 1672 788 1672 824 1664 c 128,-1,30
 860 1656 860 1656 898 1642 c 128,-1,31
 936 1628 936 1628 965 1609 c 128,-1,32
 994 1590 994 1590 994 1568 c 0,33,34
 994 1560 994 1560 991.5 1554 c 128,-1,35
 989 1548 989 1548 986 1539 c 0,36,37
 984 1534 984 1534 975.5 1516 c 128,-1,38
 967 1498 967 1498 958 1476.5 c 128,-1,39
 949 1455 949 1455 940.5 1436 c 128,-1,40
 932 1417 932 1417 930 1412 c 0,41,42
 928 1408 928 1408 922.5 1402 c 128,-1,43
 917 1396 917 1396 911 1396 c 0,44,45
 909 1396 909 1396 906.5 1397.5 c 128,-1,46
 904 1399 904 1399 894 1407 c 0,47,48
 871 1426 871 1426 842 1449 c 128,-1,49
 813 1472 813 1472 780 1492.5 c 128,-1,50
 747 1513 747 1513 711 1527 c 128,-1,51
 675 1541 675 1541 638 1541 c 0,52,53
 559 1541 559 1541 516.5 1518 c 128,-1,54
 474 1495 474 1495 454 1458 c 128,-1,55
 434 1421 434 1421 430.5 1375.5 c 128,-1,56
 427 1330 427 1330 427 1284 c 2,57,-1
 427 928 l 2,58,59
 427 922 427 922 429.5 921 c 128,-1,60
 432 920 432 920 437 920 c 2,61,-1
 632 920 l 2,62,63
 660 920 660 920 668.5 914.5 c 128,-1,64
 677 909 677 909 681 894 c 0,65,66
 687 871 687 871 690 843 c 128,-1,67
 693 815 693 815 693 793 c 0,68,69
 693 780 693 780 688 776 c 128,-1,70
 683 772 683 772 667 772 c 2,71,-1
 440 772 l 2,72,73
 438 772 438 772 432.5 771 c 128,-1,74
 427 770 427 770 427 762 c 2,75,-1
 427 202 l 2,76,77
 427 158 427 158 449 130.5 c 128,-1,78
 471 103 471 103 506.5 87 c 128,-1,79
 542 71 542 71 586.5 65.5 c 128,-1,80
 631 60 631 60 675 60 c 1,81,82
 684 59 684 59 688.5 47 c 128,-1,83
 693 35 693 35 693 30 c 0,84,85
 693 28 693 28 692.5 23 c 128,-1,86
 692 18 692 18 690.5 13 c 128,-1,87
 689 8 689 8 685 4 c 128,-1,88
 681 0 681 0 675 0 c 2,89,-1
 50 0 l 1,90,91
 44 2 44 2 42 13 c 128,-1,92
 40 24 40 24 40 30 c 0,0,1
EndSplineSet
EndChar

StartChar: g
Encoding: 103 103 74
Width: 1224
Flags: W
LayerCount: 2
Fore
SplineSet
582 943 m 0,0,1
 678 943 678 943 754 918 c 128,-1,2
 830 893 830 893 881 845 c 1,3,4
 944 847 944 847 1001.5 852 c 128,-1,5
 1059 857 1059 857 1125 857 c 0,6,7
 1148 857 1148 857 1162.5 855.5 c 128,-1,8
 1177 854 1177 854 1185 850.5 c 128,-1,9
 1193 847 1193 847 1197 841.5 c 128,-1,10
 1201 836 1201 836 1203 828 c 0,11,12
 1210 803 1210 803 1213 783 c 128,-1,13
 1216 763 1216 763 1216 742 c 0,14,15
 1216 725 1216 725 1203.5 719.5 c 128,-1,16
 1191 714 1191 714 1153 714 c 2,17,-1
 970 714 l 1,18,19
 984 691 984 691 997.5 660 c 128,-1,20
 1011 629 1011 629 1011 581 c 0,21,22
 1011 512 1011 512 980 446.5 c 128,-1,23
 949 381 949 381 889 331 c 128,-1,24
 829 281 829 281 742.5 250.5 c 128,-1,25
 656 220 656 220 545 220 c 0,26,27
 511 220 511 220 490 222.5 c 128,-1,28
 469 225 469 225 446 231 c 1,29,30
 432 219 432 219 411 209.5 c 128,-1,31
 390 200 390 200 370 188 c 128,-1,32
 350 176 350 176 336 160.5 c 128,-1,33
 322 145 322 145 322 121 c 0,34,35
 322 79 322 79 395.5 60.5 c 128,-1,36
 469 42 469 42 633 41 c 0,37,38
 758 40 758 40 860.5 34 c 128,-1,39
 963 28 963 28 1036 2.5 c 128,-1,40
 1109 -23 1109 -23 1149 -76.5 c 128,-1,41
 1189 -130 1189 -130 1189 -226 c 0,42,43
 1189 -266 1189 -266 1170 -312.5 c 128,-1,44
 1151 -359 1151 -359 1112.5 -405 c 128,-1,45
 1074 -451 1074 -451 1016 -493.5 c 128,-1,46
 958 -536 958 -536 879.5 -568.5 c 128,-1,47
 801 -601 801 -601 702 -620.5 c 128,-1,48
 603 -640 603 -640 484 -640 c 0,49,50
 379 -640 379 -640 301 -619.5 c 128,-1,51
 223 -599 223 -599 172 -565 c 128,-1,52
 121 -531 121 -531 95.5 -487.5 c 128,-1,53
 70 -444 70 -444 70 -398 c 0,54,55
 70 -363 70 -363 84 -335 c 128,-1,56
 98 -307 98 -307 121 -283.5 c 128,-1,57
 144 -260 144 -260 172.5 -239.5 c 128,-1,58
 201 -219 201 -219 230 -197.5 c 128,-1,59
 259 -176 259 -176 286 -152.5 c 128,-1,60
 313 -129 313 -129 333 -99 c 1,61,62
 280 -92 280 -92 236.5 -74 c 128,-1,63
 193 -56 193 -56 162.5 -32 c 128,-1,64
 132 -8 132 -8 115 20.5 c 128,-1,65
 98 49 98 49 98 78 c 0,66,67
 98 105 98 105 112.5 125 c 128,-1,68
 127 145 127 145 150.5 160.5 c 128,-1,69
 174 176 174 176 204 189 c 128,-1,70
 234 202 234 202 266 214 c 0,71,72
 286 222 286 222 308.5 231.5 c 128,-1,73
 331 241 331 241 355 258 c 1,74,75
 236 306 236 306 175 383 c 128,-1,76
 114 460 114 460 114 561 c 0,77,78
 114 641 114 641 150 711 c 128,-1,79
 186 781 186 781 249 832.5 c 128,-1,80
 312 884 312 884 397.5 913.5 c 128,-1,81
 483 943 483 943 582 943 c 0,0,1
298 -316 m 0,82,83
 298 -358 298 -358 323.5 -400.5 c 128,-1,84
 349 -443 349 -443 392.5 -477 c 128,-1,85
 436 -511 436 -511 495 -532.5 c 128,-1,86
 554 -554 554 -554 621 -554 c 0,87,88
 691 -554 691 -554 757 -530.5 c 128,-1,89
 823 -507 823 -507 874 -468 c 128,-1,90
 925 -429 925 -429 956 -377.5 c 128,-1,91
 987 -326 987 -326 987 -270 c 0,92,93
 987 -237 987 -237 976.5 -212 c 128,-1,94
 966 -187 966 -187 948 -170 c 128,-1,95
 930 -153 930 -153 906 -143 c 128,-1,96
 882 -133 882 -133 856 -131 c 0,97,98
 835 -129 835 -129 786 -127.5 c 128,-1,99
 737 -126 737 -126 676 -124 c 0,100,101
 639 -123 639 -123 603 -122.5 c 128,-1,102
 567 -122 567 -122 536.5 -121 c 128,-1,103
 506 -120 506 -120 481.5 -119 c 128,-1,104
 457 -118 457 -118 443 -116 c 1,105,106
 424 -138 424 -138 399 -157.5 c 128,-1,107
 374 -177 374 -177 351.5 -199.5 c 128,-1,108
 329 -222 329 -222 313.5 -250 c 128,-1,109
 298 -278 298 -278 298 -316 c 0,82,83
771 559 m 0,110,111
 771 636 771 636 755 696.5 c 128,-1,112
 739 757 739 757 709.5 798.5 c 128,-1,113
 680 840 680 840 640 861.5 c 128,-1,114
 600 883 600 883 552 883 c 0,115,116
 523 883 523 883 488.5 871.5 c 128,-1,117
 454 860 454 860 424 829.5 c 128,-1,118
 394 799 394 799 374 746 c 128,-1,119
 354 693 354 693 354 610 c 0,120,121
 354 557 354 557 366 499 c 128,-1,122
 378 441 378 441 404.5 392 c 128,-1,123
 431 343 431 343 473 311.5 c 128,-1,124
 515 280 515 280 575 280 c 0,125,126
 620 280 620 280 656 300.5 c 128,-1,127
 692 321 692 321 717.5 357.5 c 128,-1,128
 743 394 743 394 757 445.5 c 128,-1,129
 771 497 771 497 771 559 c 0,110,111
EndSplineSet
EndChar

StartChar: h
Encoding: 104 104 75
Width: 1276
Flags: W
LayerCount: 2
Fore
SplineSet
572 30 m 0,0,1
 572 24 572 24 570 13 c 128,-1,2
 568 2 568 2 562 0 c 1,3,-1
 40 0 l 1,4,5
 34 2 34 2 32 13 c 128,-1,6
 30 24 30 24 30 30 c 0,7,8
 30 35 30 35 33 46.5 c 128,-1,9
 36 58 36 58 40 60 c 0,10,11
 53 66 53 66 77 69.5 c 128,-1,12
 101 73 101 73 125 83.5 c 128,-1,13
 149 94 149 94 167 116.5 c 128,-1,14
 185 139 185 139 185 183 c 2,15,-1
 185 1364 l 2,16,17
 185 1388 185 1388 172 1401.5 c 128,-1,18
 159 1415 159 1415 139 1422 c 128,-1,19
 119 1429 119 1429 96 1433.5 c 128,-1,20
 73 1438 73 1438 52 1444 c 0,21,22
 46 1446 46 1446 42.5 1449.5 c 128,-1,23
 39 1453 39 1453 39 1464 c 0,24,25
 39 1469 39 1469 42 1474 c 128,-1,26
 45 1479 45 1479 54 1484 c 2,27,-1
 385 1639 l 2,28,29
 389 1641 389 1641 393.5 1643 c 128,-1,30
 398 1645 398 1645 400 1645 c 0,31,32
 417 1645 417 1645 417 1621 c 2,33,-1
 417 774 l 2,34,35
 417 770 417 770 418 760 c 128,-1,36
 419 750 419 750 424 750 c 0,37,38
 431 750 431 750 434 753.5 c 128,-1,39
 437 757 437 757 443 763 c 0,40,41
 472 796 472 796 502 825.5 c 128,-1,42
 532 855 532 855 568 877.5 c 128,-1,43
 604 900 604 900 649 913 c 128,-1,44
 694 926 694 926 754 926 c 0,45,46
 816 926 816 926 876.5 911.5 c 128,-1,47
 937 897 937 897 984.5 857.5 c 128,-1,48
 1032 818 1032 818 1061.5 748.5 c 128,-1,49
 1091 679 1091 679 1091 569 c 2,50,-1
 1091 183 l 2,51,52
 1091 139 1091 139 1109 116.5 c 128,-1,53
 1127 94 1127 94 1151 83.5 c 128,-1,54
 1175 73 1175 73 1199 69.5 c 128,-1,55
 1223 66 1223 66 1236 60 c 0,56,57
 1240 58 1240 58 1243 46.5 c 128,-1,58
 1246 35 1246 35 1246 30 c 0,59,60
 1246 24 1246 24 1244 13 c 128,-1,61
 1242 2 1242 2 1236 0 c 1,62,-1
 714 0 l 1,63,64
 708 2 708 2 706 13 c 128,-1,65
 704 24 704 24 704 30 c 0,66,67
 704 35 704 35 707 46.5 c 128,-1,68
 710 58 710 58 714 60 c 0,69,70
 727 66 727 66 751 69.5 c 128,-1,71
 775 73 775 73 799 83.5 c 128,-1,72
 823 94 823 94 841 116.5 c 128,-1,73
 859 139 859 139 859 183 c 2,74,-1
 859 527 l 2,75,76
 859 585 859 585 856 636 c 128,-1,77
 853 687 853 687 835.5 725 c 128,-1,78
 818 763 818 763 779.5 784.5 c 128,-1,79
 741 806 741 806 671 806 c 0,80,81
 635 806 635 806 591 788.5 c 128,-1,82
 547 771 547 771 508 741.5 c 128,-1,83
 469 712 469 712 443 673.5 c 128,-1,84
 417 635 417 635 417 593 c 2,85,-1
 417 183 l 2,86,87
 417 139 417 139 435 116.5 c 128,-1,88
 453 94 453 94 477 83.5 c 128,-1,89
 501 73 501 73 525 69.5 c 128,-1,90
 549 66 549 66 562 60 c 0,91,92
 566 58 566 58 569 46.5 c 128,-1,93
 572 35 572 35 572 30 c 0,0,1
EndSplineSet
EndChar

StartChar: i
Encoding: 105 105 76
Width: 652
Flags: W
LayerCount: 2
Fore
SplineSet
70 0 m 1,0,1
 64 2 64 2 62 13.5 c 128,-1,2
 60 25 60 25 60 31 c 0,3,4
 60 36 60 36 63 47 c 128,-1,5
 66 58 66 58 70 60 c 0,6,7
 83 66 83 66 107 69.5 c 128,-1,8
 131 73 131 73 155 83.5 c 128,-1,9
 179 94 179 94 197 116.5 c 128,-1,10
 215 139 215 139 215 183 c 2,11,-1
 215 663 l 2,12,13
 215 687 215 687 202 700.5 c 128,-1,14
 189 714 189 714 169 721 c 128,-1,15
 149 728 149 728 126 732.5 c 128,-1,16
 103 737 103 737 82 743 c 0,17,18
 76 745 76 745 72.5 748.5 c 128,-1,19
 69 752 69 752 69 763 c 0,20,21
 69 768 69 768 72 773 c 128,-1,22
 75 778 75 778 84 783 c 2,23,-1
 415 939 l 2,24,25
 419 941 419 941 423.5 943 c 128,-1,26
 428 945 428 945 430 945 c 0,27,28
 447 945 447 945 447 921 c 2,29,-1
 447 183 l 2,30,31
 447 139 447 139 465 116.5 c 128,-1,32
 483 94 483 94 507 83.5 c 128,-1,33
 531 73 531 73 555 69.5 c 128,-1,34
 579 66 579 66 592 60 c 0,35,36
 596 58 596 58 599 47 c 128,-1,37
 602 36 602 36 602 31 c 0,38,39
 602 25 602 25 600 13.5 c 128,-1,40
 598 2 598 2 592 0 c 1,41,-1
 70 0 l 1,0,1
172 1307 m 256,42,43
 172 1371 172 1371 210 1409 c 128,-1,44
 248 1447 248 1447 312 1447 c 256,45,46
 376 1447 376 1447 414 1409 c 128,-1,47
 452 1371 452 1371 452 1307 c 256,48,49
 452 1243 452 1243 414 1205.5 c 128,-1,50
 376 1168 376 1168 312 1168 c 256,51,52
 248 1168 248 1168 210 1205.5 c 128,-1,53
 172 1243 172 1243 172 1307 c 256,42,43
EndSplineSet
EndChar

StartChar: j
Encoding: 106 106 77
Width: 653
Flags: W
LayerCount: 2
Fore
SplineSet
415 937 m 2,0,1
 419 939 419 939 423.5 941 c 128,-1,2
 428 943 428 943 430 943 c 0,3,4
 447 943 447 943 447 919 c 2,5,-1
 447 -107 l 2,6,7
 447 -233 447 -233 411 -328.5 c 128,-1,8
 375 -424 375 -424 309 -489 c 128,-1,9
 243 -554 243 -554 149.5 -587 c 128,-1,10
 56 -620 56 -620 -58 -620 c 0,11,12
 -94 -620 -94 -620 -128 -609 c 128,-1,13
 -162 -598 -162 -598 -188.5 -580 c 128,-1,14
 -215 -562 -215 -562 -231 -539 c 128,-1,15
 -247 -516 -247 -516 -247 -492 c 0,16,17
 -247 -477 -247 -477 -242 -461 c 128,-1,18
 -237 -445 -237 -445 -227 -432.5 c 128,-1,19
 -217 -420 -217 -420 -202 -412 c 128,-1,20
 -187 -404 -187 -404 -167 -404 c 0,21,22
 -161 -404 -161 -404 -154.5 -405.5 c 128,-1,23
 -148 -407 -148 -407 -133.5 -415 c 128,-1,24
 -119 -423 -119 -423 -94 -441 c 128,-1,25
 -69 -459 -69 -459 -26 -492 c 0,26,27
 -13 -503 -13 -503 0 -509 c 128,-1,28
 13 -515 13 -515 28 -518 c 128,-1,29
 43 -521 43 -521 62.5 -522 c 128,-1,30
 82 -523 82 -523 109 -523 c 0,31,32
 144 -523 144 -523 165 -498.5 c 128,-1,33
 186 -474 186 -474 197 -439 c 128,-1,34
 208 -404 208 -404 211.5 -365 c 128,-1,35
 215 -326 215 -326 215 -297 c 2,36,-1
 215 661 l 2,37,38
 215 685 215 685 202 698.5 c 128,-1,39
 189 712 189 712 169 719 c 128,-1,40
 149 726 149 726 126 730.5 c 128,-1,41
 103 735 103 735 82 741 c 0,42,43
 76 743 76 743 72.5 746.5 c 128,-1,44
 69 750 69 750 69 761 c 0,45,46
 69 766 69 766 72 771 c 128,-1,47
 75 776 75 776 84 781 c 2,48,-1
 415 937 l 2,0,1
156 1307 m 256,49,50
 156 1371 156 1371 194 1409 c 128,-1,51
 232 1447 232 1447 296 1447 c 256,52,53
 360 1447 360 1447 398 1409 c 128,-1,54
 436 1371 436 1371 436 1307 c 256,55,56
 436 1243 436 1243 398 1205.5 c 128,-1,57
 360 1168 360 1168 296 1168 c 256,58,59
 232 1168 232 1168 194 1205.5 c 128,-1,60
 156 1243 156 1243 156 1307 c 256,49,50
EndSplineSet
EndChar

StartChar: k
Encoding: 107 107 78
Width: 1278
Flags: W
LayerCount: 2
Fore
SplineSet
586 30 m 0,0,1
 586 16 586 16 584 8 c 128,-1,2
 582 0 582 0 576 0 c 2,3,-1
 54 0 l 1,4,5
 44 2 44 2 44 30 c 0,6,7
 44 56 44 56 54 60 c 0,8,9
 67 66 67 66 91 69.5 c 128,-1,10
 115 73 115 73 139 83.5 c 128,-1,11
 163 94 163 94 181 116.5 c 128,-1,12
 199 139 199 139 199 183 c 2,13,-1
 199 1363 l 2,14,15
 199 1387 199 1387 186 1400.5 c 128,-1,16
 173 1414 173 1414 153 1421 c 128,-1,17
 133 1428 133 1428 110 1432.5 c 128,-1,18
 87 1437 87 1437 66 1443 c 0,19,20
 60 1445 60 1445 56.5 1448.5 c 128,-1,21
 53 1452 53 1452 53 1463 c 0,22,23
 53 1468 53 1468 56 1473 c 128,-1,24
 59 1478 59 1478 68 1483 c 2,25,-1
 399 1639 l 2,26,27
 403 1641 403 1641 407.5 1643 c 128,-1,28
 412 1645 412 1645 414 1645 c 0,29,30
 431 1645 431 1645 431 1621 c 2,31,-1
 431 628 l 2,32,33
 431 598 431 598 442.5 591 c 128,-1,34
 454 584 454 584 471 584 c 0,35,36
 493 584 493 584 526 597.5 c 128,-1,37
 559 611 559 611 596.5 632 c 128,-1,38
 634 653 634 653 671.5 679 c 128,-1,39
 709 705 709 705 738.5 730.5 c 128,-1,40
 768 756 768 756 787 777.5 c 128,-1,41
 806 799 806 799 806 811 c 0,42,43
 806 831 806 831 787 838 c 128,-1,44
 768 845 768 845 744.5 849.5 c 128,-1,45
 721 854 721 854 702 861 c 128,-1,46
 683 868 683 868 683 887 c 0,47,48
 683 901 683 901 696 910.5 c 128,-1,49
 709 920 709 920 724 920 c 2,50,-1
 1145 920 l 2,51,52
 1190 920 1190 920 1190 897 c 0,53,54
 1190 881 1190 881 1167 870.5 c 128,-1,55
 1144 860 1144 860 1110 850 c 128,-1,56
 1076 840 1076 840 1038.5 826.5 c 128,-1,57
 1001 813 1001 813 973 791 c 2,58,-1
 686 567 l 1,59,60
 686 559 686 559 693 549.5 c 128,-1,61
 700 540 700 540 705 535 c 2,62,-1
 1086 133 l 2,63,64
 1112 106 1112 106 1143.5 91 c 128,-1,65
 1175 76 1175 76 1203 66 c 128,-1,66
 1231 56 1231 56 1249.5 49 c 128,-1,67
 1268 42 1268 42 1268 30 c 256,68,69
 1268 18 1268 18 1266 9 c 128,-1,70
 1264 0 1264 0 1252 0 c 2,71,-1
 707 0 l 2,72,73
 700 0 700 0 698.5 8 c 128,-1,74
 697 16 697 16 697 30 c 0,75,76
 697 55 697 55 707 60 c 256,77,78
 717 65 717 65 728 68 c 128,-1,79
 739 71 739 71 747.5 76.5 c 128,-1,80
 756 82 756 82 761.5 91 c 128,-1,81
 767 100 767 100 767 117 c 0,82,83
 767 128 767 128 753 146.5 c 128,-1,84
 739 165 739 165 724 181 c 2,85,-1
 445 477 l 2,86,87
 445 478 445 478 444 479 c 1,88,-1
 443 479 l 2,89,90
 437 479 437 479 434 464 c 128,-1,91
 431 449 431 449 431 430 c 2,92,-1
 431 183 l 2,93,94
 431 139 431 139 449 116.5 c 128,-1,95
 467 94 467 94 491 83.5 c 128,-1,96
 515 73 515 73 539 69.5 c 128,-1,97
 563 66 563 66 576 60 c 0,98,99
 586 56 586 56 586 30 c 0,0,1
EndSplineSet
EndChar

StartChar: l
Encoding: 108 108 79
Width: 597
Flags: W
LayerCount: 2
Fore
SplineSet
562 30 m 0,0,1
 562 24 562 24 560 13 c 128,-1,2
 558 2 558 2 552 0 c 1,3,-1
 30 0 l 1,4,5
 24 2 24 2 22 13 c 128,-1,6
 20 24 20 24 20 30 c 0,7,8
 20 35 20 35 23 46 c 128,-1,9
 26 57 26 57 30 59 c 0,10,11
 43 65 43 65 67 68.5 c 128,-1,12
 91 72 91 72 115 82.5 c 128,-1,13
 139 93 139 93 157 115.5 c 128,-1,14
 175 138 175 138 175 182 c 2,15,-1
 175 1348 l 2,16,17
 175 1372 175 1372 162 1385.5 c 128,-1,18
 149 1399 149 1399 129 1406 c 128,-1,19
 109 1413 109 1413 86 1417.5 c 128,-1,20
 63 1422 63 1422 42 1428 c 1,21,22
 29 1433 29 1433 29 1456 c 0,23,24
 29 1461 29 1461 32 1469.5 c 128,-1,25
 35 1478 35 1478 44 1483 c 2,26,-1
 375 1639 l 2,27,28
 379 1641 379 1641 384 1643 c 128,-1,29
 389 1645 389 1645 395 1645 c 0,30,31
 403 1645 403 1645 405 1639.5 c 128,-1,32
 407 1634 407 1634 407 1621 c 2,33,-1
 407 182 l 2,34,35
 407 138 407 138 425 115.5 c 128,-1,36
 443 93 443 93 467 82.5 c 128,-1,37
 491 72 491 72 515 68.5 c 128,-1,38
 539 65 539 65 552 59 c 0,39,40
 556 57 556 57 559 46 c 128,-1,41
 562 35 562 35 562 30 c 0,0,1
EndSplineSet
EndChar

StartChar: m
Encoding: 109 109 80
Width: 1884
Flags: W
LayerCount: 2
Fore
SplineSet
397 970 m 2,0,1
 401 972 401 972 405.5 974 c 128,-1,2
 410 976 410 976 412 976 c 0,3,4
 429 976 429 976 429 952 c 2,5,-1
 429 786 l 1,6,7
 430 780 430 780 437 780 c 0,8,9
 443 780 443 780 451 784 c 0,10,11
 496 808 496 808 539 833.5 c 128,-1,12
 582 859 582 859 625.5 880 c 128,-1,13
 669 901 669 901 713 914 c 128,-1,14
 757 927 757 927 802 927 c 256,15,16
 847 927 847 927 878 916 c 128,-1,17
 909 905 909 905 930 887.5 c 128,-1,18
 951 870 951 870 964.5 849.5 c 128,-1,19
 978 829 978 829 988 810 c 0,20,21
 989 807 989 807 992 802.5 c 128,-1,22
 995 798 995 798 999.5 793 c 128,-1,23
 1004 788 1004 788 1008.5 784.5 c 128,-1,24
 1013 781 1013 781 1018 781 c 0,25,26
 1032 782 1032 782 1047 790 c 0,27,28
 1144 839 1144 839 1205.5 866.5 c 128,-1,29
 1267 894 1267 894 1308.5 907.5 c 128,-1,30
 1350 921 1350 921 1378.5 924 c 128,-1,31
 1407 927 1407 927 1437 927 c 0,32,33
 1496 927 1496 927 1538.5 906 c 128,-1,34
 1581 885 1581 885 1610 850.5 c 128,-1,35
 1639 816 1639 816 1656.5 771.5 c 128,-1,36
 1674 727 1674 727 1683 680.5 c 128,-1,37
 1692 634 1692 634 1695 588.5 c 128,-1,38
 1698 543 1698 543 1698 506 c 0,39,40
 1698 471 1698 471 1696.5 441 c 128,-1,41
 1695 411 1695 411 1693.5 375.5 c 128,-1,42
 1692 340 1692 340 1690.5 295 c 128,-1,43
 1689 250 1689 250 1689 186 c 0,44,45
 1689 156 1689 156 1700 136 c 128,-1,46
 1711 116 1711 116 1728.5 103 c 128,-1,47
 1746 90 1746 90 1767 83.5 c 128,-1,48
 1788 77 1788 77 1808 73 c 128,-1,49
 1828 69 1828 69 1844.5 66.5 c 128,-1,50
 1861 64 1861 64 1870 60 c 0,51,52
 1874 58 1874 58 1877 47 c 128,-1,53
 1880 36 1880 36 1880 31 c 0,54,55
 1880 25 1880 25 1878 13.5 c 128,-1,56
 1876 2 1876 2 1870 0 c 1,57,-1
 1312 0 l 1,58,59
 1306 2 1306 2 1304 13.5 c 128,-1,60
 1302 25 1302 25 1302 31 c 0,61,62
 1302 36 1302 36 1305 47 c 128,-1,63
 1308 58 1308 58 1312 60 c 0,64,65
 1325 66 1325 66 1349 69.5 c 128,-1,66
 1373 73 1373 73 1397 84.5 c 128,-1,67
 1421 96 1421 96 1438.5 120 c 128,-1,68
 1456 144 1456 144 1456 192 c 2,69,-1
 1456 194 l 1,70,71
 1461 225 1461 225 1462.5 262.5 c 128,-1,72
 1464 300 1464 300 1464 345 c 0,73,74
 1464 367 1464 367 1463.5 386.5 c 128,-1,75
 1463 406 1463 406 1463 426.5 c 128,-1,76
 1463 447 1463 447 1462.5 471 c 128,-1,77
 1462 495 1462 495 1462 526 c 0,78,79
 1462 575 1462 575 1457.5 624 c 128,-1,80
 1453 673 1453 673 1435.5 712 c 128,-1,81
 1418 751 1418 751 1384 775.5 c 128,-1,82
 1350 800 1350 800 1290 800 c 0,83,84
 1280 800 1280 800 1268 797.5 c 128,-1,85
 1256 795 1256 795 1235 787.5 c 128,-1,86
 1214 780 1214 780 1179 765 c 128,-1,87
 1144 750 1144 750 1087 726 c 1,88,89
 1079 721 1079 721 1070.5 714.5 c 128,-1,90
 1062 708 1062 708 1061 698 c 1,91,-1
 1061 186 l 2,92,93
 1061 141 1061 141 1079 117.5 c 128,-1,94
 1097 94 1097 94 1121 83.5 c 128,-1,95
 1145 73 1145 73 1169 69.5 c 128,-1,96
 1193 66 1193 66 1206 60 c 0,97,98
 1210 58 1210 58 1213 47 c 128,-1,99
 1216 36 1216 36 1216 31 c 0,100,101
 1216 25 1216 25 1214 13.5 c 128,-1,102
 1212 2 1212 2 1206 0 c 1,103,-1
 684 0 l 1,104,105
 678 2 678 2 676 13.5 c 128,-1,106
 674 25 674 25 674 31 c 0,107,108
 674 36 674 36 677 47 c 128,-1,109
 680 58 680 58 684 60 c 0,110,111
 697 66 697 66 721 69.5 c 128,-1,112
 745 73 745 73 769 83.5 c 128,-1,113
 793 94 793 94 811 117.5 c 128,-1,114
 829 141 829 141 829 186 c 2,115,-1
 829 622 l 2,116,117
 829 661 829 661 823 693.5 c 128,-1,118
 817 726 817 726 800 749.5 c 128,-1,119
 783 773 783 773 752.5 786 c 128,-1,120
 722 799 722 799 673 799 c 0,121,122
 650 799 650 799 615 786.5 c 128,-1,123
 580 774 580 774 543.5 755 c 128,-1,124
 507 736 507 736 475.5 715 c 128,-1,125
 444 694 444 694 429 676 c 1,126,-1
 429 186 l 2,127,128
 429 141 429 141 447 117.5 c 128,-1,129
 465 94 465 94 489 83.5 c 128,-1,130
 513 73 513 73 537 69.5 c 128,-1,131
 561 66 561 66 574 60 c 0,132,133
 578 58 578 58 581 47 c 128,-1,134
 584 36 584 36 584 31 c 0,135,136
 584 25 584 25 582 13.5 c 128,-1,137
 580 2 580 2 574 0 c 1,138,-1
 52 0 l 1,139,140
 46 2 46 2 44 13.5 c 128,-1,141
 42 25 42 25 42 31 c 0,142,143
 42 36 42 36 45 47 c 128,-1,144
 48 58 48 58 52 60 c 0,145,146
 65 66 65 66 89 69.5 c 128,-1,147
 113 73 113 73 137 83.5 c 128,-1,148
 161 94 161 94 179 116.5 c 128,-1,149
 197 139 197 139 197 184 c 2,150,-1
 197 693 l 2,151,152
 197 717 197 717 184 730.5 c 128,-1,153
 171 744 171 744 151 751 c 128,-1,154
 131 758 131 758 108 762.5 c 128,-1,155
 85 767 85 767 64 773 c 0,156,157
 58 775 58 775 54.5 778.5 c 128,-1,158
 51 782 51 782 51 793 c 0,159,160
 51 798 51 798 54 803 c 128,-1,161
 57 808 57 808 66 813 c 2,162,-1
 397 970 l 2,0,1
EndSplineSet
EndChar

StartChar: n
Encoding: 110 110 81
Width: 1316
Flags: W
LayerCount: 2
Fore
SplineSet
407 970 m 2,0,1
 411 972 411 972 415.5 974 c 128,-1,2
 420 976 420 976 422 976 c 0,3,4
 439 976 439 976 439 952 c 2,5,-1
 439 796 l 1,6,7
 442 786 442 786 447 786 c 256,8,9
 452 786 452 786 455 786.5 c 128,-1,10
 458 787 458 787 463 790 c 0,11,12
 527 823 527 823 571.5 845.5 c 128,-1,13
 616 868 616 868 648.5 883.5 c 128,-1,14
 681 899 681 899 706.5 907.5 c 128,-1,15
 732 916 732 916 758 920.5 c 128,-1,16
 784 925 784 925 815 926 c 128,-1,17
 846 927 846 927 891 927 c 0,18,19
 940 927 940 927 976 906 c 128,-1,20
 1012 885 1012 885 1036.5 850.5 c 128,-1,21
 1061 816 1061 816 1076.5 771.5 c 128,-1,22
 1092 727 1092 727 1100 680.5 c 128,-1,23
 1108 634 1108 634 1111 588.5 c 128,-1,24
 1114 543 1114 543 1114 506 c 0,25,26
 1114 471 1114 471 1112.5 441 c 128,-1,27
 1111 411 1111 411 1109.5 375.5 c 128,-1,28
 1108 340 1108 340 1106.5 295 c 128,-1,29
 1105 250 1105 250 1105 186 c 0,30,31
 1105 156 1105 156 1116 136 c 128,-1,32
 1127 116 1127 116 1144.5 103 c 128,-1,33
 1162 90 1162 90 1183 83.5 c 128,-1,34
 1204 77 1204 77 1224 73 c 128,-1,35
 1244 69 1244 69 1260.5 66.5 c 128,-1,36
 1277 64 1277 64 1286 60 c 0,37,38
 1290 58 1290 58 1293 47 c 128,-1,39
 1296 36 1296 36 1296 31 c 0,40,41
 1296 25 1296 25 1294 13.5 c 128,-1,42
 1292 2 1292 2 1286 0 c 1,43,-1
 728 0 l 1,44,45
 722 2 722 2 720 13.5 c 128,-1,46
 718 25 718 25 718 31 c 0,47,48
 718 36 718 36 721 47 c 128,-1,49
 724 58 724 58 728 60 c 0,50,51
 741 66 741 66 762.5 69.5 c 128,-1,52
 784 73 784 73 806.5 85 c 128,-1,53
 829 97 829 97 847.5 121.5 c 128,-1,54
 866 146 866 146 872 194 c 0,55,56
 874 209 874 209 875.5 222 c 128,-1,57
 877 235 877 235 878 248.5 c 128,-1,58
 879 262 879 262 879.5 278 c 128,-1,59
 880 294 880 294 880 315 c 0,60,61
 880 360 880 360 879 411 c 128,-1,62
 878 462 878 462 878 525 c 0,63,64
 878 574 878 574 873.5 622 c 128,-1,65
 869 670 869 670 851.5 708 c 128,-1,66
 834 746 834 746 800 770 c 128,-1,67
 766 794 766 794 706 794 c 0,68,69
 685 794 685 794 668.5 791.5 c 128,-1,70
 652 789 652 789 628.5 780 c 128,-1,71
 605 771 605 771 567 753 c 128,-1,72
 529 735 529 735 465 704 c 1,73,74
 457 699 457 699 448.5 692.5 c 128,-1,75
 440 686 440 686 439 676 c 1,76,-1
 439 186 l 2,77,78
 439 141 439 141 457 117.5 c 128,-1,79
 475 94 475 94 499 83.5 c 128,-1,80
 523 73 523 73 547 69.5 c 128,-1,81
 571 66 571 66 584 60 c 0,82,83
 588 58 588 58 591 47 c 128,-1,84
 594 36 594 36 594 31 c 0,85,86
 594 25 594 25 592 13.5 c 128,-1,87
 590 2 590 2 584 0 c 1,88,-1
 62 0 l 1,89,90
 56 2 56 2 54 13.5 c 128,-1,91
 52 25 52 25 52 31 c 0,92,93
 52 36 52 36 55 47 c 128,-1,94
 58 58 58 58 62 60 c 0,95,96
 75 66 75 66 99 69.5 c 128,-1,97
 123 73 123 73 147 83.5 c 128,-1,98
 171 94 171 94 189 117.5 c 128,-1,99
 207 141 207 141 207 186 c 2,100,-1
 207 694 l 2,101,102
 207 718 207 718 194 731.5 c 128,-1,103
 181 745 181 745 161 752 c 128,-1,104
 141 759 141 759 118 763.5 c 128,-1,105
 95 768 95 768 74 774 c 0,106,107
 68 776 68 776 64.5 779.5 c 128,-1,108
 61 783 61 783 61 794 c 0,109,110
 61 799 61 799 64 804 c 128,-1,111
 67 809 67 809 76 814 c 2,112,-1
 407 970 l 2,0,1
EndSplineSet
EndChar

StartChar: o
Encoding: 111 111 82
Width: 1197
Flags: W
LayerCount: 2
Fore
SplineSet
75 467 m 0,0,1
 75 561 75 561 116.5 647 c 128,-1,2
 158 733 158 733 228 799 c 128,-1,3
 298 865 298 865 391 904 c 128,-1,4
 484 943 484 943 587 943 c 0,5,6
 695 943 695 943 792 906 c 128,-1,7
 889 869 889 869 962.5 804.5 c 128,-1,8
 1036 740 1036 740 1079 652.5 c 128,-1,9
 1122 565 1122 565 1122 463 c 0,10,11
 1122 359 1122 359 1082.5 269.5 c 128,-1,12
 1043 180 1043 180 973 114 c 128,-1,13
 903 48 903 48 806.5 10.5 c 128,-1,14
 710 -27 710 -27 596 -27 c 0,15,16
 483 -27 483 -27 387.5 11.5 c 128,-1,17
 292 50 292 50 222.5 116.5 c 128,-1,18
 153 183 153 183 114 273 c 128,-1,19
 75 363 75 363 75 467 c 0,0,1
331 530 m 0,20,21
 331 476 331 476 339 418.5 c 128,-1,22
 347 361 347 361 363 306.5 c 128,-1,23
 379 252 379 252 403.5 204 c 128,-1,24
 428 156 428 156 462 119.5 c 128,-1,25
 496 83 496 83 539 62 c 128,-1,26
 582 41 582 41 636 41 c 0,27,28
 695 41 695 41 737.5 71.5 c 128,-1,29
 780 102 780 102 807.5 151 c 128,-1,30
 835 200 835 200 848 261 c 128,-1,31
 861 322 861 322 861 383 c 0,32,33
 861 432 861 432 852 486.5 c 128,-1,34
 843 541 843 541 825 594.5 c 128,-1,35
 807 648 807 648 781 697 c 128,-1,36
 755 746 755 746 720.5 783.5 c 128,-1,37
 686 821 686 821 643.5 843 c 128,-1,38
 601 865 601 865 551 865 c 0,39,40
 495 865 495 865 453.5 834.5 c 128,-1,41
 412 804 412 804 385 755.5 c 128,-1,42
 358 707 358 707 344.5 647.5 c 128,-1,43
 331 588 331 588 331 530 c 0,20,21
EndSplineSet
EndChar

StartChar: p
Encoding: 112 112 83
Width: 1166
Flags: W
LayerCount: 2
Fore
SplineSet
367 970 m 2,0,1
 371 972 371 972 375.5 974 c 128,-1,2
 380 976 380 976 382 976 c 0,3,4
 399 976 399 976 399 952 c 2,5,-1
 399 846 l 2,6,7
 399 841 399 841 403.5 838 c 128,-1,8
 408 835 408 835 411 835 c 0,9,10
 416 835 416 835 420.5 837.5 c 128,-1,11
 425 840 425 840 429 842 c 0,12,13
 469 866 469 866 501 882.5 c 128,-1,14
 533 899 533 899 562 908.5 c 128,-1,15
 591 918 591 918 622 922 c 128,-1,16
 653 926 653 926 692 926 c 0,17,18
 777 926 777 926 844.5 885.5 c 128,-1,19
 912 845 912 845 959 779.5 c 128,-1,20
 1006 714 1006 714 1031 632 c 128,-1,21
 1056 550 1056 550 1056 467 c 0,22,23
 1056 406 1056 406 1039 345 c 128,-1,24
 1022 284 1022 284 992 229.5 c 128,-1,25
 962 175 962 175 920 128 c 128,-1,26
 878 81 878 81 827.5 46.5 c 128,-1,27
 777 12 777 12 719.5 -7.5 c 128,-1,28
 662 -27 662 -27 601 -27 c 0,29,30
 556 -27 556 -27 513.5 -21 c 128,-1,31
 471 -15 471 -15 420 -4 c 1,32,33
 403 -4 403 -4 401.5 -16 c 128,-1,34
 400 -28 400 -28 399 -41 c 1,35,-1
 399 -448 l 2,36,37
 399 -477 399 -477 411.5 -496.5 c 128,-1,38
 424 -516 424 -516 443.5 -528.5 c 128,-1,39
 463 -541 463 -541 486.5 -547.5 c 128,-1,40
 510 -554 510 -554 532 -558 c 128,-1,41
 554 -562 554 -562 572 -564.5 c 128,-1,42
 590 -567 590 -567 599 -571 c 0,43,44
 609 -575 609 -575 609 -584 c 0,45,46
 609 -598 609 -598 599 -600 c 1,47,-1
 22 -600 l 1,48,49
 12 -598 12 -598 12 -584 c 0,50,51
 12 -575 12 -575 22 -571 c 0,52,53
 35 -565 35 -565 59 -561.5 c 128,-1,54
 83 -558 83 -558 107 -547.5 c 128,-1,55
 131 -537 131 -537 149 -514.5 c 128,-1,56
 167 -492 167 -492 167 -448 c 2,57,-1
 167 694 l 2,58,59
 167 718 167 718 154 731.5 c 128,-1,60
 141 745 141 745 121 752 c 128,-1,61
 101 759 101 759 78 763.5 c 128,-1,62
 55 768 55 768 34 774 c 0,63,64
 28 776 28 776 24.5 779.5 c 128,-1,65
 21 783 21 783 21 794 c 0,66,67
 21 799 21 799 24 804 c 128,-1,68
 27 809 27 809 36 814 c 2,69,-1
 367 970 l 2,0,1
603 813 m 0,70,71
 549 813 549 813 504.5 798 c 128,-1,72
 460 783 460 783 414 749 c 0,73,74
 412 748 412 748 409.5 745.5 c 128,-1,75
 407 743 407 743 405 741 c 2,76,-1
 399 735 l 1,77,-1
 399 201 l 2,78,79
 399 198 399 198 400 184.5 c 128,-1,80
 401 171 401 171 403 160 c 0,81,82
 406 139 406 139 429 121.5 c 128,-1,83
 452 104 452 104 481.5 91.5 c 128,-1,84
 511 79 511 79 540.5 72.5 c 128,-1,85
 570 66 570 66 588 66 c 0,86,87
 654 66 654 66 699.5 90 c 128,-1,88
 745 114 745 114 773 154.5 c 128,-1,89
 801 195 801 195 813.5 249 c 128,-1,90
 826 303 826 303 826 364 c 0,91,92
 826 411 826 411 821 462.5 c 128,-1,93
 816 514 816 514 805.5 564 c 128,-1,94
 795 614 795 614 777.5 659 c 128,-1,95
 760 704 760 704 735.5 738 c 128,-1,96
 711 772 711 772 678 792.5 c 128,-1,97
 645 813 645 813 603 813 c 0,70,71
EndSplineSet
EndChar

StartChar: q
Encoding: 113 113 84
Width: 1172
Flags: W
LayerCount: 2
Fore
SplineSet
1009 -448 m 2,0,1
 1009 -492 1009 -492 1027 -514.5 c 128,-1,2
 1045 -537 1045 -537 1069 -547.5 c 128,-1,3
 1093 -558 1093 -558 1117 -561.5 c 128,-1,4
 1141 -565 1141 -565 1154 -571 c 0,5,6
 1164 -575 1164 -575 1164 -584 c 0,7,8
 1164 -598 1164 -598 1154 -600 c 1,9,-1
 542 -600 l 1,10,11
 532 -598 532 -598 532 -584 c 0,12,13
 532 -575 532 -575 542 -571 c 0,14,15
 551 -567 551 -567 571.5 -564.5 c 128,-1,16
 592 -562 592 -562 618 -558 c 128,-1,17
 644 -554 644 -554 672 -547.5 c 128,-1,18
 700 -541 700 -541 723.5 -528.5 c 128,-1,19
 747 -516 747 -516 762 -497 c 128,-1,20
 777 -478 777 -478 777 -448 c 2,21,-1
 777 70 l 2,22,23
 777 75 777 75 776 75.5 c 128,-1,24
 775 76 775 76 773 76 c 0,25,26
 768 76 768 76 755 68 c 0,27,28
 702 38 702 38 667.5 19.5 c 128,-1,29
 633 1 633 1 604 -9.5 c 128,-1,30
 575 -20 575 -20 546 -23.5 c 128,-1,31
 517 -27 517 -27 475 -27 c 0,32,33
 398 -27 398 -27 330 10 c 128,-1,34
 262 47 262 47 211 110 c 128,-1,35
 160 173 160 173 130 255.5 c 128,-1,36
 100 338 100 338 100 428 c 0,37,38
 100 544 100 544 143.5 639.5 c 128,-1,39
 187 735 187 735 259.5 802.5 c 128,-1,40
 332 870 332 870 425.5 907 c 128,-1,41
 519 944 519 944 619 944 c 0,42,43
 685 944 685 944 744 927.5 c 128,-1,44
 803 911 803 911 860 880 c 1,45,-1
 867 880 l 2,46,47
 880 880 880 880 899 891 c 128,-1,48
 918 902 918 902 937 915.5 c 128,-1,49
 956 929 956 929 971.5 940.5 c 128,-1,50
 987 952 987 952 993 952 c 2,51,-1
 1003 952 l 2,52,53
 1005 952 1005 952 1007 951.5 c 128,-1,54
 1009 951 1009 951 1009 946 c 2,55,-1
 1009 -448 l 2,0,1
777 626 m 2,56,57
 777 753 777 753 724 810 c 128,-1,58
 671 867 671 867 580 867 c 0,59,60
 531 867 531 867 485.5 834 c 128,-1,61
 440 801 440 801 404.5 741.5 c 128,-1,62
 369 682 369 682 348 598.5 c 128,-1,63
 327 515 327 515 327 415 c 0,64,65
 327 340 327 340 351.5 280.5 c 128,-1,66
 376 221 376 221 414 179.5 c 128,-1,67
 452 138 452 138 498.5 116 c 128,-1,68
 545 94 545 94 590 94 c 0,69,70
 656 94 656 94 721 122 c 0,71,72
 742 131 742 131 759.5 150 c 128,-1,73
 777 169 777 169 777 182 c 2,74,-1
 777 626 l 2,56,57
EndSplineSet
EndChar

StartChar: r
Encoding: 114 114 85
Width: 823
Flags: W
LayerCount: 2
Fore
SplineSet
407 939 m 2,0,1
 411 941 411 941 415.5 943 c 128,-1,2
 420 945 420 945 422 945 c 0,3,4
 439 945 439 945 439 921 c 2,5,-1
 439 751 l 2,6,7
 439 748 439 748 439.5 743.5 c 128,-1,8
 440 739 440 739 445 739 c 256,9,10
 450 739 450 739 453 742.5 c 128,-1,11
 456 746 456 746 459 749 c 0,12,13
 477 773 477 773 499.5 802.5 c 128,-1,14
 522 832 522 832 547.5 858 c 128,-1,15
 573 884 573 884 600 901.5 c 128,-1,16
 627 919 627 919 653 919 c 0,17,18
 671 919 671 919 700 909 c 128,-1,19
 729 899 729 899 756.5 885.5 c 128,-1,20
 784 872 784 872 803.5 857.5 c 128,-1,21
 823 843 823 843 823 834 c 256,22,23
 823 825 823 825 814 800.5 c 128,-1,24
 805 776 805 776 791.5 751 c 128,-1,25
 778 726 778 726 762.5 706.5 c 128,-1,26
 747 687 747 687 734 687 c 2,27,-1
 732 687 l 1,28,29
 714 693 714 693 695.5 701.5 c 128,-1,30
 677 710 677 710 658 718.5 c 128,-1,31
 639 727 639 727 619.5 732.5 c 128,-1,32
 600 738 600 738 580 738 c 0,33,34
 550 738 550 738 524 725.5 c 128,-1,35
 498 713 498 713 479.5 693.5 c 128,-1,36
 461 674 461 674 450 650 c 128,-1,37
 439 626 439 626 439 604 c 2,38,-1
 439 182 l 2,39,40
 439 153 439 153 451.5 133.5 c 128,-1,41
 464 114 464 114 483.5 101.5 c 128,-1,42
 503 89 503 89 526.5 82.5 c 128,-1,43
 550 76 550 76 572 72 c 128,-1,44
 594 68 594 68 612 65.5 c 128,-1,45
 630 63 630 63 639 59 c 0,46,47
 649 55 649 55 649 31 c 0,48,49
 649 2 649 2 639 0 c 1,50,-1
 62 0 l 1,51,52
 52 2 52 2 52 31 c 0,53,54
 52 55 52 55 62 59 c 0,55,56
 75 65 75 65 99 68.5 c 128,-1,57
 123 72 123 72 147 82.5 c 128,-1,58
 171 93 171 93 189 115.5 c 128,-1,59
 207 138 207 138 207 182 c 2,60,-1
 207 663 l 2,61,62
 207 687 207 687 194 700.5 c 128,-1,63
 181 714 181 714 161 721 c 128,-1,64
 141 728 141 728 118 732.5 c 128,-1,65
 95 737 95 737 74 743 c 0,66,67
 68 745 68 745 64.5 748.5 c 128,-1,68
 61 752 61 752 61 763 c 0,69,70
 61 768 61 768 64 773 c 128,-1,71
 67 778 67 778 76 783 c 2,72,-1
 407 939 l 2,0,1
EndSplineSet
EndChar

StartChar: s
Encoding: 115 115 86
Width: 758
Flags: W
LayerCount: 2
Fore
SplineSet
197 6 m 0,0,1
 188 6 188 6 181 1 c 128,-1,2
 174 -4 174 -4 167.5 -10.5 c 128,-1,3
 161 -17 161 -17 155 -22 c 128,-1,4
 149 -27 149 -27 141 -27 c 2,5,-1
 105 -27 l 2,6,7
 103 -27 103 -27 99 2 c 128,-1,8
 95 31 95 31 90.5 71.5 c 128,-1,9
 86 112 86 112 83 155.5 c 128,-1,10
 80 199 80 199 80 228 c 0,11,12
 80 244 80 244 91.5 248.5 c 128,-1,13
 103 253 103 253 116 253 c 0,14,15
 123 253 123 253 131.5 248 c 128,-1,16
 140 243 140 243 147.5 235.5 c 128,-1,17
 155 228 155 228 161 220 c 128,-1,18
 167 212 167 212 170 206 c 0,19,20
 187 169 187 169 204 139 c 128,-1,21
 221 109 221 109 243 88 c 128,-1,22
 265 67 265 67 295 55.5 c 128,-1,23
 325 44 325 44 367 44 c 0,24,25
 399 44 399 44 419 55 c 128,-1,26
 439 66 439 66 450 84 c 128,-1,27
 461 102 461 102 464.5 125 c 128,-1,28
 468 148 468 148 468 173 c 0,29,30
 468 223 468 223 438 257.5 c 128,-1,31
 408 292 408 292 363.5 322 c 128,-1,32
 319 352 319 352 266.5 383 c 128,-1,33
 214 414 214 414 169.5 455 c 128,-1,34
 125 496 125 496 95 552.5 c 128,-1,35
 65 609 65 609 65 692 c 0,36,37
 65 740 65 740 95 785.5 c 128,-1,38
 125 831 125 831 173 866 c 128,-1,39
 221 901 221 901 280.5 922 c 128,-1,40
 340 943 340 943 399 943 c 0,41,42
 430 943 430 943 461.5 937.5 c 128,-1,43
 493 932 493 932 519.5 925 c 128,-1,44
 546 918 546 918 564.5 911 c 128,-1,45
 583 904 583 904 588 901 c 0,46,47
 595 896 595 896 599.5 885.5 c 128,-1,48
 604 875 604 875 605.5 852 c 128,-1,49
 607 829 607 829 607.5 790.5 c 128,-1,50
 608 752 608 752 608 690 c 0,51,52
 608 673 608 673 595.5 665.5 c 128,-1,53
 583 658 583 658 571 658 c 0,54,55
 560 658 560 658 549.5 662 c 128,-1,56
 539 666 539 666 536 675 c 0,57,58
 524 706 524 706 509 737.5 c 128,-1,59
 494 769 494 769 474.5 794.5 c 128,-1,60
 455 820 455 820 429 835.5 c 128,-1,61
 403 851 403 851 369 851 c 0,62,63
 349 851 349 851 329 846 c 128,-1,64
 309 841 309 841 293 826.5 c 128,-1,65
 277 812 277 812 267.5 787 c 128,-1,66
 258 762 258 762 258 723 c 0,67,68
 258 689 258 689 289.5 660 c 128,-1,69
 321 631 321 631 368 601.5 c 128,-1,70
 415 572 415 572 470.5 538 c 128,-1,71
 526 504 526 504 573 460 c 128,-1,72
 620 416 620 416 651.5 358.5 c 128,-1,73
 683 301 683 301 683 223 c 0,74,75
 683 165 683 165 653 118.5 c 128,-1,76
 623 72 623 72 576 40 c 128,-1,77
 529 8 529 8 471.5 -9.5 c 128,-1,78
 414 -27 414 -27 359 -27 c 0,79,80
 331 -27 331 -27 303 -22 c 128,-1,81
 275 -17 275 -17 252 -10.5 c 128,-1,82
 229 -4 229 -4 214 1 c 128,-1,83
 199 6 199 6 197 6 c 0,0,1
EndSplineSet
EndChar

StartChar: t
Encoding: 116 116 87
Width: 723
Flags: W
LayerCount: 2
Fore
SplineSet
151 771 m 1,0,-1
 76 771 l 2,1,2
 62 771 62 771 54 778 c 128,-1,3
 46 785 46 785 45 793 c 0,4,5
 45 798 45 798 47 804 c 128,-1,6
 49 810 49 810 52 812 c 0,7,8
 72 825 72 825 95.5 842.5 c 128,-1,9
 119 860 119 860 142 879 c 128,-1,10
 165 898 165 898 187 917 c 128,-1,11
 209 936 209 936 226 952 c 1,12,13
 236 963 236 963 253.5 985 c 128,-1,14
 271 1007 271 1007 293.5 1028.5 c 128,-1,15
 316 1050 316 1050 342 1066.5 c 128,-1,16
 368 1083 368 1083 395 1083 c 0,17,18
 401 1083 401 1083 409 1079 c 128,-1,19
 417 1075 417 1075 417 1069 c 0,20,21
 417 1062 417 1062 413.5 1047.5 c 128,-1,22
 410 1033 410 1033 405 1015 c 128,-1,23
 400 997 400 997 394 977 c 128,-1,24
 388 957 388 957 383 938 c 1,25,26
 383 930 383 930 385.5 925 c 128,-1,27
 388 920 388 920 399 919 c 1,28,-1
 654 919 l 2,29,30
 670 919 670 919 676 913.5 c 128,-1,31
 682 908 682 908 685 899 c 0,32,33
 687 894 687 894 689 878.5 c 128,-1,34
 691 863 691 863 693 844.5 c 128,-1,35
 695 826 695 826 696.5 807.5 c 128,-1,36
 698 789 698 789 698 777 c 0,37,38
 698 771 698 771 690 771 c 2,39,-1
 389 771 l 2,40,41
 384 771 384 771 383.5 769 c 128,-1,42
 383 767 383 767 383 762 c 2,43,-1
 383 265 l 2,44,45
 383 233 383 233 391 209 c 128,-1,46
 399 185 399 185 411.5 169 c 128,-1,47
 424 153 424 153 440 145 c 128,-1,48
 456 137 456 137 472 137 c 0,49,50
 518 137 518 137 547 150.5 c 128,-1,51
 576 164 576 164 597 180 c 128,-1,52
 618 196 618 196 634 209.5 c 128,-1,53
 650 223 650 223 670 223 c 0,54,55
 684 223 684 223 686.5 212 c 128,-1,56
 689 201 689 201 689 195 c 0,57,58
 689 182 689 182 685.5 174.5 c 128,-1,59
 682 167 682 167 680 163 c 0,60,61
 679 161 679 161 669 146 c 128,-1,62
 659 131 659 131 642 110 c 128,-1,63
 625 89 625 89 600.5 65 c 128,-1,64
 576 41 576 41 546 20.5 c 128,-1,65
 516 0 516 0 480.5 -13.5 c 128,-1,66
 445 -27 445 -27 406 -27 c 0,67,68
 352 -27 352 -27 305 -7 c 128,-1,69
 258 13 258 13 224 46.5 c 128,-1,70
 190 80 190 80 170.5 123 c 128,-1,71
 151 166 151 166 151 212 c 2,72,-1
 151 771 l 1,0,-1
EndSplineSet
EndChar

StartChar: u
Encoding: 117 117 88
Width: 1200
Flags: W
LayerCount: 2
Fore
SplineSet
164 730 m 1,0,1
 161 759 161 759 137.5 779.5 c 128,-1,2
 114 800 114 800 87 806 c 0,3,4
 80 808 80 808 71.5 808.5 c 128,-1,5
 63 809 63 809 56 810.5 c 128,-1,6
 49 812 49 812 44.5 815.5 c 128,-1,7
 40 819 40 819 40 828 c 0,8,9
 40 836 40 836 42.5 842 c 128,-1,10
 45 848 45 848 56 851 c 2,11,-1
 361 939 l 2,12,13
 367 941 367 941 373.5 942 c 128,-1,14
 380 943 380 943 386 943 c 0,15,16
 396 943 396 943 396 926 c 2,17,-1
 396 251 l 2,18,19
 396 217 396 217 411.5 189.5 c 128,-1,20
 427 162 427 162 452 143 c 128,-1,21
 477 124 477 124 509 114 c 128,-1,22
 541 104 541 104 575 104 c 0,23,24
 599 104 599 104 625 112 c 128,-1,25
 651 120 651 120 675 132.5 c 128,-1,26
 699 145 699 145 720 161.5 c 128,-1,27
 741 178 741 178 754 196 c 1,28,-1
 754 731 l 1,29,30
 751 760 751 760 727.5 780.5 c 128,-1,31
 704 801 704 801 677 807 c 0,32,33
 670 809 670 809 661.5 809.5 c 128,-1,34
 653 810 653 810 646 811.5 c 128,-1,35
 639 813 639 813 634.5 816.5 c 128,-1,36
 630 820 630 820 630 829 c 0,37,38
 630 837 630 837 632.5 843 c 128,-1,39
 635 849 635 849 646 852 c 2,40,-1
 951 939 l 2,41,42
 957 941 957 941 963.5 942 c 128,-1,43
 970 943 970 943 976 943 c 0,44,45
 986 943 986 943 986 934 c 2,46,-1
 986 244 l 1,47,48
 991 200 991 200 1011 181 c 128,-1,49
 1031 162 1031 162 1076 162 c 1,50,-1
 1134 166 l 2,51,52
 1138 166 1138 166 1139 152.5 c 128,-1,53
 1140 139 1140 139 1140 133 c 0,54,55
 1140 131 1140 131 1137.5 120 c 128,-1,56
 1135 109 1135 109 1125 104 c 2,57,-1
 821 -21 l 2,58,59
 819 -22 819 -22 811 -24.5 c 128,-1,60
 803 -27 803 -27 802 -27 c 0,61,62
 795 -27 795 -27 793.5 -18.5 c 128,-1,63
 792 -10 792 -10 792 -2 c 2,64,-1
 792 94 l 1,65,66
 789 98 789 98 782 98 c 0,67,68
 780 98 780 98 778 98 c 128,-1,69
 776 98 776 98 776 96 c 1,70,-1
 616 18 l 1,71,72
 594 10 594 10 575 2.5 c 128,-1,73
 556 -5 556 -5 537.5 -12 c 128,-1,74
 519 -19 519 -19 498 -23 c 128,-1,75
 477 -27 477 -27 452 -27 c 0,76,77
 410 -27 410 -27 359.5 -18.5 c 128,-1,78
 309 -10 309 -10 265.5 8.5 c 128,-1,79
 222 27 222 27 193 56 c 128,-1,80
 164 85 164 85 164 126 c 2,81,-1
 164 730 l 1,82,-1
 164 730 l 1,0,1
EndSplineSet
EndChar

StartChar: v
Encoding: 118 118 89
Width: 1130
Flags: W
LayerCount: 2
Fore
SplineSet
479 -27 m 1,0,1
 471 -27 471 -27 465.5 -15.5 c 128,-1,2
 460 -4 460 -4 457 4 c 2,3,-1
 186 739 l 2,4,5
 169 785 169 785 137 819.5 c 128,-1,6
 105 854 105 854 59 869 c 0,7,8
 52 871 52 871 42 872 c 128,-1,9
 32 873 32 873 22.5 875 c 128,-1,10
 13 877 13 877 6.5 882 c 128,-1,11
 0 887 0 887 0 898 c 0,12,13
 0 908 0 908 5 916.5 c 128,-1,14
 10 925 10 925 22 925 c 2,15,-1
 548 925 l 2,16,17
 554 925 554 925 556 914.5 c 128,-1,18
 558 904 558 904 558 901 c 0,19,20
 558 887 558 887 547 882.5 c 128,-1,21
 536 878 536 878 519 877 c 128,-1,22
 502 876 502 876 483 876.5 c 128,-1,23
 464 877 464 877 447 872 c 128,-1,24
 430 867 430 867 419 854.5 c 128,-1,25
 408 842 408 842 408 816 c 0,26,27
 408 813 408 813 411 803.5 c 128,-1,28
 414 794 414 794 414 792 c 2,29,-1
 613 248 l 2,30,31
 615 243 615 243 619.5 233.5 c 128,-1,32
 624 224 624 224 632 224 c 0,33,34
 636 224 636 224 640.5 228.5 c 128,-1,35
 645 233 645 233 648 239 c 128,-1,36
 651 245 651 245 653 250.5 c 128,-1,37
 655 256 655 256 656 258 c 0,38,39
 703 378 703 378 735 460.5 c 128,-1,40
 767 543 767 543 788 598 c 128,-1,41
 809 653 809 653 820.5 684.5 c 128,-1,42
 832 716 832 716 837 733 c 128,-1,43
 842 750 842 750 843 757.5 c 128,-1,44
 844 765 844 765 844 772 c 0,45,46
 844 807 844 807 822 829.5 c 128,-1,47
 800 852 800 852 768 864 c 1,48,49
 759 866 759 866 745.5 866 c 128,-1,50
 732 866 732 866 719.5 868 c 128,-1,51
 707 870 707 870 697.5 876 c 128,-1,52
 688 882 688 882 688 896 c 0,53,54
 688 904 688 904 696 912 c 128,-1,55
 704 920 704 920 712 920 c 2,56,-1
 1111 920 l 1,57,58
 1117 919 1117 919 1118.5 912.5 c 128,-1,59
 1120 906 1120 906 1120 895 c 0,60,61
 1120 888 1120 888 1118 884.5 c 128,-1,62
 1116 881 1116 881 1108.5 878.5 c 128,-1,63
 1101 876 1101 876 1087.5 874 c 128,-1,64
 1074 872 1074 872 1052 868 c 256,65,66
 1030 864 1030 864 1013.5 847.5 c 128,-1,67
 997 831 997 831 983.5 809 c 128,-1,68
 970 787 970 787 960 763.5 c 128,-1,69
 950 740 950 740 941 721 c 1,70,71
 873 547 873 547 826.5 426 c 128,-1,72
 780 305 780 305 749 225 c 128,-1,73
 718 145 718 145 700.5 100.5 c 128,-1,74
 683 56 683 56 674 34 c 128,-1,75
 665 12 665 12 663 7 c 128,-1,76
 661 2 661 2 661 2 c 2,77,78
 658 -5 658 -5 652.5 -16 c 128,-1,79
 647 -27 647 -27 639 -27 c 2,80,-1
 479 -27 l 1,81,-1
 479 -27 l 1,0,1
EndSplineSet
EndChar

StartChar: w
Encoding: 119 119 90
Width: 1723
Flags: W
LayerCount: 2
Fore
SplineSet
481 -27 m 1,0,1
 473 -27 473 -27 467.5 -15.5 c 128,-1,2
 462 -4 462 -4 459 4 c 2,3,-1
 194 721 l 2,4,5
 177 767 177 767 145 801.5 c 128,-1,6
 113 836 113 836 67 851 c 0,7,8
 60 853 60 853 50 855.5 c 128,-1,9
 40 858 40 858 30.5 862 c 128,-1,10
 21 866 21 866 14.5 872.5 c 128,-1,11
 8 879 8 879 8 890 c 0,12,13
 8 900 8 900 14 910 c 128,-1,14
 20 920 20 920 32 920 c 2,15,-1
 557 920 l 2,16,17
 563 920 563 920 564 908 c 128,-1,18
 565 896 565 896 565 893 c 0,19,20
 565 879 565 879 554 873.5 c 128,-1,21
 543 868 543 868 527 866.5 c 128,-1,22
 511 865 511 865 492 863.5 c 128,-1,23
 473 862 473 862 457 856.5 c 128,-1,24
 441 851 441 851 430 837.5 c 128,-1,25
 419 824 419 824 419 798 c 0,26,27
 419 795 419 795 420 785.5 c 128,-1,28
 421 776 421 776 421 774 c 2,29,-1
 614 249 l 2,30,31
 616 244 616 244 620.5 234.5 c 128,-1,32
 625 225 625 225 633 225 c 0,33,34
 637 225 637 225 641.5 229.5 c 128,-1,35
 646 234 646 234 649 240 c 128,-1,36
 652 246 652 246 654 251.5 c 128,-1,37
 656 257 656 257 657 259 c 2,38,-1
 831 721 l 1,39,40
 814 767 814 767 782 801.5 c 128,-1,41
 750 836 750 836 704 851 c 0,42,43
 697 853 697 853 687 855.5 c 128,-1,44
 677 858 677 858 667.5 862 c 128,-1,45
 658 866 658 866 651.5 872.5 c 128,-1,46
 645 879 645 879 645 890 c 0,47,48
 645 900 645 900 651 910 c 128,-1,49
 657 920 657 920 669 920 c 2,50,-1
 1195 920 l 2,51,52
 1201 920 1201 920 1202 908 c 128,-1,53
 1203 896 1203 896 1203 893 c 0,54,55
 1203 879 1203 879 1192 873.5 c 128,-1,56
 1181 868 1181 868 1165 866.5 c 128,-1,57
 1149 865 1149 865 1130 863.5 c 128,-1,58
 1111 862 1111 862 1095 856.5 c 128,-1,59
 1079 851 1079 851 1068 837.5 c 128,-1,60
 1057 824 1057 824 1057 798 c 0,61,62
 1057 795 1057 795 1058 785.5 c 128,-1,63
 1059 776 1059 776 1059 774 c 2,64,-1
 1223 328 l 2,65,66
 1225 323 1225 323 1229.5 313.5 c 128,-1,67
 1234 304 1234 304 1242 304 c 0,68,69
 1246 304 1246 304 1250.5 308.5 c 128,-1,70
 1255 313 1255 313 1258.5 319 c 128,-1,71
 1262 325 1262 325 1264 330.5 c 128,-1,72
 1266 336 1266 336 1267 338 c 2,73,-1
 1416 729 l 2,74,75
 1420 740 1420 740 1420 753 c 0,76,77
 1420 777 1420 777 1409.5 795.5 c 128,-1,78
 1399 814 1399 814 1383 826.5 c 128,-1,79
 1367 839 1367 839 1349.5 845 c 128,-1,80
 1332 851 1332 851 1318 851 c 0,81,82
 1298 851 1298 851 1278.5 861 c 128,-1,83
 1259 871 1259 871 1259 893 c 0,84,85
 1259 901 1259 901 1266 910.5 c 128,-1,86
 1273 920 1273 920 1281 920 c 2,87,-1
 1682 920 l 1,88,89
 1690 918 1690 918 1691.5 907.5 c 128,-1,90
 1693 897 1693 897 1693 892 c 0,91,92
 1693 885 1693 885 1691 880 c 128,-1,93
 1689 875 1689 875 1681.5 870.5 c 128,-1,94
 1674 866 1674 866 1660.5 862.5 c 128,-1,95
 1647 859 1647 859 1625 855 c 256,96,97
 1603 851 1603 851 1586.5 834.5 c 128,-1,98
 1570 818 1570 818 1556.5 796 c 128,-1,99
 1543 774 1543 774 1533 750.5 c 128,-1,100
 1523 727 1523 727 1514 708 c 1,101,102
 1447 533 1447 533 1400.5 413 c 128,-1,103
 1354 293 1354 293 1323.5 215 c 128,-1,104
 1293 137 1293 137 1276.5 94 c 128,-1,105
 1260 51 1260 51 1252 31 c 128,-1,106
 1244 11 1244 11 1242.5 6.5 c 128,-1,107
 1241 2 1241 2 1241 2 c 2,108,109
 1238 -5 1238 -5 1233 -16 c 128,-1,110
 1228 -27 1228 -27 1220 -27 c 2,111,-1
 1118 -27 l 2,112,113
 1110 -27 1110 -27 1104.5 -15.5 c 128,-1,114
 1099 -4 1099 -4 1096 4 c 2,115,-1
 879 590 l 1,116,-1
 652 2 l 2,117,118
 649 -5 649 -5 643.5 -16 c 128,-1,119
 638 -27 638 -27 630 -27 c 2,120,-1
 481 -27 l 1,121,-1
 481 -27 l 1,0,1
EndSplineSet
EndChar

StartChar: x
Encoding: 120 120 91
Width: 1111
Flags: W
LayerCount: 2
Fore
SplineSet
491 920 m 2,0,1
 497 920 497 920 498 913 c 128,-1,2
 499 906 499 906 499 903 c 0,3,4
 498 895 498 895 483 891.5 c 128,-1,5
 468 888 468 888 450 882.5 c 128,-1,6
 432 877 432 877 417 866 c 128,-1,7
 402 855 402 855 402 833 c 0,8,9
 402 824 402 824 404 815 c 128,-1,10
 406 806 406 806 411 801 c 2,11,-1
 542 640 l 2,12,13
 550 631 550 631 558.5 620.5 c 128,-1,14
 567 610 567 610 575 610 c 0,15,16
 580 610 580 610 588 620 c 2,17,-1
 705 760 l 2,18,19
 718 775 718 775 724 786.5 c 128,-1,20
 730 798 730 798 730 817 c 0,21,22
 730 847 730 847 714 858.5 c 128,-1,23
 698 870 698 870 678.5 875.5 c 128,-1,24
 659 881 659 881 643 886 c 128,-1,25
 627 891 627 891 627 908 c 0,26,27
 627 912 627 912 628.5 916 c 128,-1,28
 630 920 630 920 638 920 c 2,29,-1
 971 920 l 2,30,31
 977 920 977 920 978 917.5 c 128,-1,32
 979 915 979 915 979 903 c 0,33,34
 979 899 979 899 978 893 c 128,-1,35
 977 887 977 887 971 884 c 1,36,37
 942 876 942 876 921 866.5 c 128,-1,38
 900 857 900 857 882 844 c 128,-1,39
 864 831 864 831 847.5 813.5 c 128,-1,40
 831 796 831 796 811 772 c 2,41,-1
 628 554 l 2,42,43
 625 549 625 549 624.5 546.5 c 128,-1,44
 624 544 624 544 624 538 c 1,45,-1
 984 91 l 2,46,47
 994 78 994 78 1011.5 70.5 c 128,-1,48
 1029 63 1029 63 1045.5 56 c 128,-1,49
 1062 49 1062 49 1074 40.5 c 128,-1,50
 1086 32 1086 32 1086 18 c 0,51,52
 1086 9 1086 9 1084 6 c 128,-1,53
 1082 3 1082 3 1074 0 c 1,54,-1
 609 0 l 2,55,56
 601 0 601 0 600 8 c 128,-1,57
 599 16 599 16 599 19 c 0,58,59
 599 32 599 32 615.5 34.5 c 128,-1,60
 632 37 632 37 652.5 40 c 128,-1,61
 673 43 673 43 689.5 52 c 128,-1,62
 706 61 706 61 706 88 c 0,63,64
 706 102 706 102 697.5 113 c 128,-1,65
 689 124 689 124 681 133 c 2,66,-1
 509 335 l 1,67,68
 501 346 501 346 496.5 352 c 128,-1,69
 492 358 492 358 478 358 c 0,70,71
 466 358 466 358 458.5 347.5 c 128,-1,72
 451 337 451 337 443 329 c 2,73,-1
 296 154 l 2,74,75
 283 139 283 139 279 123.5 c 128,-1,76
 275 108 275 108 275 99 c 0,77,78
 275 81 275 81 288.5 67.5 c 128,-1,79
 302 54 302 54 321 45.5 c 128,-1,80
 340 37 340 37 359 33 c 128,-1,81
 378 29 378 29 390 29 c 0,82,83
 394 29 394 29 395.5 24 c 128,-1,84
 397 19 397 19 397 14 c 256,85,86
 397 9 397 9 395.5 4.5 c 128,-1,87
 394 0 394 0 390 0 c 2,88,-1
 49 0 l 2,89,90
 38 0 38 0 35.5 4.5 c 128,-1,91
 33 9 33 9 33 18 c 256,92,93
 33 27 33 27 49 37 c 128,-1,94
 65 47 65 47 85.5 56.5 c 128,-1,95
 106 66 106 66 126.5 76.5 c 128,-1,96
 147 87 147 87 156 98 c 2,97,-1
 431 431 l 1,98,-1
 105 841 l 2,99,100
 97 850 97 850 82.5 857.5 c 128,-1,101
 68 865 68 865 53 871.5 c 128,-1,102
 38 878 38 878 27.5 885 c 128,-1,103
 17 892 17 892 17 900 c 0,104,105
 19 920 19 920 41 920 c 2,106,-1
 491 920 l 2,0,1
EndSplineSet
EndChar

StartChar: y
Encoding: 121 121 92
Width: 1165
Flags: W
LayerCount: 2
Fore
SplineSet
331 -620 m 0,0,1
 313 -620 313 -620 296 -614 c 128,-1,2
 279 -608 279 -608 265 -597 c 128,-1,3
 251 -586 251 -586 242.5 -571.5 c 128,-1,4
 234 -557 234 -557 234 -539 c 0,5,6
 234 -511 234 -511 248.5 -496 c 128,-1,7
 263 -481 263 -481 284 -471 c 128,-1,8
 305 -461 305 -461 328 -454 c 128,-1,9
 351 -447 351 -447 367 -435 c 0,10,11
 378 -427 378 -427 390.5 -416.5 c 128,-1,12
 403 -406 403 -406 413 -383 c 2,13,-1
 544 -78 l 1,14,-1
 161 721 l 1,15,16
 144 767 144 767 112 801.5 c 128,-1,17
 80 836 80 836 34 851 c 0,18,19
 27 853 27 853 17 855.5 c 128,-1,20
 7 858 7 858 -2.5 862 c 128,-1,21
 -12 866 -12 866 -18.5 872.5 c 128,-1,22
 -25 879 -25 879 -25 890 c 0,23,24
 -25 900 -25 900 -19 910 c 128,-1,25
 -13 920 -13 920 -1 920 c 2,26,-1
 527 920 l 2,27,28
 533 920 533 920 534 908 c 128,-1,29
 535 896 535 896 535 893 c 0,30,31
 535 879 535 879 523.5 873.5 c 128,-1,32
 512 868 512 868 495 866 c 128,-1,33
 478 864 478 864 458.5 863 c 128,-1,34
 439 862 439 862 422 856 c 128,-1,35
 405 850 405 850 393.5 837 c 128,-1,36
 382 824 382 824 382 798 c 0,37,38
 382 795 382 795 386.5 785.5 c 128,-1,39
 391 776 391 776 391 774 c 2,40,-1
 639 243 l 2,41,42
 641 238 641 238 646.5 228.5 c 128,-1,43
 652 219 652 219 659 219 c 0,44,45
 663 219 663 219 667 223.5 c 128,-1,46
 671 228 671 228 674 234 c 128,-1,47
 677 240 677 240 679 245.5 c 128,-1,48
 681 251 681 251 682 253 c 0,49,50
 728 371 728 371 759.5 453 c 128,-1,51
 791 535 791 535 811.5 589 c 128,-1,52
 832 643 832 643 842.5 673.5 c 128,-1,53
 853 704 853 704 857.5 720.5 c 128,-1,54
 862 737 862 737 863 744.5 c 128,-1,55
 864 752 864 752 864 759 c 0,56,57
 866 794 866 794 843 817 c 128,-1,58
 820 840 820 840 788 851 c 0,59,60
 779 854 779 854 765.5 855.5 c 128,-1,61
 752 857 752 857 739.5 860.5 c 128,-1,62
 727 864 727 864 717.5 871.5 c 128,-1,63
 708 879 708 879 708 893 c 0,64,65
 708 901 708 901 715 910.5 c 128,-1,66
 722 920 722 920 730 920 c 2,67,-1
 1129 920 l 2,68,69
 1137 920 1137 920 1138.5 908.5 c 128,-1,70
 1140 897 1140 897 1140 892 c 0,71,72
 1140 885 1140 885 1138 880 c 128,-1,73
 1136 875 1136 875 1128.5 871 c 128,-1,74
 1121 867 1121 867 1107.5 863 c 128,-1,75
 1094 859 1094 859 1072 855 c 0,76,77
 1051 851 1051 851 1034 834.5 c 128,-1,78
 1017 818 1017 818 1003.5 796.5 c 128,-1,79
 990 775 990 775 979.5 751 c 128,-1,80
 969 727 969 727 961 708 c 2,81,-1
 454 -548 l 2,82,83
 446 -567 446 -567 431 -580.5 c 128,-1,84
 416 -594 416 -594 398 -603 c 128,-1,85
 380 -612 380 -612 362 -616 c 128,-1,86
 344 -620 344 -620 331 -620 c 0,0,1
EndSplineSet
EndChar

StartChar: z
Encoding: 122 122 93
Width: 1000
Flags: W
LayerCount: 2
Fore
SplineSet
62 20 m 0,0,1
 62 28 62 28 62.5 32 c 128,-1,2
 63 36 63 36 68 45 c 1,3,-1
 561 716 l 2,4,5
 571 730 571 730 578.5 740 c 128,-1,6
 586 750 586 750 586 765 c 1,7,8
 587 768 587 768 573 769.5 c 128,-1,9
 559 771 559 771 538 772 c 128,-1,10
 517 773 517 773 494 773.5 c 128,-1,11
 471 774 471 774 455 774 c 2,12,-1
 290 774 l 2,13,14
 256 774 256 774 233 759 c 128,-1,15
 210 744 210 744 193.5 721.5 c 128,-1,16
 177 699 177 699 166 672.5 c 128,-1,17
 155 646 155 646 146 623.5 c 128,-1,18
 137 601 137 601 128.5 586 c 128,-1,19
 120 571 120 571 108 571 c 0,20,21
 105 571 105 571 94 571.5 c 128,-1,22
 83 572 83 572 83 575 c 2,23,-1
 143 928 l 2,24,25
 145 937 145 937 158 938.5 c 128,-1,26
 171 940 171 940 179 940 c 0,27,28
 186 940 186 940 192.5 933 c 128,-1,29
 199 926 199 926 206.5 917.5 c 128,-1,30
 214 909 214 909 223 902 c 128,-1,31
 232 895 232 895 245 895 c 0,32,33
 260 895 260 895 284.5 893.5 c 128,-1,34
 309 892 309 892 346.5 890.5 c 128,-1,35
 384 889 384 889 437 888 c 128,-1,36
 490 887 490 887 564 887 c 0,37,38
 594 887 594 887 634.5 887.5 c 128,-1,39
 675 888 675 888 721.5 889 c 128,-1,40
 768 890 768 890 818 891 c 128,-1,41
 868 892 868 892 916 893 c 1,42,43
 922 891 922 891 924 884 c 128,-1,44
 926 877 926 877 926 870 c 0,45,46
 926 868 926 868 921 853.5 c 128,-1,47
 916 839 916 839 910 834 c 1,48,-1
 404 146 l 2,49,50
 400 140 400 140 396.5 135 c 128,-1,51
 393 130 393 130 393 123 c 0,52,53
 393 118 393 118 393.5 116.5 c 128,-1,54
 394 115 394 115 399 115 c 2,55,-1
 744 115 l 2,56,57
 771 115 771 115 792.5 126.5 c 128,-1,58
 814 138 814 138 832.5 156 c 128,-1,59
 851 174 851 174 866 194 c 128,-1,60
 881 214 881 214 895 232 c 128,-1,61
 909 250 909 250 921.5 261.5 c 128,-1,62
 934 273 934 273 947 273 c 0,63,64
 953 273 953 273 964.5 270 c 128,-1,65
 976 267 976 267 976 261 c 1,66,-1
 893 46 l 2,67,68
 891 42 891 42 888 34 c 128,-1,69
 885 26 885 26 880.5 18.5 c 128,-1,70
 876 11 876 11 869.5 5.5 c 128,-1,71
 863 0 863 0 855 0 c 2,72,-1
 84 0 l 2,73,74
 62 0 62 0 62 20 c 0,0,1
EndSplineSet
EndChar

StartChar: braceleft
Encoding: 123 123 94
Width: 1134
Flags: W
LayerCount: 2
Fore
SplineSet
206 702 m 0,0,1
 206 731 206 731 225.5 747.5 c 128,-1,2
 245 764 245 764 273 764 c 0,3,4
 327 764 327 764 358 797.5 c 128,-1,5
 389 831 389 831 389 909 c 0,6,7
 389 967 389 967 376.5 1024 c 128,-1,8
 364 1081 364 1081 349 1137.5 c 128,-1,9
 334 1194 334 1194 321.5 1251.5 c 128,-1,10
 309 1309 309 1309 309 1368 c 0,11,12
 309 1437 309 1437 333.5 1491.5 c 128,-1,13
 358 1546 358 1546 400 1586.5 c 128,-1,14
 442 1627 442 1627 496.5 1655.5 c 128,-1,15
 551 1684 551 1684 611.5 1701.5 c 128,-1,16
 672 1719 672 1719 733.5 1727 c 128,-1,17
 795 1735 795 1735 851 1735 c 0,18,19
 891 1735 891 1735 908.5 1723 c 128,-1,20
 926 1711 926 1711 926 1686 c 0,21,22
 926 1668 926 1668 920.5 1656.5 c 128,-1,23
 915 1645 915 1645 905 1639 c 128,-1,24
 895 1633 895 1633 882.5 1630.5 c 128,-1,25
 870 1628 870 1628 855 1627 c 0,26,27
 795 1624 795 1624 741.5 1609.5 c 128,-1,28
 688 1595 688 1595 648 1565.5 c 128,-1,29
 608 1536 608 1536 584.5 1490.5 c 128,-1,30
 561 1445 561 1445 561 1380 c 0,31,32
 561 1321 561 1321 565.5 1263.5 c 128,-1,33
 570 1206 570 1206 581 1139 c 0,34,35
 588 1094 588 1094 593 1051.5 c 128,-1,36
 598 1009 598 1009 598 965 c 0,37,38
 598 933 598 933 591 904.5 c 128,-1,39
 584 876 584 876 573 852 c 128,-1,40
 562 828 562 828 549 809 c 128,-1,41
 536 790 536 790 524 778 c 0,42,43
 516 770 516 770 505 760.5 c 128,-1,44
 494 751 494 751 484.5 741 c 128,-1,45
 475 731 475 731 468 721 c 128,-1,46
 461 711 461 711 461 702 c 256,47,48
 461 693 461 693 469 681.5 c 128,-1,49
 477 670 477 670 488 658 c 128,-1,50
 499 646 499 646 510 635.5 c 128,-1,51
 521 625 521 625 527 619 c 0,52,53
 538 606 538 606 550.5 587 c 128,-1,54
 563 568 563 568 573.5 544.5 c 128,-1,55
 584 521 584 521 591 493 c 128,-1,56
 598 465 598 465 598 434 c 0,57,58
 598 402 598 402 592.5 355.5 c 128,-1,59
 587 309 587 309 577 243 c 0,60,61
 569 189 569 189 565 132 c 128,-1,62
 561 75 561 75 561 25 c 0,63,64
 561 -32 561 -32 575.5 -75.5 c 128,-1,65
 590 -119 590 -119 614.5 -151.5 c 128,-1,66
 639 -184 639 -184 670.5 -206 c 128,-1,67
 702 -228 702 -228 737 -241.5 c 128,-1,68
 772 -255 772 -255 807 -260.5 c 128,-1,69
 842 -266 842 -266 873 -266 c 0,70,71
 908 -266 908 -266 917 -281 c 128,-1,72
 926 -296 926 -296 926 -324 c 0,73,74
 926 -348 926 -348 912.5 -361.5 c 128,-1,75
 899 -375 899 -375 873 -375 c 0,76,77
 825 -375 825 -375 764.5 -368.5 c 128,-1,78
 704 -362 704 -362 641.5 -346 c 128,-1,79
 579 -330 579 -330 519 -302 c 128,-1,80
 459 -274 459 -274 412.5 -231.5 c 128,-1,81
 366 -189 366 -189 337.5 -130 c 128,-1,82
 309 -71 309 -71 309 8 c 0,83,84
 309 63 309 63 321.5 119.5 c 128,-1,85
 334 176 334 176 349 232 c 128,-1,86
 364 288 364 288 376.5 343.5 c 128,-1,87
 389 399 389 399 389 453 c 0,88,89
 389 491 389 491 382.5 525 c 128,-1,90
 376 559 376 559 361.5 584.5 c 128,-1,91
 347 610 347 610 324 626 c 128,-1,92
 301 642 301 642 267 645 c 1,93,94
 241 651 241 651 223.5 666.5 c 128,-1,95
 206 682 206 682 206 702 c 0,0,1
EndSplineSet
EndChar

StartChar: bar
Encoding: 124 124 95
Width: 491
Flags: W
LayerCount: 2
Fore
SplineSet
150 1645 m 1,0,-1
 341 1645 l 1,1,-1
 341 -35 l 1,2,-1
 150 -35 l 1,3,-1
 150 1645 l 1,0,-1
EndSplineSet
EndChar

StartChar: braceright
Encoding: 125 125 96
Width: 1134
Flags: W
LayerCount: 2
Fore
SplineSet
928 702 m 0,0,1
 928 682 928 682 910.5 666.5 c 128,-1,2
 893 651 893 651 867 645 c 1,3,4
 833 642 833 642 810 626 c 128,-1,5
 787 610 787 610 772.5 584.5 c 128,-1,6
 758 559 758 559 751.5 525 c 128,-1,7
 745 491 745 491 745 453 c 0,8,9
 745 399 745 399 757.5 343.5 c 128,-1,10
 770 288 770 288 785 232 c 128,-1,11
 800 176 800 176 812.5 119.5 c 128,-1,12
 825 63 825 63 825 8 c 0,13,14
 825 -71 825 -71 796.5 -130 c 128,-1,15
 768 -189 768 -189 721.5 -231.5 c 128,-1,16
 675 -274 675 -274 615 -302 c 128,-1,17
 555 -330 555 -330 492.5 -346 c 128,-1,18
 430 -362 430 -362 369.5 -368.5 c 128,-1,19
 309 -375 309 -375 261 -375 c 0,20,21
 235 -375 235 -375 221.5 -361.5 c 128,-1,22
 208 -348 208 -348 208 -324 c 0,23,24
 208 -296 208 -296 217 -281 c 128,-1,25
 226 -266 226 -266 261 -266 c 0,26,27
 307 -266 307 -266 362 -252.5 c 128,-1,28
 417 -239 417 -239 463.5 -206 c 128,-1,29
 510 -173 510 -173 541.5 -117 c 128,-1,30
 573 -61 573 -61 573 25 c 0,31,32
 573 75 573 75 569 132 c 128,-1,33
 565 189 565 189 557 243 c 0,34,35
 548 308 548 308 542 356 c 128,-1,36
 536 404 536 404 536 434 c 0,37,38
 536 465 536 465 542.5 493 c 128,-1,39
 549 521 549 521 559.5 544.5 c 128,-1,40
 570 568 570 568 582 587 c 128,-1,41
 594 606 594 606 605 618 c 0,42,43
 611 625 611 625 622.5 635.5 c 128,-1,44
 634 646 634 646 645.5 657.5 c 128,-1,45
 657 669 657 669 665 681 c 128,-1,46
 673 693 673 693 673 702 c 0,47,48
 673 710 673 710 666 720 c 128,-1,49
 659 730 659 730 649 740.5 c 128,-1,50
 639 751 639 751 629 760.5 c 128,-1,51
 619 770 619 770 612 777 c 0,52,53
 600 790 600 790 586.5 809 c 128,-1,54
 573 828 573 828 562 852 c 128,-1,55
 551 876 551 876 543.5 904.5 c 128,-1,56
 536 933 536 933 536 965 c 0,57,58
 536 1009 536 1009 541 1051.5 c 128,-1,59
 546 1094 546 1094 553 1139 c 0,60,61
 564 1206 564 1206 568.5 1263.5 c 128,-1,62
 573 1321 573 1321 573 1380 c 0,63,64
 573 1445 573 1445 547.5 1491.5 c 128,-1,65
 522 1538 522 1538 480 1568 c 128,-1,66
 438 1598 438 1598 384 1612 c 128,-1,67
 330 1626 330 1626 273 1626 c 0,68,69
 237 1626 237 1626 222.5 1642 c 128,-1,70
 208 1658 208 1658 208 1686 c 0,71,72
 208 1711 208 1711 220.5 1723 c 128,-1,73
 233 1735 233 1735 273 1735 c 0,74,75
 336 1735 336 1735 401.5 1727 c 128,-1,76
 467 1719 467 1719 528.5 1701.5 c 128,-1,77
 590 1684 590 1684 644 1655.5 c 128,-1,78
 698 1627 698 1627 738 1586.5 c 128,-1,79
 778 1546 778 1546 801.5 1491.5 c 128,-1,80
 825 1437 825 1437 825 1368 c 0,81,82
 825 1309 825 1309 812.5 1251.5 c 128,-1,83
 800 1194 800 1194 785 1137.5 c 128,-1,84
 770 1081 770 1081 757.5 1024 c 128,-1,85
 745 967 745 967 745 909 c 0,86,87
 745 886 745 886 750.5 863.5 c 128,-1,88
 756 841 756 841 770 822 c 128,-1,89
 784 803 784 803 808 788 c 128,-1,90
 832 773 832 773 869 764 c 1,91,92
 893 761 893 761 910.5 744.5 c 128,-1,93
 928 728 928 728 928 702 c 0,0,1
EndSplineSet
EndChar

StartChar: asciitilde
Encoding: 126 126 97
Width: 1109
Flags: W
LayerCount: 2
Fore
SplineSet
1018 811 m 1,0,1
 1018 722 1018 722 997.5 652.5 c 128,-1,2
 977 583 977 583 942 535 c 128,-1,3
 907 487 907 487 861.5 461.5 c 128,-1,4
 816 436 816 436 765 436 c 0,5,6
 708 436 708 436 659 459 c 128,-1,7
 610 482 610 482 562 515 c 0,8,9
 518 545 518 545 485.5 565.5 c 128,-1,10
 453 586 453 586 429 598 c 128,-1,11
 405 610 405 610 386 615 c 128,-1,12
 367 620 367 620 350 620 c 0,13,14
 337 620 337 620 323 611.5 c 128,-1,15
 309 603 309 603 297 582.5 c 128,-1,16
 285 562 285 562 277.5 527.5 c 128,-1,17
 270 493 270 493 269 440 c 1,18,-1
 90 440 l 1,19,20
 90 529 90 529 110.5 598.5 c 128,-1,21
 131 668 131 668 166 716 c 128,-1,22
 201 764 201 764 246.5 789.5 c 128,-1,23
 292 815 292 815 343 815 c 0,24,25
 371 815 371 815 401 809.5 c 128,-1,26
 431 804 431 804 468.5 788.5 c 128,-1,27
 506 773 506 773 553.5 745.5 c 128,-1,28
 601 718 601 718 663 675 c 0,29,30
 686 659 686 659 711 645 c 128,-1,31
 736 631 736 631 759 631 c 0,32,33
 775 631 775 631 789.5 640.5 c 128,-1,34
 804 650 804 650 815 671.5 c 128,-1,35
 826 693 826 693 833 727.5 c 128,-1,36
 840 762 840 762 840 811 c 1,37,-1
 1018 811 l 1,0,1
EndSplineSet
EndChar

